SplineFontDB: 3.2
FontName: MononokiFork-Regular
FullName: Mononoki Fork Regular
FamilyName: MononokiFork
Weight: Regular
Copyright: Modifications:\nCopyright (c) 2020, Marvin Dostal\n\nOriginal author:\nCopyright (c) 2013-2017, Matthias Tellen matthias.tellen@googlemail.com\n\nLicensed under SIL OPEN FONT LICENSE Version 1.1 - 26 February 2007
Version: 2.0
ItalicAngle: 0
UnderlinePosition: 0
UnderlineWidth: 0
Ascent: 819
Descent: 205
InvalidEm: 1
UFOAscent: 750
UFODescent: -250
LayerCount: 2
Layer: 0 0 "Back" 1
Layer: 1 0 "Fore" 0
StyleMap: 0x0040
FSType: 0
OS2Version: 3
OS2_WeightWidthSlopeOnly: 0
OS2_UseTypoMetrics: 0
CreationTime: 1593379938
ModificationTime: 1610990123
PfmFamily: 17
TTFWeight: 400
TTFWidth: 5
LineGap: 0
VLineGap: 0
OS2TypoAscent: 0
OS2TypoAOffset: 1
OS2TypoDescent: 0
OS2TypoDOffset: 1
OS2TypoLinegap: 0
OS2WinAscent: 900
OS2WinAOffset: 0
OS2WinDescent: 250
OS2WinDOffset: 0
HheadAscent: 0
HheadAOffset: 1
HheadDescent: 0
HheadDOffset: 1
OS2CapHeight: 700
OS2XHeight: 500
OS2Vendor: 'PfEd'
Lookup: 260 0 0 "'mark' Mark Positioning lookup 0" { "'mark' Mark Positioning lookup 0-1"  } ['mark' ('DFLT' <'dflt' > 'cyrl' <'dflt' > 'grek' <'dflt' > 'latn' <'dflt' > 'mong' <'dflt' > ) ]
MarkAttachClasses: 1
DEI: 91125
LangName: 1033
Encoding: UnicodeBmp
UnicodeInterp: none
NameList: Adobe Glyph List
DisplaySize: -48
AntiAlias: 1
FitToEm: 0
WinInfo: 132 12 12
BeginPrivate: 3
BlueValues 31 [-15 0 500 516 700 716 750 766]
StemSnapH 4 [78]
StemSnapV 4 [85]
EndPrivate
Grid
-650 272 m 25
 1300 272 l 1049
-651 349 m 1
 1300 349 l 1049
EndSplineSet
TeXData: 1 0 0 588800 294400 196266 512000 1048576 196266 783286 444596 497025 792723 393216 433062 380633 303038 157286 324010 404750 52429 2506097 1059062 262144

StartChar: A
Encoding: 65 65 0
GlifName: A_
Width: 575
VWidth: 0
Flags: HMW
AnchorPoint: "mark-ogonek" 524 0 basechar 0
AnchorPoint: "mark-bottom" 288 0 basechar 0
AnchorPoint: "mark-top" 288 700 basechar 0
LayerCount: 2
Fore
SplineSet
411 621 m 258
 559 28 l 258
 563 11 555 0 537 0 c 258
 502 0 l 258
 487 0 478 7 474 22 c 258
 424 220 l 257
 152 220 l 257
 102 22 l 258
 98 7 89 0 74 0 c 258
 39 0 l 258
 21 0 13 11 17 28 c 258
 165 621 l 258
 180 679 229 710 288 710 c 259
 347 710 397 679 411 621 c 258
249 607 m 258
 171 296 l 257
 405 296 l 257
 327 607 l 258
 323 625 305 634 288 634 c 259
 271 634 253 625 249 607 c 258
EndSplineSet
PickledDataWithLists: "(dp0
Vcom.schriftgestaltung.Glyphs.lastChange\\u000d
p1
V2016-06-09 18:44:34 +0000\\u000d
p2
s."
EndChar

StartChar: A.hex
Encoding: 65537 -1 1
GlifName: A_.hex
Width: 575
VWidth: 0
Flags: HMW
AnchorPoint: "ogonek" 517 10 basechar 0
AnchorPoint: "top" 288 700 basechar 0
LayerCount: 2
Fore
SplineSet
114 875 m 258
 114 829 l 258
 114 812 105 804 89 804 c 258
 54 804 l 258
 37 804 29 813 29 829 c 258
 29 875 l 258
 29 891 38 900 54 900 c 258
 89 900 l 258
 105 900 114 891 114 875 c 258
402 875 m 258
 402 829 l 258
 402 812 393 804 377 804 c 258
 342 804 l 258
 325 804 317 813 317 829 c 258
 317 875 l 258
 317 891 326 900 342 900 c 258
 377 900 l 258
 393 900 402 891 402 875 c 258
410 621 m 258
 558 28 l 257
 563 11 554 0 537 0 c 258
 501 0 l 258
 486 0 477 7 473 22 c 258
 424 220 l 257
 152 220 l 257
 102 22 l 257
 99 7 89 0 74 0 c 258
 39 0 l 258
 21 0 13 11 17 28 c 258
 165 621 l 258
 180 679 229 710 288 710 c 256
 347 710 396 679 410 621 c 258
249 607 m 258
 171 296 l 257
 405 296 l 257
 327 607 l 258
 323 625 305 634 288 634 c 256
 271 634 253 625 249 607 c 258
EndSplineSet
Validated: 33
PickledDataWithLists: "(dp0
Vcom.schriftgestaltung.Glyphs.lastChange\\u000d
p1
V2016-06-09 18:35:33 +0000\\u000d
p2
s."
EndChar

StartChar: AE
Encoding: 198 198 2
GlifName: A_E_
Width: 575
VWidth: 0
Flags: HMW
LayerCount: 2
Fore
SplineSet
373 77 m 257
 493 77 l 258
 510 77 518 68 518 52 c 258
 518 25 l 258
 518 9 510 0 493 0 c 258
 313 0 l 258
 297 0 288 9 288 25 c 258
 288 170 l 257
 139 170 l 257
 102 22 l 257
 99 7 89 0 74 0 c 258
 39 0 l 258
 21 0 13 11 17 28 c 258
 165 621 l 258
 180 679 223 700 288 700 c 258
 482 700 l 258
 498 700 507 692 507 675 c 258
 507 649 l 258
 507 632 498 624 482 624 c 258
 373 624 l 257
 373 403 l 257
 475 403 l 258
 491 403 500 394 500 378 c 258
 500 351 l 258
 500 335 491 326 475 326 c 258
 373 326 l 257
 373 77 l 257
288 246 m 257
 288 634 l 257
 267 634 253 624 249 607 c 258
 158 246 l 257
 288 246 l 257
EndSplineSet
Validated: 33
PickledDataWithLists: "(dp0
Vcom.schriftgestaltung.Glyphs.lastChange\\u000d
p1
V2016-06-09 18:35:33 +0000\\u000d
p2
s."
EndChar

StartChar: B
Encoding: 66 66 13
GlifName: B_
Width: 575
VWidth: 0
Flags: HMW
AnchorPoint: "mark-top" 288 700 basechar 0
AnchorPoint: "mark-bottom" 288 0 basechar 0
LayerCount: 2
Fore
SplineSet
102 25 m 258
 102 624 l 257
 64 624 l 258
 48 624 39 633 39 649 c 258
 39 675 l 258
 39 691 48 700 64 700 c 258
 244 700 l 258
 406 700 473 606 473 521 c 259
 473 453 430 395 382 370 c 257
 463 341 513 271 513 196 c 259
 513 96 424 0 264 0 c 258
 127 0 l 258
 111 0 102 9 102 25 c 258
187 624 m 257
 187 403 l 257
 244 403 l 258
 344 403 398 452 398 511 c 259
 398 564 354 624 244 624 c 258
 187 624 l 257
187 77 m 257
 264 77 l 258
 380 77 437 139 437 201 c 259
 437 263 380 326 264 326 c 258
 187 326 l 257
 187 77 l 257
EndSplineSet
PickledDataWithLists: "(dp0
Vcom.schriftgestaltung.Glyphs.lastChange\\u000d
p1
V2016-06-09 18:35:33 +0000\\u000d
p2
s."
EndChar

StartChar: B.hex
Encoding: 65538 -1 14
GlifName: B_.hex
Width: 575
VWidth: 0
Flags: HMW
LayerCount: 2
Fore
SplineSet
114 875 m 258
 114 829 l 258
 114 812 105 804 89 804 c 258
 54 804 l 258
 37 804 29 813 29 829 c 258
 29 875 l 258
 29 891 38 900 54 900 c 258
 89 900 l 258
 105 900 114 891 114 875 c 258
402 875 m 258
 402 829 l 258
 402 812 393 804 377 804 c 258
 342 804 l 258
 325 804 317 813 317 829 c 258
 317 875 l 258
 317 891 326 900 342 900 c 258
 377 900 l 258
 393 900 402 891 402 875 c 258
546 875 m 258
 546 829 l 258
 546 812 537 804 521 804 c 258
 486 804 l 258
 469 804 461 813 461 829 c 258
 461 875 l 258
 461 891 470 900 486 900 c 258
 521 900 l 258
 537 900 546 891 546 875 c 258
102 25 m 258
 102 624 l 257
 64 624 l 258
 47 624 39 633 39 649 c 258
 39 675 l 258
 39 691 47 700 64 700 c 258
 244 700 l 258
 406 700 473 606 473 521 c 256
 473 453 430 395 382 370 c 257
 463 341 513 271 513 196 c 256
 513 96 424 0 264 0 c 258
 127 0 l 258
 111 0 102 9 102 25 c 258
187 624 m 257
 187 403 l 257
 244 403 l 258
 344 403 398 452 398 511 c 256
 398 564 354 624 244 624 c 258
 187 624 l 257
187 77 m 257
 264 77 l 258
 380 77 437 139 437 201 c 256
 437 263 380 326 264 326 c 258
 187 326 l 257
 187 77 l 257
EndSplineSet
Validated: 1
PickledDataWithLists: "(dp0
Vcom.schriftgestaltung.Glyphs.lastChange\\u000d
p1
V2016-06-09 18:35:33 +0000\\u000d
p2
s."
EndChar

StartChar: C
Encoding: 67 67 16
GlifName: C_
Width: 575
VWidth: 0
Flags: HMW
AnchorPoint: "mark-top" 288 700 basechar 0
AnchorPoint: "mark-bottom" 288 0 basechar 0
LayerCount: 2
Fore
SplineSet
449 91 m 256
 464 97 475 92 481 77 c 258
 491 53 l 258
 497 38 493 26 478 20 c 256
 431 0 385 -10 340 -10 c 259
 222 -10 85 60 85 310 c 258
 85 390 l 258
 85 640 222 710 340 710 c 259
 385 710 431 700 478 680 c 256
 493 674 497 662 491 647 c 258
 481 623 l 258
 475 608 464 603 449 609 c 256
 405 625 369 632 338 632 c 259
 259 632 171 586 171 390 c 258
 171 310 l 258
 171 114 259 68 338 68 c 259
 369 68 405 75 449 91 c 256
EndSplineSet
EndChar

StartChar: C.hex
Encoding: 65539 -1 17
GlifName: C_.hex
Width: 575
VWidth: 0
Flags: HMW
AnchorPoint: "top" 288 700 basechar 0
AnchorPoint: "bottom" 328 0 basechar 0
LayerCount: 2
Fore
SplineSet
114 875 m 258
 114 819 l 258
 114 802 105 794 89 794 c 258
 54 794 l 258
 37 794 29 803 29 819 c 258
 29 875 l 258
 29 891 38 900 54 900 c 258
 89 900 l 258
 105 900 114 891 114 875 c 258
258 875 m 258
 258 829 l 258
 258 812 249 804 233 804 c 258
 198 804 l 258
 181 804 173 813 173 829 c 258
 173 875 l 258
 173 891 182 900 198 900 c 258
 233 900 l 258
 249 900 258 891 258 875 c 258
449 91 m 256
 464 97 475 92 481 77 c 258
 491 53 l 258
 497 38 493 26 478 20 c 256
 431 0 385 -10 340 -10 c 256
 222 -10 85 60 85 310 c 258
 85 390 l 258
 85 640 222 710 340 710 c 256
 385 710 431 700 478 680 c 256
 493 674 497 662 491 647 c 258
 481 623 l 258
 475 608 464 603 449 609 c 256
 405 625 369 632 338 632 c 256
 259 632 171 586 171 390 c 258
 171 310 l 258
 171 114 259 68 338 68 c 256
 369 68 405 75 449 91 c 256
  PathStart: -2
EndSplineSet
Validated: 33
PickledDataWithLists: "(dp0
Vcom.schriftgestaltung.Glyphs.lastChange\\u000d
p1
V2016-06-09 18:35:33 +0000\\u000d
p2
s."
EndChar

StartChar: D
Encoding: 68 68 23
GlifName: D_
Width: 575
VWidth: 0
Flags: HMW
AnchorPoint: "mark-top" 288 700 basechar 0
AnchorPoint: "mark-bottom" 288 0 basechar 0
LayerCount: 2
Fore
SplineSet
64 700 m 258
 144 700 l 258
 393 700 517 631 517 370 c 258
 519 330 l 258
 519 102 436 0 185 0 c 258
 127 0 l 258
 111 0 102 9 102 25 c 258
 102 624 l 257
 64 624 l 258
 48 624 39 633 39 649 c 258
 39 675 l 258
 39 691 48 700 64 700 c 258
432 330 m 258
 432 370 l 258
 432 536 367 623 187 623 c 257
 187 77 l 257
 360 77 432 147 432 330 c 258
EndSplineSet
PickledDataWithLists: "(dp0
Vcom.schriftgestaltung.Glyphs.lastChange\\u000d
p1
V2016-06-09 18:46:00 +0000\\u000d
p2
s."
EndChar

StartChar: D.hex
Encoding: 65540 -1 24
GlifName: D_.hex
Width: 575
VWidth: 0
Flags: HMW
AnchorPoint: "center" 288 350 basechar 0
AnchorPoint: "top" 288 700 basechar 0
LayerCount: 2
Fore
SplineSet
114 875 m 258
 114 829 l 258
 114 812 105 804 89 804 c 258
 54 804 l 258
 37 804 29 813 29 829 c 258
 29 875 l 258
 29 891 38 900 54 900 c 258
 89 900 l 258
 105 900 114 891 114 875 c 258
258 875 m 258
 258 829 l 258
 258 812 249 804 233 804 c 258
 198 804 l 258
 181 804 173 813 173 829 c 258
 173 875 l 258
 173 891 182 900 198 900 c 258
 233 900 l 258
 249 900 258 891 258 875 c 258
546 875 m 258
 546 829 l 258
 546 812 537 804 521 804 c 258
 486 804 l 258
 469 804 461 813 461 829 c 258
 461 875 l 258
 461 891 470 900 486 900 c 258
 521 900 l 258
 537 900 546 891 546 875 c 258
64 700 m 258
 144 700 l 258
 393 700 517 631 517 370 c 258
 517 330 l 258
 517 102 434 0 183 0 c 258
 127 0 l 258
 111 0 102 9 102 25 c 258
 102 624 l 257
 64 624 l 258
 47 624 39 633 39 649 c 258
 39 675 l 258
 39 691 47 700 64 700 c 258
432 330 m 258
 432 370 l 258
 432 536 367 618 187 623 c 257
 187 77 l 257
 360 77 432 147 432 330 c 258
EndSplineSet
Validated: 1
PickledDataWithLists: "(dp0
Vcom.schriftgestaltung.Glyphs.lastChange\\u000d
p1
V2016-06-09 18:35:33 +0000\\u000d
p2
s."
EndChar

StartChar: E
Encoding: 69 69 27
GlifName: E_
Width: 575
VWidth: 0
Flags: HMW
AnchorPoint: "mark-top" 288 700 basechar 0
AnchorPoint: "mark-ogonek" 483 0 basechar 0
AnchorPoint: "mark-bottom" 288 -0 basechar 0
LayerCount: 2
Fore
SplineSet
170 77 m 257
 491 77 l 258
 507 77 516 68 516 52 c 258
 516 25 l 258
 516 9 507 0 491 0 c 258
 110 0 l 258
 94 0 85 9 85 25 c 258
 85 675 l 258
 85 691 94 700 110 700 c 258
 469 700 l 258
 485 700 494 691 494 675 c 258
 494 649 l 258
 494 633 485 624 469 624 c 258
 170 624 l 257
 170 403 l 257
 448 403 l 258
 464 403 473 394 473 378 c 258
 473 351 l 258
 473 335 464 326 448 326 c 258
 170 326 l 257
 170 77 l 257
EndSplineSet
PickledDataWithLists: "(dp0
Vcom.schriftgestaltung.Glyphs.lastChange\\u000d
p1
V2016-06-09 18:35:33 +0000\\u000d
p2
s."
EndChar

StartChar: E.hex
Encoding: 65541 -1 28
GlifName: E_.hex
Width: 575
VWidth: 0
Flags: HMW
AnchorPoint: "ogonek" 518 1 basechar 0
AnchorPoint: "bottom" 288 0 basechar 0
AnchorPoint: "top" 288 700 basechar 0
LayerCount: 2
Fore
SplineSet
114 875 m 258
 116 829 l 258
 117 812 107 804 91 804 c 258
 56 804 l 258
 39 804 32 813 31 829 c 258
 29 875 l 258
 28 891 38 900 54 900 c 258
 89 900 l 258
 105 900 113 891 114 875 c 258
258 875 m 258
 258 829 l 258
 258 812 249 804 233 804 c 258
 198 804 l 258
 181 804 173 813 173 829 c 258
 173 875 l 258
 173 891 182 900 198 900 c 258
 233 900 l 258
 249 900 258 891 258 875 c 258
402 875 m 258
 402 829 l 258
 402 812 393 804 377 804 c 258
 342 804 l 258
 325 804 317 813 317 829 c 258
 317 875 l 258
 317 891 326 900 342 900 c 258
 377 900 l 258
 393 900 402 891 402 875 c 258
170 77 m 257
 491 77 l 258
 507 77 516 68 516 52 c 258
 516 25 l 258
 516 9 507 0 491 0 c 258
 110 0 l 258
 94 0 85 9 85 25 c 258
 85 675 l 258
 85 691 94 700 110 700 c 258
 469 700 l 258
 485 700 494 692 494 675 c 258
 494 649 l 258
 494 632 485 624 469 624 c 258
 170 624 l 257
 170 403 l 257
 448 403 l 258
 464 403 473 394 473 378 c 258
 473 351 l 258
 473 335 464 326 448 326 c 258
 170 326 l 257
 170 77 l 257
EndSplineSet
Validated: 33
PickledDataWithLists: "(dp0
Vcom.schriftgestaltung.Glyphs.lastChange\\u000d
p1
V2016-06-09 18:35:33 +0000\\u000d
p2
s."
EndChar

StartChar: Eth
Encoding: 208 208 39
GlifName: E_th
Width: 575
VWidth: 0
Flags: HMW
AnchorPoint: "center" 288 350 basechar 0
AnchorPoint: "top" 288 700 basechar 0
LayerCount: 2
Fore
SplineSet
64 700 m 258
 144 700 l 258
 393 700 517 631 517 370 c 258
 517 330 l 258
 517 102 434 0 183 0 c 258
 127 0 l 258
 111 0 102 9 102 25 c 258
 102 312 l 257
 67 312 l 258
 51 312 42 321 42 337 c 258
 42 363 l 258
 42 380 51 389 67 389 c 258
 102 389 l 257
 102 624 l 257
 64 624 l 258
 47 624 39 633 39 649 c 258
 39 675 l 258
 39 691 47 700 64 700 c 258
187 77 m 257
 360 77 432 147 432 330 c 258
 432 370 l 258
 432 536 367 618 187 623 c 257
 187 389 l 257
 290 389 l 258
 306 389 315 380 315 364 c 258
 315 337 l 258
 315 321 306 312 290 312 c 258
 187 312 l 257
 187 77 l 257
  PathStart: -2
EndSplineSet
Validated: 1
PickledDataWithLists: "(dp0
Vcom.schriftgestaltung.Glyphs.lastChange\\u000d
p1
V2016-06-09 18:35:33 +0000\\u000d
p2
s."
EndChar

StartChar: Euro
Encoding: 8364 8364 40
GlifName: E_uro
Width: 575
VWidth: 0
Flags: HMW
LayerCount: 2
Fore
SplineSet
448 385 m 258
 68 385 l 258
 52 385 43 394 43 410 c 258
 43 431 l 258
 43 448 52 456 68 456 c 258
 86 456 l 257
 94 573 135 710 351 710 c 256
 384 710 438 708 499 697 c 256
 516 694 522 684 519 668 c 258
 513 641 l 257
 509 626 499 619 483 622 c 256
 426 632 376 634 351 634 c 256
 205 634 177 552 171 456 c 257
 448 456 l 258
 464 456 473 448 473 431 c 258
 473 410 l 258
 473 394 464 385 448 385 c 258
483 78 m 256
 499 81 509 75 513 59 c 258
 519 33 l 257
 522 17 516 6 499 3 c 256
 435 -9 382 -10 351 -10 c 256
 133 -10 93 130 86 244 c 257
 68 244 l 258
 52 244 43 253 43 269 c 258
 43 290 l 258
 43 307 52 315 68 315 c 258
 448 315 l 258
 464 315 473 307 473 290 c 258
 473 269 l 258
 473 253 464 244 448 244 c 258
 172 244 l 257
 181 116 230 67 351 67 c 256
 379 67 428 69 483 78 c 256
  PathStart: -2
EndSplineSet
Validated: 33
PickledDataWithLists: "(dp0
Vcom.schriftgestaltung.Glyphs.lastChange\\u000d
p1
V2015-12-22 14:04:06 +0000\\u000d
p2
s."
EndChar

StartChar: F
Encoding: 70 70 41
GlifName: F_
Width: 575
VWidth: 0
Flags: HMW
AnchorPoint: "mark-top" 288 700 basechar 0
AnchorPoint: "mark-bottom" 288 0 basechar 0
LayerCount: 2
Fore
SplineSet
110 700 m 258
 491 700 l 258
 507 700 516 691 516 675 c 258
 516 649 l 258
 516 633 507 624 491 624 c 258
 170 624 l 257
 170 369 l 257
 469 369 l 258
 485 369 494 360 494 344 c 258
 494 317 l 258
 494 301 485 292 469 292 c 258
 170 292 l 257
 170 25 l 258
 170 9 161 0 145 0 c 258
 110 0 l 258
 94 0 85 9 85 25 c 258
 85 675 l 258
 85 691 94 700 110 700 c 258
EndSplineSet
PickledDataWithLists: "(dp0
Vcom.schriftgestaltung.Glyphs.lastChange\\u000d
p1
V2016-06-09 18:35:33 +0000\\u000d
p2
s."
EndChar

StartChar: F.hex
Encoding: 65542 -1 42
GlifName: F_.hex
Width: 575
VWidth: 0
Flags: HMW
LayerCount: 2
Fore
SplineSet
140 875 m 258
 140 829 l 258
 140 812 131 804 115 804 c 258
 80 804 l 258
 63 804 55 813 55 829 c 258
 55 875 l 258
 55 891 64 900 80 900 c 258
 115 900 l 258
 131 900 140 891 140 875 c 258
264 875 m 258
 264 829 l 258
 264 812 255 804 239 804 c 258
 204 804 l 258
 187 804 179 813 179 829 c 258
 179 875 l 258
 179 891 188 900 204 900 c 258
 239 900 l 258
 255 900 264 891 264 875 c 258
388 875 m 258
 388 829 l 258
 388 812 379 804 363 804 c 258
 328 804 l 258
 311 804 303 813 303 829 c 258
 303 875 l 258
 303 891 312 900 328 900 c 258
 363 900 l 258
 379 900 388 891 388 875 c 258
512 875 m 258
 512 829 l 258
 512 812 503 804 487 804 c 258
 452 804 l 258
 435 804 427 813 427 829 c 258
 427 875 l 258
 427 891 436 900 452 900 c 258
 487 900 l 258
 503 900 512 891 512 875 c 258
110 700 m 258
 491 700 l 258
 507 700 516 692 516 675 c 258
 516 649 l 258
 516 632 507 624 491 624 c 258
 170 624 l 257
 170 368 l 257
 469 368 l 258
 485 368 494 359 494 343 c 258
 494 316 l 258
 494 300 485 292 469 292 c 258
 170 292 l 257
 170 25 l 258
 170 9 162 0 145 0 c 258
 110 0 l 258
 94 0 85 9 85 25 c 258
 85 675 l 258
 85 691 94 700 110 700 c 258
EndSplineSet
Validated: 1
PickledDataWithLists: "(dp0
Vcom.schriftgestaltung.Glyphs.lastChange\\u000d
p1
V2016-06-09 18:35:33 +0000\\u000d
p2
s."
EndChar

StartChar: G
Encoding: 71 71 43
GlifName: G_
Width: 575
VWidth: 0
Flags: HMW
AnchorPoint: "mark-top" 288 700 basechar 0
AnchorPoint: "mark-bottom" 288 0 basechar 0
LayerCount: 2
Fore
SplineSet
343 389 m 258
 475 389 l 258
 491 389 500 380 500 364 c 258
 500 51 l 258
 500 37 494 27 481 21 c 256
 432 0 385 -10 340 -10 c 259
 222 -10 85 60 85 310 c 258
 85 390 l 258
 85 640 222 710 340 710 c 259
 385 710 431 700 478 680 c 256
 493 674 497 662 491 647 c 258
 481 623 l 258
 475 608 464 603 449 609 c 256
 405 625 369 632 338 632 c 259
 259 632 171 586 171 390 c 258
 171 310 l 258
 171 114 259 68 338 68 c 259
 360 68 386 72 415 80 c 257
 415 312 l 257
 343 312 l 258
 327 312 318 321 318 337 c 258
 318 364 l 258
 318 380 327 389 343 389 c 258
EndSplineSet
EndChar

StartChar: Gamma
Encoding: 915 915 44
GlifName: G_amma
Width: 575
VWidth: 0
Flags: HMW
LayerCount: 2
Fore
SplineSet
95 700 m 258
 480 700 l 258
 497 700 505 692 505 675 c 258
 505 649 l 258
 505 632 497 624 480 624 c 258
 155 624 l 257
 155 25 l 258
 155 9 147 0 130 0 c 258
 95 0 l 258
 79 0 70 9 70 25 c 258
 70 675 l 258
 70 692 79 700 95 700 c 258
EndSplineSet
Validated: 1
PickledDataWithLists: "(dp0
Vcom.schriftgestaltung.Glyphs.lastChange\\u000d
p1
V2015-12-22 16:32:37 +0000\\u000d
p2
s."
EndChar

StartChar: H
Encoding: 72 72 46
GlifName: H_
Width: 575
VWidth: 0
Flags: HMW
AnchorPoint: "mark-bottom" 288 -0 basechar 0
AnchorPoint: "mark-top" 288 700 basechar 0
LayerCount: 2
Fore
SplineSet
447 700 m 258
 482 700 l 258
 498 700 507 691 507 675 c 258
 507 25 l 258
 507 9 498 0 482 0 c 258
 447 0 l 258
 431 0 422 9 422 25 c 258
 422 333 l 257
 153 333 l 257
 153 25 l 258
 153 9 144 0 128 0 c 258
 93 0 l 258
 77 0 68 9 68 25 c 258
 68 675 l 258
 68 691 77 700 93 700 c 258
 128 700 l 258
 144 700 153 691 153 675 c 258
 153 410 l 257
 422 410 l 257
 422 675 l 258
 422 691 431 700 447 700 c 258
EndSplineSet
PickledDataWithLists: "(dp0
Vcom.schriftgestaltung.Glyphs.lastChange\\u000d
p1
V2016-06-09 18:35:33 +0000\\u000d
p2
s."
EndChar

StartChar: I
Encoding: 73 73 48
GlifName: I_
Width: 575
VWidth: 0
Flags: HMW
AnchorPoint: "mark-bottom" 288 0 basechar 0
AnchorPoint: "mark-top" 288 700 basechar 0
AnchorPoint: "mark-ogonek" 456 0 basechar 0
LayerCount: 2
Fore
SplineSet
120 700 m 258
 455 700 l 258
 471 700 480 691 480 675 c 258
 480 649 l 258
 480 633 471 624 455 624 c 258
 330 624 l 257
 330 77 l 257
 465 77 l 258
 481 77 490 68 490 52 c 258
 490 25 l 258
 490 9 481 0 465 0 c 258
 110 0 l 258
 94 0 85 9 85 25 c 258
 85 52 l 258
 85 68 94 77 110 77 c 258
 245 77 l 257
 245 624 l 257
 120 624 l 258
 104 624 95 633 95 649 c 258
 95 675 l 258
 95 691 104 700 120 700 c 258
EndSplineSet
PickledDataWithLists: "(dp0
Vcom.schriftgestaltung.Glyphs.lastChange\\u000d
p1
V2016-06-09 18:35:33 +0000\\u000d
p2
s."
EndChar

StartChar: IJ
Encoding: 306 306 49
GlifName: I_J_
Width: 575
VWidth: 0
Flags: HMW
LayerCount: 2
Fore
SplineSet
90 700 m 258
 225 700 l 258
 241 700 250 692 250 675 c 258
 250 649 l 258
 250 632 241 624 225 624 c 258
 200 624 l 257
 200 77 l 257
 235 77 l 258
 252 77 260 68 260 52 c 258
 260 25 l 258
 260 9 252 0 235 0 c 258
 80 0 l 258
 64 0 55 9 55 25 c 258
 55 52 l 258
 55 68 64 77 80 77 c 258
 115 77 l 257
 115 624 l 257
 90 624 l 258
 74 624 65 633 65 649 c 258
 65 675 l 258
 65 692 74 700 90 700 c 258
352 700 m 258
 465 700 l 258
 482 700 490 692 490 675 c 258
 490 125 l 258
 490 24 437 1 341 1 c 256
 324 1 315 9 315 25 c 258
 315 52 l 258
 315 68 324 77 340 77 c 256
 377 77 405 86 405 125 c 258
 405 624 l 257
 352 624 l 258
 336 624 327 632 327 649 c 258
 327 675 l 258
 327 691 336 700 352 700 c 258
EndSplineSet
Validated: 1
PickledDataWithLists: "(dp0
Vcom.schriftgestaltung.Glyphs.lastChange\\u000d
p1
V2016-06-09 18:35:33 +0000\\u000d
p2
s."
EndChar

StartChar: J
Encoding: 74 74 57
GlifName: J_
Width: 575
VWidth: 0
Flags: HMW
AnchorPoint: "mark-top" 288 700 basechar 0
AnchorPoint: "mark-bottom" 288 0 basechar 0
LayerCount: 2
Fore
SplineSet
185 700 m 258
 465 700 l 258
 481 700 490 691 490 675 c 258
 490 270 l 258
 490 60 368 -10 243 -10 c 259
 196 -10 144 0 97 20 c 256
 82 26 78 38 84 53 c 258
 94 77 l 258
 100 92 111 97 126 91 c 256
 170 75 206 68 237 68 c 259
 316 68 404 114 404 270 c 258
 404 624 l 257
 185 624 l 258
 169 624 160 633 160 649 c 258
 160 675 l 258
 160 691 169 700 185 700 c 258
EndSplineSet
EndChar

StartChar: K
Encoding: 75 75 59
GlifName: K_
Width: 575
VWidth: 0
Flags: HMW
AnchorPoint: "mark-bottom" 288 -0 basechar 0
AnchorPoint: "mark-top" 288 700 basechar 0
LayerCount: 2
Fore
SplineSet
495 0 m 258
 443 0 l 258
 429 0 421 5 413 16 c 258
 191 323 l 257
 170 323 l 257
 170 25 l 258
 170 9 161 0 145 0 c 258
 110 0 l 258
 94 0 85 9 85 25 c 258
 85 675 l 258
 85 691 94 700 110 700 c 258
 145 700 l 258
 161 700 170 691 170 675 c 258
 170 399 l 257
 192 399 l 257
 397 685 l 258
 405 696 414 700 427 700 c 258
 480 700 l 258
 501 700 508 687 495 670 c 258
 263 360 l 257
 510 31 l 258
 523 14 516 0 495 0 c 258
EndSplineSet
EndChar

StartChar: L
Encoding: 76 76 61
GlifName: L_
Width: 575
VWidth: 0
Flags: HMW
AnchorPoint: "mark-bottom" 288 0 basechar 0
AnchorPoint: "mark-topright" 390 700 basechar 0
AnchorPoint: "mark-top" 288 700 basechar 0
LayerCount: 2
Fore
SplineSet
170 77 m 257
 529 77 l 258
 545 77 554 68 554 52 c 258
 554 25 l 258
 554 9 545 0 529 0 c 258
 110 0 l 258
 94 0 85 9 85 25 c 258
 85 675 l 258
 85 691 94 700 110 700 c 258
 145 700 l 258
 161 700 170 691 170 675 c 258
 170 77 l 257
EndSplineSet
PickledDataWithLists: "(dp0
Vcom.schriftgestaltung.Glyphs.lastChange\\u000d
p1
V2016-06-09 18:35:33 +0000\\u000d
p2
s."
EndChar

StartChar: Lambda
Encoding: 923 923 63
GlifName: L_ambda
Width: 575
VWidth: 0
Flags: HMW
LayerCount: 2
Fore
SplineSet
288 710 m 256
 352 710 396 679 410 621 c 258
 558 28 l 258
 563 11 554 0 537 0 c 258
 501 0 l 258
 486 0 477 7 473 22 c 258
 327 607 l 258
 323 624 309 634 288 634 c 256
 267 634 253 624 249 607 c 258
 102 22 l 258
 99 7 89 0 74 0 c 258
 39 0 l 258
 21 0 13 11 17 28 c 258
 165 621 l 258
 180 679 223 710 288 710 c 256
  PathStart: -2
EndSplineSet
Validated: 33
PickledDataWithLists: "(dp0
Vcom.schriftgestaltung.Glyphs.lastChange\\u000d
p1
V2015-12-22 12:18:02 +0000\\u000d
p2
s."
EndChar

StartChar: Lslash
Encoding: 321 321 66
GlifName: L_slash
Width: 575
VWidth: 0
Flags: HMW
AnchorPoint: "top" 288 700 basechar 0
AnchorPoint: "bottom" 288 0 basechar 0
LayerCount: 2
Fore
SplineSet
170 77 m 257
 529 77 l 258
 545 77 554 68 554 52 c 258
 554 25 l 258
 554 9 545 0 529 0 c 258
 110 0 l 258
 94 0 85 9 85 25 c 258
 85 280 l 257
 68 267 l 258
 57 259 42 261 34 271 c 257
 14 294 l 258
 4 306 7 323 19 332 c 258
 85 382 l 257
 85 675 l 258
 85 691 94 700 110 700 c 258
 145 700 l 258
 162 700 170 692 170 675 c 258
 170 446 l 257
 258 512 l 258
 269 520 284 517 292 507 c 258
 311 484 l 258
 321 471 319 455 307 446 c 258
 170 343 l 257
 170 77 l 257
EndSplineSet
Validated: 33
PickledDataWithLists: "(dp0
Vcom.schriftgestaltung.Glyphs.lastChange\\u000d
p1
V2016-06-09 18:35:33 +0000\\u000d
p2
s."
EndChar

StartChar: M
Encoding: 77 77 67
GlifName: M_
Width: 575
VWidth: 0
Flags: HMW
AnchorPoint: "mark-top" 288 700 basechar 0
AnchorPoint: "mark-bottom" 288 0 basechar 0
LayerCount: 2
Fore
SplineSet
498 700 m 258
 516 700 525 691 525 675 c 258
 545 26 l 258
 545 11 534 0 519 0 c 258
 485 0 l 258
 470 0 461 11 460 26 c 258
 442 540 l 257
 331 318 l 258
 325 305 316 300 302 300 c 258
 274 300 l 258
 260 300 251 305 245 318 c 258
 134 540 l 257
 116 26 l 258
 115 11 106 0 91 0 c 258
 57 0 l 258
 42 0 31 11 31 26 c 258
 51 675 l 258
 51 691 60 700 78 700 c 258
 95 700 l 258
 123 700 142 689 154 664 c 258
 288 399 l 257
 422 664 l 258
 434 689 453 700 481 700 c 258
 498 700 l 258
EndSplineSet
EndChar

StartChar: N
Encoding: 78 78 69
GlifName: N_
Width: 575
VWidth: 0
Flags: HMW
AnchorPoint: "mark-top" 288 700 basechar 0
AnchorPoint: "mark-bottom" 288 0 basechar 0
LayerCount: 2
Fore
SplineSet
446 700 m 258
 481 700 l 258
 497 700 506 691 506 675 c 258
 506 25 l 258
 506 9 497 0 481 0 c 258
 463 0 l 258
 435 0 417 11 404 36 c 258
 154 527 l 257
 154 25 l 258
 154 9 145 0 129 0 c 258
 94 0 l 258
 78 0 69 9 69 25 c 258
 69 675 l 258
 69 691 78 700 94 700 c 258
 112 700 l 258
 140 700 159 694 171 669 c 258
 421 169 l 257
 421 675 l 258
 421 691 430 700 446 700 c 258
EndSplineSet
EndChar

StartChar: O
Encoding: 79 79 74
GlifName: O_
Width: 575
VWidth: 0
Flags: HMW
AnchorPoint: "mark-top" 288 700 basechar 0
AnchorPoint: "mark-bottom" 288 0 basechar 0
LayerCount: 2
Fore
SplineSet
75 457 m 258
 75 624 170 710 288 710 c 259
 406 710 500 622 500 457 c 258
 500 243 l 258
 500 78 406 -10 288 -10 c 259
 170 -10 75 76 75 243 c 258
 75 457 l 258
  PathStart: -2
160 244 m 258
 160 132 223 67 288 67 c 259
 353 67 415 132 415 244 c 258
 415 457 l 258
 415 569 353 634 288 634 c 259
 223 634 160 569 160 457 c 258
 160 244 l 258
  PathStart: -2
EndSplineSet
PickledDataWithLists: "(dp0
Vcom.schriftgestaltung.Glyphs.lastChange\\u000d
p1
V2016-06-09 18:35:33 +0000\\u000d
p2
s."
EndChar

StartChar: OE
Encoding: 338 338 75
GlifName: O_E_
Width: 575
VWidth: 0
Flags: HMW
LayerCount: 2
Fore
SplineSet
373 77 m 257
 493 77 l 258
 510 77 518 68 518 52 c 258
 518 25 l 258
 518 9 510 0 493 0 c 258
 288 0 l 258
 144 0 85 109 85 253 c 258
 85 447 l 258
 85 594 146 700 288 700 c 258
 482 700 l 258
 498 700 507 692 507 675 c 258
 507 649 l 258
 507 632 498 624 482 624 c 258
 373 624 l 257
 373 403 l 257
 475 403 l 258
 491 403 500 394 500 378 c 258
 500 351 l 258
 500 335 491 326 475 326 c 258
 373 326 l 257
 373 77 l 257
288 77 m 257
 288 624 l 257
 196 624 170 539 170 447 c 258
 170 253 l 258
 170 161 196 77 288 77 c 257
EndSplineSet
Validated: 1
PickledDataWithLists: "(dp0
Vcom.schriftgestaltung.Glyphs.lastChange\\u000d
p1
V2016-06-09 18:35:33 +0000\\u000d
p2
s."
EndChar

StartChar: Oslash
Encoding: 216 216 83
GlifName: O_slash
Width: 575
VWidth: 0
Flags: HMW
LayerCount: 2
Fore
SplineSet
488 783 m 258
 520 767 l 258
 534 760 538 748 531 734 c 258
 463 598 l 257
 480 560 490 513 490 457 c 258
 490 243 l 258
 490 78 406 -10 288 -10 c 256
 245 -10 207 1 176 23 c 257
 118 -92 l 258
 111 -106 99 -110 85 -103 c 258
 53 -87 l 258
 39 -80 35 -68 42 -54 c 258
 116 94 l 257
 96 133 85 183 85 243 c 258
 85 457 l 258
 85 624 170 710 288 710 c 256
 333 710 373 697 405 672 c 257
 455 772 l 258
 462 786 474 790 488 783 c 258
170 457 m 258
 170 243 l 258
 170 230 171 218 172 206 c 257
 366 594 l 257
 345 620 318 634 288 634 c 256
 223 634 170 569 170 457 c 258
405 243 m 258
 405 457 l 258
 405 465 405 473 404 480 c 257
 214 100 l 257
 234 78 260 66 288 66 c 256
 353 66 405 131 405 243 c 258
EndSplineSet
PickledDataWithLists: "(dp0
Vcom.schriftgestaltung.Glyphs.lastChange\\u000d
p1
V2016-06-09 18:35:33 +0000\\u000d
p2
s."
EndChar

StartChar: P
Encoding: 80 80 85
GlifName: P_
Width: 575
VWidth: 0
Flags: HMW
AnchorPoint: "mark-top" 288 700 basechar 0
AnchorPoint: "mark-bottom" 288 0 basechar 0
LayerCount: 2
Fore
SplineSet
110 700 m 258
 245 700 l 258
 427 700 517 596 517 480 c 259
 517 361 425 260 245 260 c 258
 170 260 l 257
 170 25 l 258
 170 9 161 0 145 0 c 258
 110 0 l 258
 94 0 85 9 85 25 c 258
 85 675 l 258
 85 691 94 700 110 700 c 258
170 337 m 257
 245 337 l 258
 373 337 432 404 432 480 c 259
 432 556 372 624 245 624 c 258
 170 624 l 257
 170 337 l 257
EndSplineSet
PickledDataWithLists: "(dp0
Vcom.schriftgestaltung.Glyphs.lastChange\\u000d
p1
V2016-06-09 18:35:33 +0000\\u000d
p2
s."
EndChar

StartChar: Phi
Encoding: 934 934 86
GlifName: P_hi
Width: 575
VWidth: 0
Flags: HMW
LayerCount: 2
Fore
SplineSet
554 649 m 258
 554 633 545 624 529 624 c 258
 330 624 l 257
 330 550 l 257
 454 537 530 463 530 350 c 256
 530 239 454 165 330 150 c 257
 330 76 l 257
 529 76 l 258
 545 76 554 67 554 51 c 258
 554 25 l 258
 554 8 545 0 529 0 c 258
 47 0 l 258
 30 0 22 9 22 25 c 258
 22 51 l 258
 22 67 30 76 46 76 c 258
 245 76 l 257
 245 150 l 257
 121 163 45 238 45 350 c 256
 45 461 120 535 245 549 c 257
 245 624 l 257
 46 624 l 258
 30 624 22 633 22 649 c 258
 22 675 l 258
 22 691 30 700 47 700 c 258
 529 700 l 258
 545 700 554 692 554 675 c 258
 554 649 l 258
  PathStart: -2
245 472 m 257
 173 459 130 415 130 350 c 256
 130 285 173 240 245 228 c 257
 245 472 l 257
  PathStart: -2
330 228 m 257
 402 241 445 285 445 350 c 256
 445 415 402 460 330 472 c 257
 330 228 l 257
  PathStart: -2
EndSplineSet
Validated: 1
PickledDataWithLists: "(dp0
Vcom.schriftgestaltung.Glyphs.lastChange\\u000d
p1
V2015-12-22 12:22:42 +0000\\u000d
p2
s."
EndChar

StartChar: Pi
Encoding: 928 928 87
GlifName: P_i
Width: 575
VWidth: 0
Flags: HMW
LayerCount: 2
Fore
SplineSet
110 700 m 258
 465 700 l 258
 482 700 490 692 490 675 c 258
 490 25 l 258
 490 9 482 0 465 0 c 258
 430 0 l 258
 414 0 405 9 405 25 c 258
 405 624 l 257
 170 624 l 257
 170 25 l 258
 170 9 162 0 145 0 c 258
 110 0 l 258
 94 0 85 9 85 25 c 258
 85 675 l 258
 85 692 94 700 110 700 c 258
EndSplineSet
Validated: 1
PickledDataWithLists: "(dp0
Vcom.schriftgestaltung.Glyphs.lastChange\\u000d
p1
V2015-12-22 12:20:26 +0000\\u000d
p2
s."
EndChar

StartChar: Psi
Encoding: 936 936 88
GlifName: P_si
Width: 575
VWidth: 0
Flags: HMW
LayerCount: 2
Fore
SplineSet
460 700 m 258
 495 700 l 258
 512 700 520 692 520 675 c 258
 520 433 l 258
 520 309 456 235 330 222 c 257
 330 25 l 258
 330 9 322 0 305 0 c 258
 270 0 l 258
 254 0 245 9 245 25 c 258
 245 222 l 257
 119 236 55 310 55 433 c 258
 55 675 l 258
 55 691 64 700 80 700 c 258
 115 700 l 258
 131 700 140 692 140 675 c 258
 140 433 l 258
 140 363 173 314 245 301 c 257
 245 675 l 258
 245 691 254 700 270 700 c 258
 305 700 l 258
 322 700 330 691 330 675 c 258
 330 301 l 257
 402 314 435 363 435 433 c 258
 435 675 l 258
 435 691 444 700 460 700 c 258
EndSplineSet
Validated: 1
PickledDataWithLists: "(dp0
Vcom.schriftgestaltung.Glyphs.lastChange\\u000d
p1
V2015-12-22 12:24:48 +0000\\u000d
p2
s."
EndChar

StartChar: Q
Encoding: 81 81 89
GlifName: Q_
Width: 575
VWidth: 0
Flags: HMW
AnchorPoint: "mark-top" 288 700 basechar 0
LayerCount: 2
Fore
SplineSet
245 -5 m 257
 245 -5 331 -5 331 -5 c 257
 331 -113 369 -142 427 -142 c 256
 452 -142 475 -138 502 -128 c 256
 517 -122 528 -127 535 -142 c 257
 546 -168 l 258
 552 -183 548 -195 532 -200 c 257
 499 -212 462 -220 427 -220 c 256
 332 -220 245 -166 245 -5 c 257
EndSplineSet
Refer: 74 79 N 1 0 0 1 0 0 2
EndChar

StartChar: R
Encoding: 82 82 90
GlifName: R_
Width: 575
VWidth: 0
Flags: HMW
AnchorPoint: "mark-bottom" 288 0 basechar 0
AnchorPoint: "mark-top" 288 700 basechar 0
LayerCount: 2
Fore
SplineSet
398 335 m 257
 551 30 l 258
 560 12 552 0 533 0 c 258
 491 0 l 258
 477 0 468 6 462 18 c 258
 315 312 l 257
 170 312 l 257
 170 25 l 258
 170 9 161 0 145 0 c 258
 110 0 l 258
 94 0 85 9 85 25 c 258
 85 675 l 258
 85 691 94 700 110 700 c 258
 268 700 l 258
 421 700 500 615 500 506 c 259
 500 434 463 367 398 335 c 257
170 389 m 257
 268 389 l 258
 369 389 415 448 415 506 c 259
 415 565 367 624 268 624 c 258
 170 624 l 257
 170 389 l 257
EndSplineSet
EndChar

StartChar: S
Encoding: 83 83 94
GlifName: S_
Width: 575
VWidth: 0
Flags: HMW
AnchorPoint: "mark-bottom" 288 0 basechar 0
AnchorPoint: "mark-top" 288 700 basechar 0
LayerCount: 2
Back
SplineSet
467 652 m 258
 458 625 l 258
 453 610 442 605 427 611 c 256
 392 624 354 634 316 634 c 256
 239 634 168 593 168 524 c 256
 168 474 206 421 292 403 c 256
 441 372 514 291 514 195 c 256
 514 69 387 -10 250 -10 c 256
 202 -10 147 0 101 20 c 256
 86 26 82 38 88 53 c 258
 98 77 l 258
 104 92 115 97 130 91 c 256
 169 75 221 69 255 69 c 256
 348 69 428 113 428 190 c 256
 428 246 385 297 284 318 c 256
 138 349 82 434 82 521 c 256
 82 646 196 710 316 710 c 256
 359 710 415 701 456 683 c 256
 471 676 472 668 467 652 c 258
EndSplineSet
Fore
SplineSet
467 652 m 258
 458 625 l 258
 452 610 442 605 427 611 c 256
 392.330680362 624.867727855 354 634 316 634 c 259
 239 634 168 593 168 524 c 259
 168 347.759101286 514 439 514 195 c 259
 514 64 389 -10 250 -10 c 259
 202 -10 147 0 101 20 c 256
 86 26 82 38 88 53 c 258
 98 78 l 258
 104 93 115 98 130 92 c 256
 169 76 221 69 255 69 c 259
 348 69 428 113 428 190 c 259
 428 365.002976164 82 267.997942396 82 521 c 259
 82 646 196 710 316 710 c 259
 359 710 415 701 456 683 c 256
 471 676 473 667 467 652 c 258
EndSplineSet
EndChar

StartChar: T
Encoding: 84 84 100
GlifName: T_
Width: 575
VWidth: 0
Flags: HMW
AnchorPoint: "mark-bottom" 288 -0 basechar 0
AnchorPoint: "mark-top" 288 700 basechar 0
LayerCount: 2
Fore
SplineSet
554 675 m 258
 554 649 l 258
 554 633 545 624 529 624 c 258
 330 624 l 257
 330 25 l 258
 330 9 321 0 305 0 c 258
 270 0 l 258
 254 0 245 9 245 25 c 258
 245 624 l 257
 47 624 l 258
 31 624 22 633 22 649 c 258
 22 675 l 258
 22 691 31 700 47 700 c 258
 529 700 l 258
 545 700 554 691 554 675 c 258
EndSplineSet
PickledDataWithLists: "(dp0
Vcom.schriftgestaltung.Glyphs.lastChange\\u000d
p1
V2016-06-09 18:35:33 +0000\\u000d
p2
s."
EndChar

StartChar: Theta
Encoding: 920 920 104
GlifName: T_heta
Width: 575
VWidth: 0
Flags: HMW
LayerCount: 2
Fore
SplineSet
226 337 m 258
 226 364 l 258
 226 380 235 389 251 389 c 258
 320 389 l 258
 336 389 345 380 345 364 c 258
 345 337 l 258
 345 321 336 312 320 312 c 258
 251 312 l 258
 235 312 226 321 226 337 c 258
EndSplineSet
Refer: 74 79 N 1 0 0 1 0 0 2
PickledDataWithLists: "(dp0
Vcom.schriftgestaltung.Glyphs.lastChange\\u000d
p1
V2016-05-30 08:32:14 +0000\\u000d
p2
s."
EndChar

StartChar: Thorn
Encoding: 222 222 105
GlifName: T_horn
Width: 575
VWidth: 0
Flags: HMW
LayerCount: 2
Fore
SplineSet
170 675 m 258
 170 637 l 257
 206 641 237 642 259 642 c 256
 425 642 490 567 490 382 c 256
 490 197 426 121 259 121 c 256
 239 121 208 122 170 126 c 257
 170 25 l 258
 170 9 161 0 145 0 c 258
 110 0 l 258
 94 0 85 9 85 25 c 258
 85 675 l 258
 85 691 94 700 110 700 c 258
 145 700 l 258
 161 700 170 691 170 675 c 258
170 562 m 257
 170 202 l 257
 207 199 239 198 259 198 c 256
 371 198 405 247 405 382 c 256
 405 514 373 565 259 565 c 256
 241 565 209 565 170 562 c 257
EndSplineSet
Validated: 1
PickledDataWithLists: "(dp0
Vcom.schriftgestaltung.Glyphs.lastChange\\u000d
p1
V2016-06-09 18:35:33 +0000\\u000d
p2
s."
EndChar

StartChar: U
Encoding: 85 85 106
GlifName: U_
Width: 575
VWidth: 0
Flags: HMW
AnchorPoint: "mark-top" 288 700 basechar 0
AnchorPoint: "mark-bottom" 288 0 basechar 0
AnchorPoint: "mark-ogonek" 355 3 basechar 0
AnchorPoint: "topright" 555 700 basechar 0
LayerCount: 2
Fore
SplineSet
415 213 m 258
 415 675 l 258
 415 691 424 700 440 700 c 258
 475 700 l 258
 491 700 500 691 500 675 c 258
 500 213 l 258
 500 46 406 -10 288 -10 c 259
 170 -10 75 46 75 213 c 258
 75 675 l 258
 75 691 84 700 100 700 c 258
 135 700 l 258
 151 700 160 691 160 675 c 258
 160 213 l 258
 160 103 203 66 288 66 c 259
 372 66 415 103 415 213 c 258
EndSplineSet
EndChar

StartChar: V
Encoding: 86 86 117
GlifName: V_
Width: 575
VWidth: 0
Flags: HMW
AnchorPoint: "mark-bottom" 288 0 basechar 0
AnchorPoint: "mark-top" 288 700 basechar 0
LayerCount: 2
Fore
SplineSet
558 672 m 258
 410 79 l 258
 396 21 347 -10 288 -10 c 259
 229 -10 180 21 165 79 c 258
 17 672 l 258
 13 689 21 700 39 700 c 258
 74 700 l 258
 89 700 99 693 102 678 c 258
 249 93 l 258
 253 75 271 66 288 66 c 259
 305 66 323 75 327 93 c 258
 473 678 l 258
 477 693 486 700 501 700 c 258
 537 700 l 258
 554 700 563 689 558 672 c 258
EndSplineSet
EndChar

StartChar: W
Encoding: 87 87 118
GlifName: W_
Width: 575
VWidth: 0
Flags: HMW
AnchorPoint: "mark-top" 288 700 basechar 0
AnchorPoint: "mark-bottom" 288 0 basechar 0
LayerCount: 2
Back
SplineSet
545 675 m 262
 525 20 l 262
 525 4 516 -5 498 -5 c 262
 482 -5 l 262
 454 -5 435 6 423 31 c 262
 288 301 l 261
 153 31 l 262
 141 6 122 -5 94 -5 c 262
 78 -5 l 262
 60 -5 51 4 51 20 c 262
 31 675 l 262
 31 690 42 700 57 700 c 262
 91 700 l 262
 106 700 115 690 116 675 c 262
 134 160 l 261
 245 382 l 262
 251 395 260 400 274 400 c 262
 302 400 l 262
 316 400 325 395 331 382 c 262
 442 160 l 261
 460 675 l 262
 461 690 470 700 485 700 c 262
 519 700 l 262
 534 700 545 690 545 675 c 262
EndSplineSet
Fore
Refer: 67 77 N 1 0 0 -1 0 700 2
EndChar

StartChar: X
Encoding: 88 88 123
GlifName: X_
Width: 575
VWidth: 0
Flags: HMW
AnchorPoint: "mark-top" 288 700 basechar 0
AnchorPoint: "mark-bottom" 288 0 basechar 0
LayerCount: 2
Fore
SplineSet
528 671 m 258
 393 390 l 258
 386 376 372 364 355 357 c 257
 372 351 386 338 393 325 c 258
 535 30 l 258
 543 12 536 0 517 0 c 258
 486 0 l 258
 472 0 462 6 456 18 c 258
 318 295 l 258
 308 315 298 325 288 325 c 259
 277 325 267 315 258 295 c 258
 119 18 l 258
 113 6 104 0 90 0 c 258
 59 0 l 258
 40 0 32 12 40 30 c 258
 183 325 l 258
 189 338 204 351 220 357 c 257
 204 364 189 376 183 390 c 258
 47 671 l 258
 39 688 46 700 66 700 c 258
 97 700 l 258
 111 700 120 695 126 682 c 258
 258 419 l 258
 267 400 277 390 288 390 c 259
 298 390 308 399 318 419 c 258
 449 682 l 258
 455 695 465 700 479 700 c 258
 510 700 l 258
 529 700 537 688 528 671 c 258
EndSplineSet
EndChar

StartChar: Xi
Encoding: 926 926 124
GlifName: X_i
Width: 575
VWidth: 0
Flags: HMW
LayerCount: 2
Fore
SplineSet
469 624 m 258
 106 624 l 258
 90 624 81 632 81 649 c 258
 81 675 l 258
 81 692 90 700 106 700 c 258
 469 700 l 258
 485 700 494 692 494 675 c 258
 494 649 l 258
 494 632 485 624 469 624 c 258
127 403 m 258
 448 403 l 258
 464 403 473 394 473 378 c 258
 473 351 l 258
 473 335 464 326 448 326 c 258
 127 326 l 258
 111 326 102 335 102 351 c 258
 102 378 l 258
 102 394 111 403 127 403 c 258
84 77 m 258
 491 77 l 258
 507 77 516 68 516 52 c 258
 516 25 l 258
 516 9 507 0 491 0 c 258
 84 0 l 258
 68 0 59 9 59 25 c 258
 59 52 l 258
 59 68 68 77 84 77 c 258
EndSplineSet
Validated: 1
PickledDataWithLists: "(dp0
Vcom.schriftgestaltung.Glyphs.lastChange\\u000d
p1
V2015-12-22 12:18:54 +0000\\u000d
p2
s."
EndChar

StartChar: Y
Encoding: 89 89 125
GlifName: Y_
Width: 575
VWidth: 0
Flags: HMW
AnchorPoint: "mark-top" 288 700 basechar 0
AnchorPoint: "mark-bottom" 288 0 basechar 0
LayerCount: 2
Fore
SplineSet
496 700 m 258
 532 700 l 258
 552 700 559 688 550 671 c 258
 405 380 l 258
 389 347 363 325 330 315 c 257
 330 25 l 258
 330 9 321 0 305 0 c 258
 270 0 l 258
 254 0 245 9 245 25 c 258
 245 315 l 257
 212 325 186 347 170 380 c 258
 25 671 l 258
 16 688 24 700 43 700 c 258
 80 700 l 258
 94 700 103 695 109 682 c 258
 245 410 l 258
 255 391 270 380 288 380 c 259
 306 380 321 391 330 410 c 258
 466 682 l 258
 472 695 482 700 496 700 c 258
EndSplineSet
EndChar

StartChar: Z
Encoding: 90 90 130
GlifName: Z_
Width: 575
VWidth: 0
Flags: HMW
AnchorPoint: "mark-top" 288 700 basechar 0
AnchorPoint: "mark-bottom" 288 0 basechar 0
LayerCount: 2
Fore
SplineSet
434 455 m 258
 196 217 l 258
 169 190 153 141 150 77 c 257
 485 77 l 258
 501 77 510 68 510 52 c 258
 510 25 l 258
 510 9 501 0 485 0 c 258
 90 0 l 258
 74 0 65 9 65 25 c 258
 65 55 l 258
 65 142 92 216 141 265 c 258
 380 504 l 258
 405 529 421 571 424 624 c 257
 121 624 l 258
 105 624 96 633 96 649 c 258
 96 675 l 258
 96 691 105 700 121 700 c 258
 485 700 l 258
 501 700 510 691 510 675 c 258
 510 645 l 258
 510 572 483 504 434 455 c 258
EndSplineSet
EndChar

StartChar: a
Encoding: 97 97 135
GlifName: a
Width: 575
VWidth: 0
Flags: MW
AnchorPoint: "mark-bottom" 288 0 basechar 0
AnchorPoint: "mark-ogonek" 445 5 basechar 0
AnchorPoint: "mark-top" 288 500 basechar 0
LayerCount: 2
Fore
SplineSet
476 319 m 258
 476 29 l 258
 476 13 468 4 452 2 c 256
 394 -5 337 -10 288 -10 c 259
 152 -10 77 76 77 154 c 259
 77 232 151 314 291 314 c 258
 391 314 l 257
 391 319 l 258
 391 407 342 436 257 436 c 259
 226 436 194 432 164 426 c 256
 148 423 137 428 134 444 c 258
 129 470 l 258
 126 486 132 496 148 499 c 256
 193 508 239 512 276 512 c 259
 402 512 476 457 476 319 c 258
391 237 m 257
 291 237 l 258
 208 237 163 192 163 153 c 259
 163 114 208 65 294 65 c 259
 323 65 358 68 391 71 c 257
 391 237 l 257
EndSplineSet
EndChar

StartChar: a.hex
Encoding: 65543 -1 136
GlifName: a.hex
Width: 575
VWidth: 0
Flags: HMW
AnchorPoint: "ogonek" 518 5 basechar 0
AnchorPoint: "top" 288 550 basechar 0
LayerCount: 2
Fore
SplineSet
114 875 m 258
 114 829 l 258
 114 812 105 804 89 804 c 258
 54 804 l 258
 37 804 29 813 29 829 c 258
 29 875 l 258
 29 891 38 900 54 900 c 258
 89 900 l 258
 105 900 114 891 114 875 c 258
402 875 m 258
 402 829 l 258
 402 812 393 804 377 804 c 258
 342 804 l 258
 325 804 317 813 317 829 c 258
 317 875 l 258
 317 891 326 900 342 900 c 258
 377 900 l 258
 393 900 402 891 402 875 c 258
470 319 m 258
 470 29 l 258
 470 13 462 4 446 2 c 256
 388 -5 334 -10 285 -10 c 256
 149 -10 77 58 77 134 c 256
 77 210 148 279 288 279 c 258
 385 279 l 257
 385 319 l 258
 385 407 336 435 254 435 c 256
 223 435 193 431 163 425 c 256
 147 422 135 428 133 443 c 258
 130 470 l 258
 128 486 133 496 149 499 c 256
 194 508 236 512 273 512 c 256
 399 512 470 457 470 319 c 258
385 202 m 257
 288 202 l 258
 205 202 163 170 163 133 c 256
 163 96 205 65 291 65 c 256
 320 65 352 68 385 71 c 257
 385 202 l 257
EndSplineSet
Validated: 33
PickledDataWithLists: "(dp0
Vcom.schriftgestaltung.Glyphs.lastChange\\u000d
p1
V2016-06-09 18:35:34 +0000\\u000d
p2
s."
EndChar

StartChar: acute
Encoding: 180 180 140
GlifName: acute
Width: 575
VWidth: 0
GlyphClass: 2
Flags: HMW
LayerCount: 2
Fore
SplineSet
185 544 m 257
 177 562 l 257
 171 577 175 588 190 595 c 258
 400 696 l 258
 414 703 426 699 433 684 c 258
 454 638 l 258
 461 623 456 611 440 606 c 258
 219 531 l 258
 204 526 193 530 185 544 c 257
EndSplineSet
EndChar

StartChar: ae
Encoding: 230 230 142
GlifName: ae
Width: 575
VWidth: 0
Flags: HMW
LayerCount: 2
Fore
SplineSet
125 443 m 258
 118 470 l 258
 114 486 121 496 137 499 c 256
 174 506 216 510 252 510 c 256
 418 510 484 412 484 270 c 258
 484 247 l 258
 484 231 475 222 459 222 c 258
 325 222 l 257
 325 67 l 257
 349 68 379 71 412 76 c 257
 428 79 438 73 442 57 c 258
 448 31 l 258
 452 15 445 4 428 1 c 256
 374 -9 362 -9 290 -10 c 256
 125 -10 67 46 65 149 c 256
 65 243 127 290 240 298 c 257
 240 433 l 257
 217 432 186 430 155 425 c 256
 139 422 129 428 125 443 c 258
325 299 m 257
 399 299 l 257
 396 347 379 401 325 415 c 257
 325 299 l 257
240 67 m 257
 240 220 l 257
 183 214 151 190 150 140 c 256
 150 98 188 73 240 67 c 257
EndSplineSet
Validated: 33
PickledDataWithLists: "(dp0
Vcom.schriftgestaltung.Glyphs.lastChange\\u000d
p1
V2016-06-09 18:35:33 +0000\\u000d
p2
s."
EndChar

StartChar: alpha
Encoding: 945 945 144
GlifName: alpha
Width: 575
VWidth: 0
Flags: HMW
LayerCount: 2
Fore
SplineSet
479 500 m 258
 506 500 l 258
 524 500 533 492 529 471 c 256
 526 455 518 355 483 250 c 257
 518 145 526 45 529 29 c 256
 533 8 524 0 506 0 c 258
 479 0 l 258
 464 0 457 5 453 22 c 256
 451 32 447 71 438 121 c 257
 397 47 338 -10 252 -10 c 256
 159 -10 45 39 45 250 c 256
 45 461 159 510 252 510 c 256
 338 510 397 453 438 379 c 257
 447 429 451 468 453 478 c 256
 457 495 464 500 479 500 c 258
130 250 m 256
 130 96 206 67 252 67 c 256
 331 67 379 155 421 250 c 257
 379 345 331 433 252 433 c 256
 206 433 130 404 130 250 c 256
  PathStart: -2
EndSplineSet
Validated: 33
PickledDataWithLists: "(dp0
Vcom.schriftgestaltung.Glyphs.lastChange\\u000d
p1
V2015-12-22 12:26:38 +0000\\u000d
p2
s."
EndChar

StartChar: ampersand
Encoding: 38 38 146
GlifName: ampersand
Width: 575
VWidth: 0
Flags: HMW
LayerCount: 2
Fore
SplineSet
503 0 m 258
 471 0 l 258
 456 0 448 7 443 21 c 256
 437 41 428 62 415 85 c 257
 362 21 296 -7 233 -7 c 256
 121 -7 52 68 52 180 c 256
 52 249 85 323 165 380 c 257
 109 437 83 492 83 541 c 256
 83 630 154 697 248 697 c 256
 344 697 416 627 416 534 c 256
 416 492 399 449 365 415 c 256
 355 405 343 405 331 417 c 258
 311 437 l 258
 299 449 299 461 309 471 c 256
 326 488 335 510 335 532 c 256
 335 581 297 618 247 618 c 256
 202 618 168 585 168 542 c 256
 168 511 186 473 231 428 c 256
 295 364 357 298 405 237 c 257
 410 252 414 267 418 284 c 256
 422 299 432 306 448 303 c 258
 481 297 l 258
 497 294 504 283 500 267 c 256
 490 226 477 190 462 159 c 257
 492 112 513 69 525 27 c 256
 529 10 520 0 503 0 c 258
136 180 m 256
 136 108 172 69 233 69 c 256
 276 69 326 94 367 157 c 257
 330 205 282 260 220 324 c 257
 162 284 136 229 136 180 c 256
  PathStart: -2
EndSplineSet
Validated: 33
EndChar

StartChar: asciicircum
Encoding: 94 94 150
GlifName: asciicircum
Width: 575
VWidth: 0
Flags: HMW
LayerCount: 2
Fore
SplineSet
29 499 m 258
 218 682 l 258
 239 702 258 719 288 719 c 259
 318 719 337 701 357 682 c 258
 546 499 l 258
 558 487 558 474 545 463 c 258
 523 443 l 258
 511 432 499 432 487 444 c 258
 303 633 l 258
 298 639 295 642 288 642 c 259
 281 642 275 636 272 633 c 258
 88 444 l 258
 77 432 65 432 53 443 c 258
 30 463 l 258
 18 474 17 487 29 499 c 258
EndSplineSet
PickledDataWithLists: "(dp0
Vcom.schriftgestaltung.Glyphs.lastChange\\u000d
p1
V2015-12-22 14:26:04 +0000\\u000d
p2
s."
EndChar

StartChar: asciitilde
Encoding: 126 126 151
GlifName: asciitilde
Width: 575
VWidth: 0
Flags: HMW
LayerCount: 2
Fore
SplineSet
486 368 m 258
 515 368 l 258
 530 368 538 359 538 342 c 259
 538 250 493 200 412 200 c 259
 368 200 315 229 261 283 c 256
 221 323 187 344 164 344 c 259
 133 344 116 320 116 275 c 259
 116 261 107 253 89 253 c 258
 61 253 l 258
 46 253 37 262 37 279 c 259
 37 370 82 421 164 421 c 259
 207 421 261 391 315 337 c 256
 354 298 388 276 412 276 c 259
 442 276 459 301 459 346 c 259
 459 360 469 368 486 368 c 258
EndSplineSet
EndChar

StartChar: asterisk
Encoding: 42 42 152
GlifName: asterisk
Width: 575
VWidth: 0
Flags: HMW
LayerCount: 2
Fore
SplineSet
519 395 m 258
 530 361 l 258
 535 346 530 335 514 330 c 258
 373 284 l 257
 473 144 l 258
 482 131 481 118 468 109 c 258
 439 89 l 258
 426 80 414 81 404 94 c 258
 287 256 l 257
 171 94 l 258
 161 81 148 79 135 88 c 258
 106 109 l 258
 93 118 92 131 101 144 c 258
 203 284 l 257
 61 330 l 258
 45 335 40 346 45 361 c 258
 56 395 l 258
 61 410 72 416 88 411 c 258
 245 359 l 257
 245 525 l 258
 245 541 254 550 270 550 c 258
 305 550 l 258
 321 550 330 541 330 525 c 258
 330 359 l 257
 487 411 l 258
 503 416 514 410 519 395 c 258
EndSplineSet
EndChar

StartChar: at
Encoding: 64 64 153
GlifName: at
Width: 575
VWidth: 0
Flags: HMW
LayerCount: 2
Fore
SplineSet
51 88 m 258
 51 464 l 258
 51 627 131 710 288 710 c 259
 444 710 524 627 524 464 c 258
 524 112 l 258
 524 96 515 87 499 87 c 258
 439 87 l 258
 325 87 278 152 278 276 c 259
 278 400 325 465 439 465 c 257
 439 577 388 634 288 634 c 259
 187 634 136 577 136 464 c 258
 136 88 l 258
 136 -25 187 -82 288 -82 c 259
 321 -82 348 -76 381 -64 c 256
 396 -58 407 -63 413 -78 c 258
 424 -105 l 258
 431 -120 426 -132 411 -137 c 256
 372 -151 334 -158 288 -158 c 259
 131 -158 51 -75 51 88 c 258
EndSplineSet
EndChar

StartChar: b
Encoding: 98 98 155
GlifName: b
Width: 575
VWidth: 0
Flags: HMW
AnchorPoint: "mark-bottom" 288 0 basechar 0
LayerCount: 2
Fore
SplineSet
98 19 m 257
 90 23 85 31 85 40 c 258
 85 725 l 258
 85 741 94 750 110 750 c 258
 145 750 l 258
 161 750 170 741 170 725 c 258
 170 502 l 257
 195 507 221 510 247 510 c 259
 373 510 490 440 490 250 c 259
 490 60 373 -10 247 -10 c 259
 196 -10 145 0 98 19 c 257
237 436 m 259
 215 436 192 433 170 429 c 257
 170 77 l 257
 196 71 220 68 247 68 c 259
 336 68 404 114 404 250 c 259
 404 395 325 436 237 436 c 259
EndSplineSet
EndChar

StartChar: b.hex
Encoding: 65545 -1 156
GlifName: b.hex
Width: 575
VWidth: 0
Flags: HMW
LayerCount: 2
Fore
SplineSet
114 875 m 258
 114 829 l 258
 114 812 105 804 89 804 c 258
 54 804 l 258
 37 804 29 813 29 829 c 258
 29 875 l 258
 29 891 38 900 54 900 c 258
 89 900 l 258
 105 900 114 891 114 875 c 258
402 875 m 258
 402 829 l 258
 402 812 393 804 377 804 c 258
 342 804 l 258
 325 804 317 813 317 829 c 258
 317 875 l 258
 317 891 326 900 342 900 c 258
 377 900 l 258
 393 900 402 891 402 875 c 258
546 875 m 258
 546 829 l 258
 546 812 537 804 521 804 c 258
 486 804 l 258
 469 804 461 813 461 829 c 258
 461 875 l 258
 461 891 470 900 486 900 c 258
 521 900 l 258
 537 900 546 891 546 875 c 258
98 19 m 257
 90 23 85 31 85 40 c 258
 85 725 l 258
 85 741 94 750 110 750 c 258
 145 750 l 258
 161 750 170 741 170 725 c 258
 170 502 l 257
 195 507 221 510 247 510 c 256
 373 510 490 440 490 250 c 256
 490 60 373 -10 247 -10 c 256
 196 -10 145 0 98 19 c 257
  PathStart: -2
237 436 m 256
 215 436 192 433 170 429 c 257
 170 77 l 257
 196 71 220 68 247 68 c 256
 336 68 404 114 404 250 c 256
 404 395 325 436 237 436 c 256
  PathStart: -2
EndSplineSet
Validated: 1
PickledDataWithLists: "(dp0
Vcom.schriftgestaltung.Glyphs.lastChange\\u000d
p1
V2016-06-09 18:35:34 +0000\\u000d
p2
s."
EndChar

StartChar: backslash
Encoding: 92 92 157
GlifName: backslash
Width: 575
VWidth: 0
Flags: HMW
LayerCount: 2
Fore
SplineSet
71 662 m 258
 64 676 69 688 83 695 c 258
 110 708 l 258
 124 715 136 711 143 697 c 258
 495 -25 l 258
 502 -39 497 -51 483 -58 c 258
 456 -71 l 258
 442 -78 430 -74 423 -60 c 258
 71 662 l 258
EndSplineSet
PickledDataWithLists: "(dp0
Vcom.schriftgestaltung.Glyphs.lastChange\\u000d
p1
V2015-12-22 16:32:37 +0000\\u000d
p2
s."
EndChar

StartChar: bar
Encoding: 124 124 158
GlifName: bar
Width: 575
VWidth: 0
Flags: HMW
LayerCount: 2
Fore
SplineSet
270 700 m 258
 305 700 l 258
 321 700 330 691 330 675 c 258
 330 -38 l 258
 330 -54 321 -63 305 -63 c 258
 270 -63 l 258
 254 -63 245 -54 245 -38 c 258
 245 675 l 258
 245 691 254 700 270 700 c 258
EndSplineSet
PickledDataWithLists: "(dp0
Vcom.schriftgestaltung.Glyphs.lastChange\\u000d
p1
V2015-12-22 16:32:56 +0000\\u000d
p2
s."
EndChar

StartChar: beta
Encoding: 946 946 159
GlifName: beta
Width: 575
VWidth: 0
Flags: HMW
LayerCount: 2
Fore
SplineSet
102 494 m 258
 102 631 170 700 294 700 c 256
 410 700 473 644 473 541 c 256
 473 498 449 459 428 427 c 256
 414 404 402 385 402 370 c 256
 402 348 421 332 443 314 c 256
 475 288 514 256 513 192 c 256
 512 68 378 -72 187 16 c 257
 187 -175 l 258
 187 -191 179 -200 162 -200 c 258
 127 -200 l 258
 111 -200 102 -191 102 -175 c 258
 102 494 l 258
  PathStart: -2
187 86 m 257
 187 86 l 257
393 533 m 256
 393 592 358 624 294 624 c 256
 225 624 187 581 187 494 c 258
 187 86 l 257
 369 4 432 118 432 197 c 256
 432 238 403 258 375 279 c 257
 346 299 317 320 317 363 c 256
 317 402 341 437 362 468 c 256
 378 492 393 513 393 533 c 256
  PathStart: -2
EndSplineSet
Validated: 33
PickledDataWithLists: "(dp0
Vcom.schriftgestaltung.Glyphs.lastChange\\u000d
p1
V2015-12-22 12:27:37 +0000\\u000d
p2
s."
EndChar

StartChar: block
Encoding: 9608 9608 160
GlifName: block
Width: 575
VWidth: 0
Flags: HMW
LayerCount: 2
Fore
SplineSet
0 -250 m 257
 0 900 l 257
 575 900 l 257
 575 -250 l 257
 0 -250 l 257
EndSplineSet
Validated: 1
PickledDataWithLists: "(dp0
Vcom.schriftgestaltung.Glyphs.lastChange\\u000d
p1
V2016-06-10 08:26:49 +0000\\u000d
p2
s."
EndChar

StartChar: braceleft
Encoding: 123 123 161
GlifName: braceleft
Width: 575
VWidth: 0
Flags: HMW
LayerCount: 2
Fore
SplineSet
330 585 m 258
 330 409 l 258
 330 355 322 314 264 286 c 257
 323 259 330 214 330 164 c 258
 330 -13 l 258
 330 -76 351 -102 410 -102 c 258
 491 -102 l 258
 507 -102 516 -111 516 -127 c 258
 516 -153 l 258
 516 -169 507 -178 491 -178 c 258
 410 -178 l 258
 292 -178 245 -131 245 -13 c 258
 245 164 l 258
 245 223 224 248 165 248 c 258
 85 248 l 258
 69 248 60 257 60 273 c 258
 60 299 l 258
 60 315 69 324 85 324 c 258
 165 324 l 258
 224 324 245 350 245 409 c 258
 245 585 l 258
 245 704 294 750 410 750 c 258
 491 750 l 258
 507 750 516 741 516 725 c 258
 516 699 l 258
 516 683 507 674 491 674 c 258
 410 674 l 258
 350 674 330 646 330 585 c 258
EndSplineSet
EndChar

StartChar: bracketleft
Encoding: 91 91 163
GlifName: bracketleft
Width: 575
VWidth: 0
Flags: HMW
LayerCount: 2
Fore
SplineSet
235 -102 m 257
 470 -102 l 258
 486 -102 495 -111 495 -127 c 258
 495 -153 l 258
 495 -169 486 -178 470 -178 c 258
 175 -178 l 258
 159 -178 150 -169 150 -153 c 258
 150 725 l 258
 150 741 159 750 175 750 c 258
 470 750 l 258
 486 750 495 741 495 725 c 258
 495 699 l 258
 495 683 486 674 470 674 c 258
 235 674 l 257
 235 -102 l 257
EndSplineSet
PickledDataWithLists: "(dp0
Vcom.schriftgestaltung.Glyphs.lastChange\\u000d
p1
V2015-12-22 13:51:23 +0000\\u000d
p2
s."
EndChar

StartChar: breve
Encoding: 728 728 165
GlifName: breve
Width: 575
VWidth: 0
GlyphClass: 2
Flags: HMW
AnchorPoint: "top" 288 500 mark 0
LayerCount: 2
Fore
SplineSet
423 696 m 258
 451 691 l 258
 467 688 475 678 470 662 c 256
 448 583 384 539 288 538 c 256
 192 539 127 583 105 662 c 256
 101 678 109 688 125 691 c 258
 153 696 l 258
 168 699 177 692 182 676 c 256
 197 626 234 598 288 598 c 256
 341 598 378 626 394 676 c 256
 398 692 407 699 423 696 c 258
EndSplineSet
Validated: 33
PickledDataWithLists: "(dp0
Vcom.schriftgestaltung.Glyphs.lastChange\\u000d
p1
V2015-12-22 16:32:39 +0000\\u000d
p2
s."
EndChar

StartChar: brokenbar
Encoding: 166 166 166
GlifName: brokenbar
Width: 575
VWidth: 0
Flags: HMW
LayerCount: 2
Fore
SplineSet
270 193 m 258
 305 193 l 258
 321 193 330 184 330 168 c 258
 330 -153 l 258
 330 -169 321 -178 305 -178 c 258
 270 -178 l 258
 254 -178 245 -169 245 -153 c 258
 245 168 l 258
 245 184 254 193 270 193 c 258
270 750 m 258
 305 750 l 258
 321 750 330 741 330 725 c 258
 330 404 l 258
 330 388 321 379 305 379 c 258
 270 379 l 258
 254 379 245 388 245 404 c 258
 245 725 l 258
 245 741 254 750 270 750 c 258
EndSplineSet
PickledDataWithLists: "(dp0
Vcom.schriftgestaltung.Glyphs.lastChange\\u000d
p1
V2015-12-22 14:22:08 +0000\\u000d
p2
s."
EndChar

StartChar: bullet
Encoding: 8226 8226 167
GlifName: bullet
Width: 575
VWidth: 0
Flags: HMW
LayerCount: 2
Fore
SplineSet
460 325 m 256
 460 227 384 150 288 150 c 256
 191 150 115 227 115 325 c 256
 115 423 191 500 288 500 c 256
 384 500 460 423 460 325 c 256
  PathStart: -2
EndSplineSet
Validated: 1
PickledDataWithLists: "(dp0
Vcom.schriftgestaltung.Glyphs.lastChange\\u000d
p1
V2015-12-22 16:32:38 +0000\\u000d
p2
s."
EndChar

StartChar: c
Encoding: 99 99 168
GlifName: c
Width: 575
VWidth: 0
Flags: HMW
AnchorPoint: "mark-bottom" 288 -0 basechar 0
AnchorPoint: "mark-top" 288 500 basechar 0
LayerCount: 2
Fore
SplineSet
491 447 m 258
 481 423 l 258
 475 408 464 403 449 409 c 256
 405 425 369 432 328 432 c 259
 239 432 171 386 171 250 c 259
 171 114 239 68 328 68 c 259
 369 68 404 73 449 91 c 272
 464 97 475 92 481 77 c 258
 491 53 l 258
 497 38 493 26 478 20 c 256
 431 0 379 -10 328 -10 c 259
 202 -10 85 60 85 250 c 259
 85 440 202 510 328 510 c 259
 379 510 431 500 478 480 c 256
 493 474 497 462 491 447 c 258
EndSplineSet
EndChar

StartChar: c.hex
Encoding: 65548 -1 169
GlifName: c.hex
Width: 575
VWidth: 0
Flags: HMW
AnchorPoint: "top" 288 550 basechar 0
AnchorPoint: "bottom" 288 0 basechar 0
LayerCount: 2
Fore
SplineSet
114 875 m 258
 114 829 l 258
 114 812 105 804 89 804 c 258
 54 804 l 258
 37 804 29 813 29 829 c 258
 29 875 l 258
 29 891 38 900 54 900 c 258
 89 900 l 258
 105 900 114 891 114 875 c 258
258 875 m 258
 258 829 l 258
 258 812 249 804 233 804 c 258
 198 804 l 258
 181 804 173 813 173 829 c 258
 173 875 l 258
 173 891 182 900 198 900 c 258
 233 900 l 258
 249 900 258 891 258 875 c 258
491 447 m 258
 481 423 l 258
 475 408 464 403 449 409 c 256
 405 425 369 432 328 432 c 256
 239 432 171 386 171 250 c 256
 171 114 239 68 328 68 c 256
 369 68 404 75 449 91 c 257
 464 97 475 92 481 77 c 258
 491 53 l 258
 497 38 493 26 478 20 c 256
 431 0 379 -10 328 -10 c 256
 202 -10 85 60 85 250 c 256
 85 440 202 510 328 510 c 256
 379 510 431 500 478 480 c 256
 493 474 497 462 491 447 c 258
EndSplineSet
Validated: 33
PickledDataWithLists: "(dp0
Vcom.schriftgestaltung.Glyphs.lastChange\\u000d
p1
V2016-06-09 18:35:34 +0000\\u000d
p2
s."
EndChar

StartChar: caron
Encoding: 711 711 171
GlifName: caron
Width: 575
VWidth: 0
GlyphClass: 2
Flags: HMW
AnchorPoint: "top" 288 500 mark 0
LayerCount: 2
Fore
SplineSet
113 665 m 258
 130 688 l 258
 140 701 152 703 165 694 c 258
 267 623 l 258
 275 617 278 614 288 614 c 256
 298 614 301 618 309 623 c 258
 411 694 l 258
 424 703 436 701 445 688 c 258
 462 665 l 258
 472 652 470 639 456 630 c 258
 352 565 l 258
 332 552 311 542 288 542 c 256
 265 542 245 551 224 564 c 258
 120 630 l 258
 106 639 103 652 113 665 c 258
EndSplineSet
Validated: 33
PickledDataWithLists: "(dp0
Vcom.schriftgestaltung.Glyphs.lastChange\\u000d
p1
V2016-05-18 20:16:32 +0000\\u000d
p2
s."
EndChar

StartChar: cedilla
Encoding: 184 184 175
GlifName: cedilla
Width: 575
VWidth: 0
GlyphClass: 2
Flags: HMW
LayerCount: 2
Fore
SplineSet
313 -17 m 258
 290 -68 l 257
 313 -63 333 -61 351 -61 c 256
 426 -61 463 -96 463 -135 c 256
 463 -187 400 -246 275 -246 c 256
 250 -246 225 -242 197 -235 c 256
 181 -230 175 -218 181 -203 c 258
 185 -192 l 258
 190 -177 201 -172 216 -175 c 256
 237 -179 259 -181 275 -181 c 256
 336 -181 366 -160 366 -142 c 256
 366 -129 351 -119 321 -119 c 256
 313 -119 304 -120 294 -121 c 256
 281 -123 271 -121 261 -111 c 258
 233 -82 l 258
 223 -72 221 -61 227 -48 c 258
 247 -5 l 258
 253 8 262 14 277 13 c 258
 295 13 l 258
 314 12 321 1 313 -17 c 258
EndSplineSet
PickledDataWithLists: "(dp0
Vcom.schriftgestaltung.Glyphs.lastChange\\u000d
p1
V2015-12-22 16:32:40 +0000\\u000d
p2
s."
EndChar

StartChar: cent
Encoding: 162 162 176
GlifName: cent
Width: 575
VWidth: 0
Flags: HMW
LayerCount: 2
Fore
SplineSet
258 44 m 257
 343 31 l 257
 343 -153 l 258
 343 -169 334 -178 318 -178 c 258
 283 -178 l 258
 267 -178 258 -169 258 -153 c 258
 258 44 l 257
343 480 m 257
 258 467 l 257
 258 653 l 258
 258 669 267 678 283 678 c 258
 318 678 l 258
 334 678 343 669 343 653 c 258
 343 480 l 257
EndSplineSet
Refer: 168 99 N 1 0 0 1 0 0 2
PickledDataWithLists: "(dp0
Vcom.schriftgestaltung.Glyphs.lastChange\\u000d
p1
V2015-12-22 14:01:47 +0000\\u000d
p2
s."
EndChar

StartChar: chi
Encoding: 967 967 177
GlifName: chi
Width: 575
VWidth: 0
Flags: HMW
LayerCount: 2
Fore
SplineSet
380 110 m 258
 426 -8 460 -42 494 -42 c 256
 499 -42 504 -42 510 -41 c 256
 526 -39 536 -47 538 -63 c 258
 541 -87 l 258
 543 -104 536 -113 520 -115 c 256
 511 -115 503 -116 494 -116 c 256
 431 -116 367 -87 301 83 c 258
 290 112 l 257
 137 -121 l 258
 128 -134 115 -137 102 -128 c 258
 83 -116 l 258
 70 -107 67 -94 76 -81 c 258
 256 198 l 257
 226 276 l 258
 180 394 146 428 112 428 c 256
 107 428 102 428 96 427 c 256
 79 426 70 434 68 449 c 258
 65 473 l 258
 63 490 70 499 86 501 c 256
 95 501 103 502 112 502 c 256
 175 502 239 473 305 303 c 258
 312 285 l 257
 440 484 l 258
 447 495 457 500 470 500 c 258
 509 500 l 258
 529 500 536 487 525 470 c 258
 346 197 l 257
 380 110 l 258
  PathStart: -2
EndSplineSet
Validated: 33
PickledDataWithLists: "(dp0
Vcom.schriftgestaltung.Glyphs.lastChange\\u000d
p1
V2015-12-22 12:54:05 +0000\\u000d
p2
s."
EndChar

StartChar: circumflex
Encoding: 710 710 178
GlifName: circumflex
Width: 575
VWidth: 0
GlyphClass: 2
Flags: HMW
AnchorPoint: "top" 288 500 mark 0
LayerCount: 2
Fore
SplineSet
129 552 m 257
 113 576 l 258
 103 590 106 602 120 611 c 258
 224 677 l 258
 245 691 265 700 288 700 c 256
 311 700 332 689 352 677 c 258
 456 611 l 258
 470 602 472 590 462 576 c 258
 445 553 l 258
 436 540 424 538 411 547 c 258
 309 619 l 258
 301 624 298 628 288 628 c 256
 278 628 275 624 267 619 c 258
 165 547 l 258
 152 538 140 540 129 552 c 257
EndSplineSet
Validated: 33
PickledDataWithLists: "(dp0
Vcom.schriftgestaltung.Glyphs.lastChange\\u000d
p1
V2015-12-22 16:32:40 +0000\\u000d
p2
s."
EndChar

StartChar: colon
Encoding: 58 58 179
GlifName: colon
Width: 575
VWidth: 0
Flags: HMW
LayerCount: 2
Fore
SplineSet
237 550 m 258
 337 550 l 258
 353 550 362 541 362 525 c 258
 362 435 l 258
 362 419 353 410 337 410 c 258
 237 410 l 258
 221 410 212 419 212 435 c 258
 212 525 l 258
 212 541 221 550 237 550 c 258
237 140 m 258
 337 140 l 258
 353 140 362 131 362 115 c 258
 362 25 l 258
 362 9 353 0 337 0 c 258
 237 0 l 258
 221 0 212 9 212 25 c 258
 212 115 l 258
 212 131 221 140 237 140 c 258
EndSplineSet
PickledDataWithLists: "(dp0
Vcom.schriftgestaltung.Glyphs.lastChange\\u000d
p1
V2015-12-22 20:53:35 +0000\\u000d
p2
s."
EndChar

StartChar: comma
Encoding: 44 44 180
GlifName: comma
Width: 575
VWidth: 0
Flags: HMW
LayerCount: 2
Fore
SplineSet
362 -2 m 273
 362 -181 296 -247 117 -247 c 259
 101 -247 92 -238 92 -222 c 258
 92 -196 l 258
 92 -180 101 -171 117 -171 c 259
 235 -171 278 -124 277 0 c 265
 237 0 l 258
 221 0 212 9 212 25 c 258
 212 115 l 258
 212 131 221 140 237 140 c 258
 337 140 l 258
 353 140 362 131 362 115 c 258
 362 -2 l 273
EndSplineSet
PickledDataWithLists: "(dp0
Vcom.schriftgestaltung.Glyphs.lastChange\\u000d
p1
V2015-12-22 20:53:49 +0000\\u000d
p2
s."
EndChar

StartChar: copyright
Encoding: 169 169 181
GlifName: copyright
Width: 575
VWidth: 0
Flags: HMW
LayerCount: 2
Fore
SplineSet
376 468 m 258
 366 459 l 258
 355 448 345 450 331 458 c 256
 319 465 304 469 289 469 c 258
 288 469 l 258
 265 469 241 458 225 440 c 256
 210 423 201 399 201 375 c 256
 201 352 210 328 225 310 c 256
 241 293 265 282 288 281 c 258
 289 281 l 258
 304 281 319 286 331 293 c 256
 345 301 355 302 366 291 c 258
 376 282 l 258
 388 271 389 257 375 247 c 256
 351 229 320 219 290 219 c 258
 287 219 l 258
 247 220 208 237 181 267 c 256
 154 296 138 335 138 375 c 256
 138 415 154 455 181 484 c 256
 208 513 247 531 287 531 c 257
 290 532 l 257
 320 532 351 521 375 503 c 256
 389 493 388 479 376 468 c 258
102 190 m 256
 54 238 26 307 26 375 c 256
 26 444 54 512 102 561 c 256
 151 609 219 637 288 637 c 256
 356 637 425 609 473 561 c 256
 522 512 550 444 550 375 c 256
 550 307 522 238 473 190 c 256
 425 141 356 113 288 113 c 256
 219 113 151 141 102 190 c 256
  PathStart: -2
429 234 m 256
 466 271 487 323 487 375 c 256
 487 427 466 479 429 516 c 256
 392 553 340 575 288 575 c 256
 236 575 184 553 147 516 c 256
 110 479 88 427 88 375 c 256
 88 323 110 271 147 234 c 256
 184 197 236 176 288 176 c 256
 340 176 392 197 429 234 c 256
  PathStart: -2
EndSplineSet
Validated: 33
PickledDataWithLists: "(dp0
Vcom.schriftgestaltung.Glyphs.lastChange\\u000d
p1
V2015-12-22 14:24:21 +0000\\u000d
p2
s."
EndChar

StartChar: currency
Encoding: 164 164 182
GlifName: currency
Width: 575
VWidth: 0
Flags: HMW
LayerCount: 2
Fore
SplineSet
536 442 m 258
 454 360 l 257
 475 327 487 289 487 250 c 256
 487 212 475 173 454 141 c 257
 536 59 l 258
 548 47 548 35 535 24 c 258
 512 3 l 258
 500 -8 488 -8 477 4 c 258
 397 84 l 257
 365 63 326 51 288 51 c 256
 249 51 211 63 178 84 c 257
 99 4 l 258
 87 -8 75 -8 63 3 c 258
 40 24 l 258
 28 35 28 47 39 59 c 258
 121 141 l 257
 100 173 89 212 89 250 c 256
 89 289 100 327 121 360 c 257
 39 442 l 258
 28 453 28 466 40 477 c 258
 63 497 l 258
 75 508 87 508 99 497 c 258
 178 417 l 257
 211 438 249 449 288 449 c 256
 326 449 365 438 397 417 c 257
 477 497 l 258
 488 508 500 508 512 498 c 258
 535 477 l 258
 548 466 548 453 536 442 c 258
165 250 m 256
 165 182 220 128 288 128 c 256
 356 128 410 182 410 250 c 256
 410 318 356 373 288 373 c 256
 220 373 165 318 165 250 c 256
  PathStart: -2
EndSplineSet
Validated: 33
PickledDataWithLists: "(dp0
Vcom.schriftgestaltung.Glyphs.lastChange\\u000d
p1
V2015-12-22 14:02:18 +0000\\u000d
p2
s."
EndChar

StartChar: d
Encoding: 100 100 183
GlifName: d
Width: 575
VWidth: 0
Flags: HMW
AnchorPoint: "mark-topright" 490 700 basechar 0
AnchorPoint: "mark-bottom" 288 0 basechar 0
LayerCount: 2
Back
SplineSet
490 725 m 258
 490 40 l 258
 490 31 485 23 477 19 c 257
 430 0 379 -10 328 -10 c 256
 202 -10 85 60 85 250 c 256
 85 440 202 510 328 510 c 256
 354 510 380 507 405 502 c 257
 405 725 l 258
 405 741 414 750 430 750 c 258
 465 750 l 258
 481 750 490 741 490 725 c 258
405 77 m 257
 405 429 l 257
 383 433 360 436 338 436 c 256
 250 436 171 395 171 250 c 256
 171 114 239 68 328 68 c 256
 355 68 379 71 405 77 c 257
EndSplineSet
Fore
Refer: 155 98 N -1 0 0 1 575 0 2
EndChar

StartChar: d.hex
Encoding: 65549 -1 184
GlifName: d.hex
Width: 575
VWidth: 0
Flags: HMW
AnchorPoint: "center" 288 250 basechar 0
AnchorPoint: "top" 409 520 basechar 0
AnchorPoint: "topright" 565 500 basechar 0
LayerCount: 2
Fore
SplineSet
114 875 m 258
 114 829 l 258
 114 812 105 804 89 804 c 258
 54 804 l 258
 37 804 29 813 29 829 c 258
 29 875 l 258
 29 891 38 900 54 900 c 258
 89 900 l 258
 105 900 114 891 114 875 c 258
258 875 m 258
 258 829 l 258
 258 812 249 804 233 804 c 258
 198 804 l 258
 181 804 173 813 173 829 c 258
 173 875 l 258
 173 891 182 900 198 900 c 258
 233 900 l 258
 249 900 258 891 258 875 c 258
546 875 m 258
 546 829 l 258
 546 812 537 804 521 804 c 258
 486 804 l 258
 469 804 461 813 461 829 c 258
 461 875 l 258
 461 891 470 900 486 900 c 258
 521 900 l 258
 537 900 546 891 546 875 c 258
490 725 m 258
 490 40 l 258
 490 31 485 23 477 19 c 257
 430 0 379 -10 328 -10 c 256
 202 -10 85 60 85 250 c 256
 85 440 202 510 328 510 c 256
 354 510 380 507 405 502 c 257
 405 725 l 258
 405 741 414 750 430 750 c 258
 465 750 l 258
 481 750 490 741 490 725 c 258
405 77 m 257
 405 429 l 257
 383 433 360 436 338 436 c 256
 250 436 171 395 171 250 c 256
 171 114 239 68 328 68 c 256
 355 68 379 71 405 77 c 257
EndSplineSet
Validated: 1
PickledDataWithLists: "(dp0
Vcom.schriftgestaltung.Glyphs.lastChange\\u000d
p1
V2016-06-09 18:35:34 +0000\\u000d
p2
s."
EndChar

StartChar: dagger
Encoding: 8224 8224 185
GlifName: dagger
Width: 575
VWidth: 0
Flags: HMW
LayerCount: 2
Fore
SplineSet
524 564 m 258
 524 537 l 258
 524 521 516 512 499 512 c 258
 330 512 l 257
 330 -124 l 258
 330 -140 322 -149 305 -149 c 258
 270 -149 l 258
 254 -149 245 -140 245 -124 c 258
 245 512 l 257
 76 512 l 258
 60 512 51 521 51 537 c 258
 51 563 l 258
 51 580 60 589 76 589 c 258
 245 589 l 257
 245 774 l 258
 245 790 254 799 270 799 c 258
 305 799 l 258
 322 799 330 791 330 774 c 258
 330 589 l 257
 499 589 l 258
 516 589 524 580 524 564 c 258
EndSplineSet
Validated: 1
PickledDataWithLists: "(dp0
Vcom.schriftgestaltung.Glyphs.lastChange\\u000d
p1
V2015-12-22 14:26:24 +0000\\u000d
p2
s."
EndChar

StartChar: daggerdbl
Encoding: 8225 8225 186
GlifName: daggerdbl
Width: 575
VWidth: 0
Flags: HMW
LayerCount: 2
Fore
SplineSet
499 512 m 258
 330 512 l 257
 330 138 l 257
 499 138 l 258
 516 138 524 130 524 113 c 258
 524 87 l 258
 524 71 516 62 499 62 c 258
 330 62 l 257
 330 -124 l 258
 330 -141 322 -149 305 -149 c 258
 270 -149 l 258
 254 -149 245 -140 245 -124 c 258
 245 62 l 257
 76 62 l 258
 60 62 51 71 51 87 c 258
 51 113 l 258
 51 130 60 138 76 138 c 258
 245 138 l 257
 245 512 l 257
 76 512 l 258
 60 512 51 521 51 537 c 258
 51 563 l 258
 51 580 60 589 76 589 c 258
 245 589 l 257
 245 774 l 258
 245 790 254 799 270 799 c 258
 305 799 l 258
 322 799 330 791 330 774 c 258
 330 589 l 257
 499 589 l 258
 516 589 524 580 524 564 c 258
 524 537 l 258
 524 521 516 512 499 512 c 258
EndSplineSet
Validated: 1
PickledDataWithLists: "(dp0
Vcom.schriftgestaltung.Glyphs.lastChange\\u000d
p1
V2015-12-22 14:32:11 +0000\\u000d
p2
s."
EndChar

StartChar: degree
Encoding: 176 176 189
GlifName: degree
Width: 575
VWidth: 0
Flags: HMW
LayerCount: 2
Fore
SplineSet
105 528 m 256
 105 632 185 710 291 710 c 256
 393 710 470 632 470 528 c 256
 470 424 393 346 291 346 c 256
 185 346 105 424 105 528 c 256
  PathStart: -2
190 528 m 256
 190 468 232 423 288 423 c 256
 343 423 385 468 385 528 c 256
 385 588 343 633 288 633 c 256
 232 633 190 588 190 528 c 256
  PathStart: -2
EndSplineSet
Validated: 1
PickledDataWithLists: "(dp0
Vcom.schriftgestaltung.Glyphs.lastChange\\u000d
p1
V2016-05-30 08:37:06 +0000\\u000d
p2
s."
EndChar

StartChar: delta
Encoding: 948 948 190
GlifName: delta
Width: 575
VWidth: 0
Flags: HMW
LayerCount: 2
Fore
SplineSet
150 238 m 256
 150 130 202 62 285 62 c 256
 378 62 425 123 425 243 c 256
 425 289 414 336 392 382 c 257
 356 389 321 393 285 393 c 256
 202 393 150 333 150 238 c 256
  PathStart: -2
477 623 m 258
 264 623 l 257
 425 515 510 365 510 241 c 256
 510 72 434 -15 285 -15 c 256
 149 -15 65 82 65 238 c 256
 65 382 149 471 285 471 c 256
 305 471 322 470 338 467 c 257
 294 522 235 573 160 614 c 256
 148 620 142 629 142 643 c 258
 142 675 l 258
 142 691 151 700 167 700 c 258
 477 700 l 258
 493 700 502 691 502 675 c 258
 502 648 l 258
 502 632 493 623 477 623 c 258
EndSplineSet
Validated: 1
PickledDataWithLists: "(dp0
Vcom.schriftgestaltung.Glyphs.lastChange\\u000d
p1
V2016-05-30 08:32:37 +0000\\u000d
p2
s."
EndChar

StartChar: dieresis
Encoding: 168 168 191
GlifName: dieresis
Width: 575
VWidth: 0
GlyphClass: 2
Flags: HMW
LayerCount: 2
Fore
SplineSet
227 675 m 258
 227 629 l 258
 227 613 218 604 202 604 c 258
 167 604 l 258
 151 604 142 613 142 629 c 258
 142 675 l 258
 142 691 151 700 167 700 c 258
 202 700 l 258
 218 700 227 691 227 675 c 258
434 675 m 258
 434 629 l 258
 434 613 425 604 409 604 c 258
 374 604 l 258
 358 604 349 613 349 629 c 258
 349 675 l 258
 349 691 358 700 374 700 c 258
 409 700 l 258
 425 700 434 691 434 675 c 258
EndSplineSet
PickledDataWithLists: "(dp0
Vcom.schriftgestaltung.Glyphs.lastChange\\u000d
p1
V2015-12-22 16:32:41 +0000\\u000d
p2
s."
EndChar

StartChar: divide
Encoding: 247 247 192
GlifName: divide
Width: 575
VWidth: 0
Flags: HMW
LayerCount: 2
Fore
SplineSet
330 545 m 258
 330 499 l 258
 330 483 321 474 305 474 c 258
 270 474 l 258
 254 474 245 483 245 499 c 258
 245 545 l 258
 245 561 254 570 270 570 c 258
 305 570 l 258
 321 570 330 561 330 545 c 258
330 122 m 258
 330 75 l 258
 330 59 321 50 305 50 c 258
 270 50 l 258
 254 50 245 59 245 75 c 258
 245 122 l 258
 245 138 254 147 270 147 c 258
 305 147 l 258
 321 147 330 138 330 122 c 258
85 297 m 258
 85 323 l 258
 85 339 94 349 110 349 c 258
 465 349 l 258
 481 349 490 340 490 324 c 258
 490 297 l 258
 490 281 481 272 465 272 c 258
 110 272 l 258
 94 272 85 281 85 297 c 258
EndSplineSet
PickledDataWithLists: "(dp0
Vcom.schriftgestaltung.Glyphs.lastChange\\u000d
p1
V2015-12-22 14:06:58 +0000\\u000d
p2
s."
EndChar

StartChar: dkshade
Encoding: 9619 9619 193
GlifName: dkshade
Width: 575
VWidth: 0
Flags: HMW
LayerCount: 2
Fore
SplineSet
0 -250 m 257
 0 -194 l 257
 28 -250 l 257
 0 -250 l 257
71 -250 m 257
 0 -108 l 257
 0 -52 l 257
 99 -250 l 257
 71 -250 l 257
142 -250 m 257
 0 34 l 257
 0 90 l 257
 170 -250 l 257
 142 -250 l 257
213 -250 m 257
 0 176 l 257
 0 232 l 257
 241 -250 l 257
 213 -250 l 257
284 -250 m 257
 0 318 l 257
 0 374 l 257
 312 -250 l 257
 284 -250 l 257
355 -250 m 257
 0 460 l 257
 0 516 l 257
 383 -250 l 257
 355 -250 l 257
426 -250 m 257
 0 602 l 257
 0 658 l 257
 454 -250 l 257
 426 -250 l 257
497 -250 m 257
 0 744 l 257
 0 800 l 257
 525 -250 l 257
 497 -250 l 257
575 -250 m 257
 0 900 l 257
 28 900 l 257
 575 -194 l 257
 575 -250 l 257
575 -108 m 257
 71 900 l 257
 99 900 l 257
 575 -52 l 257
 575 -108 l 257
575 34 m 257
 142 900 l 257
 170 900 l 257
 575 90 l 257
 575 34 l 257
575 176 m 257
 213 900 l 257
 241 900 l 257
 575 232 l 257
 575 176 l 257
575 318 m 257
 284 900 l 257
 312 900 l 257
 575 374 l 257
 575 318 l 257
575 460 m 257
 355 900 l 257
 383 900 l 257
 575 516 l 257
 575 460 l 257
575 602 m 257
 426 900 l 257
 454 900 l 257
 575 658 l 257
 575 602 l 257
575 744 m 257
 497 900 l 257
 525 900 l 257
 575 800 l 257
 575 744 l 257
EndSplineSet
Validated: 1
PickledDataWithLists: "(dp0
Vcom.schriftgestaltung.Glyphs.lastChange\\u000d
p1
V2016-06-10 08:26:49 +0000\\u000d
p2
s."
EndChar

StartChar: dnblock
Encoding: 9604 9604 194
GlifName: dnblock
Width: 575
VWidth: 0
Flags: HMW
LayerCount: 2
Fore
SplineSet
0 -250 m 257
 0 325 l 257
 575 325 l 257
 575 -250 l 257
 0 -250 l 257
EndSplineSet
Validated: 1
PickledDataWithLists: "(dp0
Vcom.schriftgestaltung.Glyphs.lastChange\\u000d
p1
V2016-06-10 08:26:49 +0000\\u000d
p2
s."
EndChar

StartChar: dollar
Encoding: 36 36 195
GlifName: dollar
Width: 575
VWidth: 0
Flags: HMW
LayerCount: 2
Back
SplineSet
288 343 m 256
 437 326 518 270 518 166 c 256
 518 69 452 10 330 -6 c 257
 330 -175 l 258
 330 -191 321 -200 305 -200 c 258
 270 -200 l 258
 254 -200 245 -191 245 -175 c 258
 245 -10 l 257
 206 -9 140 -7 82 3 c 256
 66 6 59 17 62 33 c 257
 68 59 l 258
 72 75 82 81 98 79 c 257
 159 68 230 67 259 67 c 256
 371 67 432 104 432 172 c 256
 432 224 381 256 288 266 c 256
 141 282 60 323 60 438 c 256
 60 537 124 595 245 607 c 257
 245 775 l 258
 245 791 254 800 270 800 c 258
 305 800 l 258
 321 800 330 791 330 775 c 258
 330 609 l 257
 365 608 412 605 454 598 c 257
 470 594 477 583 473 567 c 258
 466 541 l 258
 462 526 452 520 436 523 c 256
 385 532 321 534 297 534 c 256
 198 534 145 502 145 439 c 256
 145 376 200 353 288 343 c 256
EndSplineSet
Fore
SplineSet
330 28 m 17
 330 -140 l 258
 330 -156 321 -165 305 -165 c 258
 270 -165 l 258
 254 -165 245 -156 245 -140 c 258
 245 28 l 257
 330 28 l 17
330 601 m 9
 245 601 l 257
 245 775 l 258
 245 791 254 800 270 800 c 258
 305 800 l 258
 321 800 330 791 330 775 c 258
 330 601 l 9
467 590 m 258
 458 563 l 258
 452 548 442 543 427 549 c 256
 392.331054688 562.868164062 354 572 316 572 c 259
 239 572 168 531 168 462 c 259
 168 316.758789062 514 393 514 195 c 259
 514 64 389 -10 250 -10 c 259
 202 -10 147 0 101 20 c 256
 86 26 82 38 88 53 c 258
 98 78 l 258
 104 93 115 98 130 92 c 256
 169 76 221 69 255 69 c 259
 348 69 428 113 428 190 c 259
 428 319.002976164 82 236.998046875 82 459 c 259
 82 584 196 648 316 648 c 259
 359 648 415 639 456 621 c 256
 471 614 473 605 467 590 c 258
EndSplineSet
EndChar

StartChar: dotaccent
Encoding: 729 729 196
GlifName: dotaccent
Width: 575
VWidth: 0
GlyphClass: 2
Flags: MW
AnchorPoint: "top" 285 500 mark 0
LayerCount: 2
Fore
SplineSet
327 675 m 258
 327 629 l 258
 327 612 319 604 302 604 c 258
 267 604 l 258
 251 604 242 613 242 629 c 258
 242 675 l 258
 242 691 251 700 267 700 c 258
 302 700 l 258
 319 700 327 691 327 675 c 258
EndSplineSet
Validated: 1
PickledDataWithLists: "(dp0
Vcom.schriftgestaltung.Glyphs.lastChange\\u000d
p1
V2015-12-22 16:32:41 +0000\\u000d
p2
s."
EndChar

StartChar: dotlessi
Encoding: 305 305 198
GlifName: dotlessi
Width: 575
VWidth: 0
Flags: HMW
AnchorPoint: "mark-bottom" 288 0 basechar 0
AnchorPoint: "mark-ogonek" 460 25 basechar 0
AnchorPoint: "top" 268 550 basechar 0
LayerCount: 2
Back
SplineSet
330 77 m 257
 465 77 l 258
 481 77 490 68 490 52 c 258
 490 25 l 258
 490 9 481 0 465 0 c 258
 110 0 l 258
 94 0 85 9 85 25 c 258
 85 52 l 258
 85 68 94 77 110 77 c 258
 245 77 l 257
 245 424 l 257
 143 424 l 258
 127 424 118 433 118 449 c 258
 118 475 l 258
 118 492 127 500 143 500 c 258
 305 500 l 258
 321 500 330 492 330 475 c 258
 330 77 l 257
EndSplineSet
Fore
SplineSet
486 57 m 258
 494 31 l 258
 499 15 494 4 477 0 c 256
 440 -9 409 -10 389 -10 c 259
 275 -10 225 40 225 150 c 258
 225 424 l 257
 113 424 l 258
 97 424 88 433 88 449 c 258
 88 475 l 258
 88 491 97 500 113 500 c 258
 285 500 l 258
 301 500 310 491 310 475 c 258
 310 150 l 258
 310 91 329 68 389 67 c 259
 405 67 429 68 454 74 c 256
 470 78 481 73 486 57 c 258
EndSplineSet
EndChar

StartChar: e
Encoding: 101 101 199
GlifName: e
Width: 575
VWidth: 0
Flags: HMW
AnchorPoint: "mark-top" 288 500 basechar 0
AnchorPoint: "mark-bottom" 288 0 basechar 0
AnchorPoint: "mark-ogonek" 464 25 basechar 0
LayerCount: 2
Fore
SplineSet
486 77 m 258
 496 53 l 258
 502 38 498 26 483 20 c 256
 436 0 379 -10 328 -10 c 259
 202 -10 75 60 75 250 c 259
 75 418 181 510 292 510 c 259
 393 510 500 431 500 285 c 258
 500 262 l 258
 500 246 491 237 475 237 c 258
 161 237 l 257
 165 111 252 68 332 68 c 259
 365 68 409 73 454 91 c 272
 469 97 480 92 486 77 c 258
415 314 m 257
 414 394 345 434 293 434 c 259
 240 434 175 392 168 314 c 257
 415 314 l 257
EndSplineSet
PickledDataWithLists: "(dp0
Vcom.schriftgestaltung.Glyphs.lastChange\\u000d
p1
V2016-06-09 18:35:33 +0000\\u000d
p2
s."
EndChar

StartChar: e.hex
Encoding: 65550 -1 200
GlifName: e.hex
Width: 575
VWidth: 0
Flags: HMW
AnchorPoint: "ogonek" 518 5 basechar 0
AnchorPoint: "bottom" 288 0 basechar 0
AnchorPoint: "top" 288 550 basechar 0
LayerCount: 2
Fore
SplineSet
114 875 m 258
 114 829 l 258
 114 812 105 804 89 804 c 258
 54 804 l 258
 37 804 29 813 29 829 c 258
 29 875 l 258
 29 891 38 900 54 900 c 258
 89 900 l 258
 105 900 114 891 114 875 c 258
258 875 m 258
 258 829 l 258
 258 812 249 804 233 804 c 258
 198 804 l 258
 181 804 173 813 173 829 c 258
 173 875 l 258
 173 891 182 900 198 900 c 258
 233 900 l 258
 249 900 258 891 258 875 c 258
402 875 m 258
 402 829 l 258
 402 812 393 804 377 804 c 258
 342 804 l 258
 325 804 317 813 317 829 c 258
 317 875 l 258
 317 891 326 900 342 900 c 258
 377 900 l 258
 393 900 402 891 402 875 c 258
481 77 m 258
 491 53 l 258
 497 38 493 26 478 20 c 256
 431 0 379 -10 328 -10 c 256
 202 -10 85 60 85 250 c 256
 85 418 181 510 292 510 c 256
 393 510 490 431 490 285 c 258
 490 262 l 258
 490 246 481 237 465 237 c 258
 171 237 l 257
 175 111 252 68 332 68 c 256
 365 68 404 75 449 91 c 257
 464 97 475 92 481 77 c 258
405 314 m 257
 404 394 345 434 293 434 c 256
 240 434 185 392 178 314 c 257
 405 314 l 257
  PathStart: -2
EndSplineSet
Validated: 33
PickledDataWithLists: "(dp0
Vcom.schriftgestaltung.Glyphs.lastChange\\u000d
p1
V2016-06-09 18:35:34 +0000\\u000d
p2
s."
EndChar

StartChar: eight
Encoding: 56 56 207
GlifName: eight
Width: 575
VWidth: 0
Flags: HMW
LayerCount: 2
Fore
SplineSet
496 548 m 259
 496 476 452 412 372 359 c 257
 449 317 519 265 519 169 c 259
 519 51 421 -10 288 -10 c 259
 165 -10 57 58 57 163 c 259
 57 235 109 299 212 357 c 257
 141 394 80 444 80 541 c 259
 80 644 170 710 288 710 c 259
 406 710 496 645 496 548 c 259
  PathStart: -2
288 634 m 259
 217 634 165 594 165 540 c 259
 165 482 222 433 308 393 c 257
 377 440 410 502 410 543 c 259
 410 594 358 634 288 634 c 259
  PathStart: -2
142 171 m 259
 142 104 205 67 288 67 c 259
 365 67 434 100 434 171 c 259
 434 244 359 290 277 326 c 257
 196 280 142 231 142 171 c 259
  PathStart: -2
EndSplineSet
EndChar

StartChar: eight.dnom
Encoding: 65551 -1 208
GlifName: eight.dnom
Width: 250
VWidth: 0
Flags: HMW
LayerCount: 2
Fore
SplineSet
260 274 m 257
 260 239 240 207 206 181 c 257
 241 159 272 131 272 85 c 257
 272 22 226 -15 144 -15 c 257
 63 -15 17 21 17 84 c 257
 17 123 41 151 85 179 c 257
 54 198 28 226 28 273 c 257
 28 331 70 365 144 365 c 257
 218 365 260 332 260 274 c 257
  PathStart: -2
144 307 m 257
 110 307 95 295 95 273 c 257
 95 243 119 227 152 209 c 257
 177 230 193 251 193 273 c 257
 193 295 178 307 144 307 c 257
  PathStart: -2
83 88 m 257
 83 59 102 44 144 44 c 257
 186 44 205 59 205 87 c 257
 205 121 176 135 140 151 c 257
 103 131 83 114 83 88 c 257
  PathStart: -2
EndSplineSet
Validated: 1
PickledDataWithLists: "(dp0
Vcom.schriftgestaltung.Glyphs.Export\\u000d
p1
I0
sVcom.schriftgestaltung.Glyphs.lastChange\\u000d
p2
V2015-12-22 13:07:21 +0000\\u000d
p3
s."
EndChar

StartChar: eight.hex
Encoding: 65552 -1 209
GlifName: eight.hex
Width: 575
VWidth: 0
Flags: HMW
LayerCount: 2
Fore
SplineSet
114 875 m 258
 114 829 l 258
 114 812 105 804 89 804 c 258
 54 804 l 258
 37 804 29 813 29 829 c 258
 29 875 l 258
 29 891 38 900 54 900 c 258
 89 900 l 258
 105 900 114 891 114 875 c 258
EndSplineSet
Refer: 207 56 N 1 0 0 1 0 0 2
PickledDataWithLists: "(dp0
Vcom.schriftgestaltung.Glyphs.lastChange\\u000d
p1
V2016-02-10 13:40:53 +0000\\u000d
p2
s."
EndChar

StartChar: emdash
Encoding: 8212 8212 213
GlifName: emdash
Width: 575
VWidth: 0
Flags: HMW
LayerCount: 2
Fore
SplineSet
0 237 m 258
 0 263 l 258
 0 280 9 289 25 289 c 258
 550 289 l 258
 566 289 575 280 575 264 c 258
 575 237 l 258
 575 221 566 212 550 212 c 258
 25 212 l 258
 9 212 0 221 0 237 c 258
EndSplineSet
Validated: 1
PickledDataWithLists: "(dp0
Vcom.schriftgestaltung.Glyphs.lastChange\\u000d
p1
V2016-05-22 17:00:36 +0000\\u000d
p2
s."
EndChar

StartChar: emptyset
Encoding: 8709 8709 214
GlifName: emptyset
Width: 575
VWidth: 0
Flags: HMW
LayerCount: 2
Fore
SplineSet
559 481 m 258
 475 397 l 257
 497 362 510 320 510 275 c 256
 510 149 412 50 288 50 c 256
 242 50 200 63 165 87 c 257
 85 7 l 258
 74 -5 62 -5 50 7 c 258
 22 35 l 258
 11 47 11 59 22 70 c 258
 102 150 l 257
 78 185 65 228 65 275 c 256
 65 401 163 500 288 500 c 256
 335 500 378 486 413 461 c 257
 496 544 l 258
 508 556 520 556 531 544 c 258
 559 516 l 258
 571 505 571 493 559 481 c 258
164 212 m 257
 351 399 l 257
 332 409 311 415 288 415 c 256
 211 415 149 353 149 275 c 256
 149 252 154 231 164 212 c 257
413 335 m 257
 227 149 l 257
 245 140 266 136 288 136 c 256
 365 136 426 197 426 275 c 256
 426 297 421 317 413 335 c 257
EndSplineSet
Validated: 33
PickledDataWithLists: "(dp0
Vcom.schriftgestaltung.Glyphs.lastChange\\u000d
p1
V2015-12-22 14:07:55 +0000\\u000d
p2
s."
EndChar

StartChar: endash
Encoding: 8211 8211 215
GlifName: endash
Width: 575
VWidth: 0
Flags: HMW
LayerCount: 2
Fore
SplineSet
150 237 m 258
 150 263 l 258
 150 280 159 289 175 289 c 258
 400 289 l 258
 416 289 425 280 425 264 c 258
 425 237 l 258
 425 221 416 212 400 212 c 258
 175 212 l 258
 159 212 150 221 150 237 c 258
EndSplineSet
Validated: 1
PickledDataWithLists: "(dp0
Vcom.schriftgestaltung.Glyphs.lastChange\\u000d
p1
V2016-05-22 12:19:24 +0000\\u000d
p2
s."
EndChar

StartChar: epsilon
Encoding: 949 949 217
GlifName: epsilon
Width: 575
VWidth: 0
Flags: HMW
LayerCount: 2
Fore
SplineSet
491 53 m 258
 498 26 l 257
 501 10 495 -2 478 -4 c 257
 441 -10 392 -13 342 -13 c 256
 172 -13 85 34 85 127 c 256
 85 189 135 230 220 249 c 257
 135 267 95 308 95 370 c 256
 95 456 184 510 342 510 c 256
 392 510 441 507 478 501 c 257
 495 499 501 487 498 471 c 257
 491 444 l 258
 487 429 477 423 461 425 c 257
 436 430 394 433 342 434 c 256
 236 434 180 409 180 370 c 256
 180 329 236 287 342 287 c 256
 358 287 367 278 367 262 c 258
 367 235 l 258
 367 219 358 210 342 210 c 256
 236 210 170 168 170 127 c 256
 170 85 228 63 342 63 c 256
 394 64 436 67 461 72 c 257
 477 74 487 68 491 53 c 258
EndSplineSet
Validated: 33
PickledDataWithLists: "(dp0
Vcom.schriftgestaltung.Glyphs.lastChange\\u000d
p1
V2016-05-30 08:32:45 +0000\\u000d
p2
s."
EndChar

StartChar: equal
Encoding: 61 61 218
GlifName: equal
Width: 575
VWidth: 0
Flags: HMW
LayerCount: 2
Fore
SplineSet
51 412 m 258
 51 439 l 258
 51 455 60 464 76 464 c 262
 499 464 l 258
 515 464 524 455 524 439 c 258
 524 412 l 258
 524 396 515 387 499 387 c 258
 76 387 l 258
 60 387 51 396 51 412 c 258
51 182 m 258
 51 209 l 258
 51 225 60 234 76 234 c 258
 499 234 l 258
 515 234 524 225 524 209 c 258
 524 182 l 258
 524 166 515 157 499 157 c 258
 76 157 l 258
 60 157 51 166 51 182 c 258
EndSplineSet
EndChar

StartChar: equivalence
Encoding: 8801 8801 219
GlifName: equivalence
Width: 575
VWidth: 0
Flags: HMW
LayerCount: 2
Fore
SplineSet
480 60 m 258
 95 60 l 258
 79 60 70 69 70 85 c 258
 70 112 l 258
 70 128 79 137 95 137 c 258
 480 137 l 258
 497 137 505 128 505 112 c 258
 505 85 l 258
 505 69 497 60 480 60 c 258
480 212 m 258
 95 212 l 258
 79 212 70 221 70 237 c 258
 70 264 l 258
 70 280 79 289 95 289 c 258
 480 289 l 258
 497 289 505 280 505 264 c 258
 505 237 l 258
 505 221 497 212 480 212 c 258
480 363 m 258
 95 363 l 258
 79 363 70 372 70 388 c 258
 70 415 l 258
 70 431 79 440 95 440 c 258
 480 440 l 258
 497 440 505 431 505 415 c 258
 505 388 l 258
 505 372 497 363 480 363 c 258
EndSplineSet
Validated: 1
PickledDataWithLists: "(dp0
Vcom.schriftgestaltung.Glyphs.lastChange\\u000d
p1
V2015-12-22 14:08:32 +0000\\u000d
p2
s."
EndChar

StartChar: eta
Encoding: 951 951 220
GlifName: eta
Width: 575
VWidth: 0
Flags: HMW
LayerCount: 2
Fore
SplineSet
85 25 m 258
 85 471 l 258
 85 486 93 495 108 498 c 256
 181 509 245 510 278 510 c 256
 426 510 490 454 490 308 c 258
 490 -225 l 258
 490 -241 482 -250 465 -250 c 258
 430 -250 l 258
 414 -250 405 -241 405 -225 c 258
 405 308 l 258
 405 402 369 434 278 434 c 256
 254 434 215 433 170 430 c 257
 170 25 l 258
 170 9 162 0 145 0 c 258
 110 0 l 258
 94 0 85 9 85 25 c 258
EndSplineSet
Validated: 1
PickledDataWithLists: "(dp0
Vcom.schriftgestaltung.Glyphs.lastChange\\u000d
p1
V2016-05-30 08:32:52 +0000\\u000d
p2
s."
EndChar

StartChar: eth
Encoding: 240 240 221
GlifName: eth
Width: 575
VWidth: 0
Flags: HMW
LayerCount: 2
Fore
SplineSet
532 623 m 257
 541 598 l 258
 546 583 541 571 526 566 c 258
 474 547 l 257
 505 479 522 394 522 296 c 256
 522 65 414 -10 292 -10 c 256
 178 -10 79 68 79 210 c 256
 79 339 173 429 290 429 c 256
 332 429 377 419 431 382 c 257
 426 440 415 485 400 520 c 257
 297 483 l 257
 282 477 271 483 265 498 c 257
 257 522 l 257
 251 538 256 550 271 555 c 258
 358 586 l 257
 330 614 298 627 267 631 c 257
 251 632 243 640 243 656 c 258
 244 685 l 258
 244 702 254 710 270 709 c 257
 336 702 392 668 434 614 c 257
 500 638 l 258
 515 644 526 638 532 623 c 257
165 210 m 256
 165 108 225 68 289 68 c 256
 366 68 436 134 436 297 c 257
 374 349 322 351 294 351 c 256
 216 351 165 291 165 210 c 256
  PathStart: -2
EndSplineSet
Validated: 33
PickledDataWithLists: "(dp0
Vcom.schriftgestaltung.Glyphs.lastChange\\u000d
p1
V2016-06-09 18:35:33 +0000\\u000d
p2
s."
EndChar

StartChar: exclam
Encoding: 33 33 222
GlifName: exclam
Width: 575
VWidth: 0
Flags: HMW
LayerCount: 2
Fore
SplineSet
260 700 m 258
 315 700 l 258
 331 700 340 691 340 675 c 258
 330 230 l 258
 330 214 321 205 305 205 c 262
 270 205 l 258
 254 205 245 214 245 230 c 258
 235 675 l 258
 235 691 244 700 260 700 c 258
330 72 m 258
 330 25 l 258
 330 9 321 0 305 0 c 258
 270 0 l 258
 254 0 245 9 245 25 c 258
 245 72 l 258
 245 88 254 97 270 97 c 258
 305 97 l 258
 321 97 330 88 330 72 c 258
EndSplineSet
PickledDataWithLists: "(dp0
Vcom.schriftgestaltung.Glyphs.lastChange\\u000d
p1
V2016-02-14 11:57:10 +0000\\u000d
p2
s."
EndChar

StartChar: f
Encoding: 102 102 225
GlifName: f
Width: 575
VWidth: 0
Flags: HMW
AnchorPoint: "mark-bottom" 239 0 basechar 0
LayerCount: 2
Fore
SplineSet
497 711 m 258
 486 685 l 258
 479 670 468 665 453 671 c 256
 426 681 403 685 378 685 c 259
 320 685 282 657 282 549 c 258
 282 500 l 257
 445 500 l 258
 461 500 470 491 470 475 c 258
 470 449 l 258
 470 433 461 424 445 424 c 258
 281 424 l 257
 281 25 l 258
 281 9 272 0 256 0 c 258
 221 0 l 258
 205 0 196 9 196 25 c 258
 196 424 l 257
 100 424 l 258
 84 424 75 433 75 449 c 258
 75 475 l 258
 75 491 84 500 100 500 c 258
 196 500 l 257
 196 549 l 258
 196 710 283 763 378 763 c 259
 413 763 443.264998514 755.417187964 483 743 c 272
 499 738 503 726 497 711 c 258
EndSplineSet
EndChar

StartChar: f.hex
Encoding: 65557 -1 226
GlifName: f.hex
Width: 575
VWidth: 0
Flags: HMW
AnchorPoint: "bottom" 520 266 basechar 0
LayerCount: 2
Fore
SplineSet
114 875 m 258
 114 829 l 258
 114 812 105 804 89 804 c 258
 54 804 l 258
 37 804 29 813 29 829 c 258
 29 875 l 258
 29 891 38 900 54 900 c 258
 89 900 l 258
 105 900 114 891 114 875 c 258
258 875 m 258
 258 829 l 258
 258 812 249 804 233 804 c 258
 198 804 l 258
 181 804 173 813 173 829 c 258
 173 875 l 258
 173 891 182 900 198 900 c 258
 233 900 l 258
 249 900 258 891 258 875 c 258
402 875 m 258
 402 829 l 258
 402 812 393 804 377 804 c 258
 342 804 l 258
 325 804 317 813 317 829 c 258
 317 875 l 258
 317 891 326 900 342 900 c 258
 377 900 l 258
 393 900 402 891 402 875 c 258
546 875 m 258
 546 829 l 258
 546 812 537 804 521 804 c 258
 486 804 l 258
 469 804 461 813 461 829 c 258
 461 875 l 258
 461 891 470 900 486 900 c 258
 521 900 l 258
 537 900 546 891 546 875 c 258
497 711 m 258
 486 685 l 257
 479 670 468 665 453 671 c 256
 426 681 403 685 378 685 c 256
 320 685 282 657 282 549 c 258
 282 500 l 257
 445 500 l 258
 461 500 470 491 470 475 c 258
 470 449 l 258
 470 433 461 424 445 424 c 258
 281 424 l 257
 281 25 l 258
 281 9 272 0 256 0 c 258
 221 0 l 258
 204 0 196 9 196 25 c 258
 196 424 l 257
 100 424 l 258
 84 424 75 432 75 449 c 258
 75 475 l 258
 75 491 84 500 100 500 c 258
 196 500 l 257
 196 549 l 258
 196 710 283 763 378 763 c 256
 413 763 450 755 483 743 c 257
 499 738 503 726 497 711 c 258
EndSplineSet
Validated: 33
PickledDataWithLists: "(dp0
Vcom.schriftgestaltung.Glyphs.lastChange\\u000d
p1
V2016-06-09 18:35:34 +0000\\u000d
p2
s."
EndChar

StartChar: five
Encoding: 53 53 227
GlifName: five
Width: 575
VWidth: 0
Flags: HMW
LayerCount: 2
Fore
SplineSet
210 431 m 257
 263 431 l 258
 415 431 493 357 493 211 c 259
 493 65 410 -10 246 -10 c 259
 204 -10 162 -5 125 4 c 256
 109 8 104 20 108 35 c 258
 116 63 l 258
 120 78 131 83 147 79 c 256
 177 72 210 68 246 68 c 259
 353 68 407 116 407 211 c 259
 407 306 358 354 263 354 c 258
 199 354 l 259
 182.780455543 354 149 361 149 361 c 258
 133 364 126 373 127 389 c 258
 149 677 l 258
 150 692 160 700 176 700 c 258
 431 700 l 258
 447 700 456 691 456 675 c 258
 456 649 l 258
 456 633 447 624 431 624 c 258
 225 624 l 257
 210 431 l 257
EndSplineSet
EndChar

StartChar: five.dnom
Encoding: 65558 -1 228
GlifName: five.dnom
Width: 250
VWidth: 0
Flags: HMW
LayerCount: 2
Fore
SplineSet
107 216 m 257
 127 216 l 258
 211 216 259 174 259 101 c 256
 259 27 210 -15 123 -15 c 256
 101 -15 78 -13 60 -8 c 256
 46 -4 40 9 42 21 c 258
 46 35 l 258
 50 45 64 53 77 50 c 256
 92 46 106 44 123 44 c 256
 170 44 192 63 192 101 c 256
 192 139 171 157 127 157 c 258
 95 157 l 258
 85 157 76 162 71 167 c 257
 50 191 l 257
 43 198 39 206 40 215 c 258
 58 340 l 258
 60 352 72 360 84 360 c 258
 221 360 l 258
 235 360 245 350 245 338 c 258
 245 325 l 258
 245 314 235 302 221 302 c 258
 120 302 l 257
 107 216 l 257
EndSplineSet
Validated: 33
PickledDataWithLists: "(dp0
Vcom.schriftgestaltung.Glyphs.Export\\u000d
p1
I0
sVcom.schriftgestaltung.Glyphs.lastChange\\u000d
p2
V2015-12-22 13:06:15 +0000\\u000d
p3
s."
EndChar

StartChar: five.hex
Encoding: 65559 -1 229
GlifName: five.hex
Width: 575
VWidth: 0
Flags: HMW
LayerCount: 2
Fore
SplineSet
258 875 m 258
 258 829 l 258
 258 812 249 804 233 804 c 258
 198 804 l 258
 181 804 173 813 173 829 c 258
 173 875 l 258
 173 891 182 900 198 900 c 258
 233 900 l 258
 249 900 258 891 258 875 c 258
546 875 m 258
 546 829 l 258
 546 812 537 804 521 804 c 258
 486 804 l 258
 469 804 461 813 461 829 c 258
 461 875 l 258
 461 891 470 900 486 900 c 258
 521 900 l 258
 537 900 546 891 546 875 c 258
EndSplineSet
Refer: 227 53 N 1 0 0 1 0 0 2
PickledDataWithLists: "(dp0
Vcom.schriftgestaltung.Glyphs.lastChange\\u000d
p1
V2016-02-10 13:20:16 +0000\\u000d
p2
s."
EndChar

StartChar: florin
Encoding: 402 402 232
GlifName: florin
Width: 575
VWidth: 0
Flags: HMW
LayerCount: 2
Fore
SplineSet
536 719 m 258
 525 693 l 258
 519 678 507 672 492 674 c 256
 447 682 409 684 388 684 c 256
 328 684 304 665 292 599 c 258
 275 500 l 257
 439 500 l 258
 455 500 462 491 459 475 c 258
 455 449 l 258
 452 433 442 424 425 424 c 258
 261 424 l 257
 173 -75 l 258
 171 -92 160 -100 144 -100 c 258
 109 -100 l 258
 93 -100 86 -92 88 -75 c 258
 176 424 l 257
 81 424 l 258
 65 424 57 432 60 449 c 258
 65 475 l 258
 68 491 78 500 94 500 c 258
 190 500 l 257
 207 599 l 258
 227 716 285 760 401 760 c 256
 429 760 473 758 522 749 c 256
 538 746 543 736 536 719 c 258
EndSplineSet
Validated: 33
PickledDataWithLists: "(dp0
Vcom.schriftgestaltung.Glyphs.lastChange\\u000d
p1
V2015-12-22 12:14:05 +0000\\u000d
p2
s."
EndChar

StartChar: four
Encoding: 52 52 233
GlifName: four
Width: 575
VWidth: 0
Flags: HMW
LayerCount: 2
Fore
SplineSet
431 221 m 257
 485 221 l 258
 501 221 510 212 510 196 c 258
 510 170 l 258
 510 154 501 145 485 145 c 258
 430 145 l 257
 430 25 l 258
 430 9 421 0 405 0 c 258
 370 0 l 258
 354 0 346 9 346 25 c 258
 346 145 l 257
 97 145 l 258
 81 145 73 153 73 169 c 258
 73 209 l 258
 73 221 75 230 80 240 c 258
 298 677 l 258
 306 694 315 700 335 700 c 258
 371 700 l 258
 391 700 399 688 390 670 c 258
 165 221 l 257
 346 221 l 257
 346 392 l 258
 346 408 355 417 371 417 c 258
 406 417 l 258
 422 417 431 408 431 392 c 258
 431 221 l 257
EndSplineSet
EndChar

StartChar: four.dnom
Encoding: 65561 -1 234
GlifName: four.dnom
Width: 250
VWidth: 0
Flags: HMW
LayerCount: 2
Fore
SplineSet
228 121 m 257
 243 121 l 257
 257 121 267 109 267 98 c 257
 267 85 l 257
 267 73 257 63 243 63 c 257
 227 63 l 257
 227 13 l 257
 227 2 217 -10 203 -10 c 257
 185 -10 l 257
 171 -10 161 2 161 13 c 257
 161 63 l 257
 49 63 l 257
 35 63 25 73 25 85 c 257
 25 105 l 257
 25 112 26 118 29 124 c 257
 29 124 l 257
 138 343 l 257
 143 353 154 360 168 360 c 257
 186 360 l 257
 203 360 213 344 206 331 c 257
 101 121 l 257
 161 121 l 257
 161 196 l 257
 161 208 172 219 186 219 c 257
 203 219 l 257
 217 219 228 208 228 196 c 257
 228 121 l 257
EndSplineSet
Validated: 37
PickledDataWithLists: "(dp0
Vcom.schriftgestaltung.Glyphs.Export\\u000d
p1
I0
sVcom.schriftgestaltung.Glyphs.lastChange\\u000d
p2
V2015-12-22 13:05:53 +0000\\u000d
p3
s."
EndChar

StartChar: four.hex
Encoding: 65562 -1 235
GlifName: four.hex
Width: 575
VWidth: 0
Flags: HMW
LayerCount: 2
Fore
SplineSet
258 875 m 258
 258 829 l 258
 258 812 249 804 233 804 c 258
 198 804 l 258
 181 804 173 813 173 829 c 258
 173 875 l 258
 173 891 182 900 198 900 c 258
 233 900 l 258
 249 900 258 891 258 875 c 258
EndSplineSet
Refer: 233 52 N 1 0 0 1 0 0 2
PickledDataWithLists: "(dp0
Vcom.schriftgestaltung.Glyphs.lastChange\\u000d
p1
V2016-02-10 13:19:53 +0000\\u000d
p2
s."
EndChar

StartChar: g
Encoding: 103 103 238
GlifName: g
Width: 575
VWidth: 0
Flags: HMW
AnchorPoint: "mark-top" 288 500 basechar 0
LayerCount: 2
Fore
SplineSet
172 108 m 259
 172 73 212 61 320 61 c 259
 487 61 575 4 575 -87 c 259
 575 -182.005263012 484 -248 320 -248 c 259
 146 -248 51 -199 51 -113 c 259
 51 -63 84 -14 131 11 c 257
 100 28 87 53 87 89 c 259
 87 131 118 173 159 191 c 257
 114 223 87 272.991379951 87 331 c 259
 87 433.004901843 168 510 288 510 c 259
 314 510 337 506 359 500 c 257
 510 500 l 258
 526 500 535 491 535 475 c 258
 535 459 l 258
 535 443 526 434 510 434 c 258
 456 434 l 257
 477 405 489 370 489 331 c 259
 489 229 408 152 288 152 c 259
 262 152 237 156 214 163 c 257
 186 150 172 128 172 108 c 259
404 331 m 259
 404 390 354 434 288 434 c 259
 222 434 172 390 172 331 c 259
 172 273 222 229 288 229 c 259
 354 229 404 273 404 331 c 259
130 -88 m 259
 130 -141.037024344 196 -171 310 -171 c 259
 427 -171 490 -133 490 -87 c 259
 490 -43.9883736648 431 -16 310 -16 c 259
 263 -16 225 -14 195 -9 c 257
 153 -25 130 -56 130 -88 c 259
EndSplineSet
EndChar

StartChar: gamma
Encoding: 947 947 239
GlifName: gamma
Width: 575
VWidth: 0
Flags: HMW
LayerCount: 2
Fore
SplineSet
66 472 m 258
 61 489 70 500 87 500 c 258
 123 500 l 258
 138 500 147 493 151 479 c 258
 255 63 l 257
 286 63 l 258
 307 63 321 74 325 93 c 258
 422 479 l 258
 425 493 434 500 449 500 c 258
 485 500 l 258
 503 500 511 490 507 472 c 258
 409 80 l 258
 394 22 351 -10 286 -10 c 258
 273 -10 l 257
 291 -78 302 -158 305 -225 c 256
 305 -241 296 -250 280 -250 c 258
 252 -250 l 258
 236 -250 228 -242 227 -226 c 256
 223 -178 209 -103 189 -21 c 258
 66 472 l 258
  PathStart: -2
EndSplineSet
Validated: 33
PickledDataWithLists: "(dp0
Vcom.schriftgestaltung.Glyphs.lastChange\\u000d
p1
V2016-05-30 08:32:29 +0000\\u000d
p2
s."
EndChar

StartChar: germandbls
Encoding: 223 223 241
GlifName: germandbls
Width: 575
VWidth: 0
Flags: HMW
LayerCount: 2
Back
SplineSet
187 494 m 262
 187 25 l 262
 187 9 178 0 162 0 c 262
 127 0 l 262
 111 0 102 9 102 25 c 262
 102 494 l 262
 102 631 170 700 294 700 c 263
 410 700 473 644 473 541 c 263
 473 498 449 459 428 427 c 260
 414 404 402 385 402 370 c 263
 402 348 421 332 443 314 c 260
 475 288 513 256.007812023 513 192 c 263
 513 61.996153903 416 7 290 1 c 260
 273 0 264 9 264 26 c 262
 264 52 l 262
 264 68 273 76 289 78 c 260
 370 88 432 115 432 197 c 263
 432 238 403 258 375 279 c 261
 346 299 317 320 317 363 c 263
 317 402 341 437 362 468 c 260
 378 492 393 513 393 533 c 263
 393 592 358 624 294 624 c 263
 225 624 187 581 187 494 c 262
EndSplineSet
Fore
SplineSet
187 494 m 258
 187 25 l 258
 187 9 178 0 162 0 c 258
 127 0 l 258
 111 0 102 9 102 25 c 258
 102 494 l 258
 102 631 170 700 294 700 c 259
 410 700 473 644 473 541 c 259
 473 468.974064584 402 407.612348531 402 370 c 259
 402 314.184058778 513 301.199737959 513 192 c 259
 513 61.996153903 416 7 290 1 c 256
 273 0 264 9 264 26 c 258
 264 52 l 258
 264 68 273 76 289 78 c 256
 370 88 432 115 432 197 c 259
 432 280.058136567 317 278.075652728 317 363 c 259
 317 431.405446795 393 488.231245089 393 533 c 259
 393 592 358 624 294 624 c 259
 225 624 187 581 187 494 c 258
EndSplineSet
PickledDataWithLists: "(dp0
Vcom.schriftgestaltung.Glyphs.lastChange\\u000d
p1
V2016-06-09 18:35:34 +0000\\u000d
p2
s."
EndChar

StartChar: grave
Encoding: 96 96 242
GlifName: grave
Width: 575
VWidth: 0
GlyphClass: 2
Flags: HMW
LayerCount: 2
Fore
SplineSet
385 595 m 258
 400 588 404 577 399 562 c 257
 390 544 l 257
 382 530 371 526 357 531 c 258
 135 606 l 258
 119 611 114 623 121 638 c 258
 143 684 l 258
 149 699 161 703 176 696 c 258
 385 595 l 258
  PathStart: -2
EndSplineSet
PickledDataWithLists: "(dp0
Vcom.schriftgestaltung.Glyphs.lastChange\\u000d
p1
V2015-12-22 16:32:42 +0000\\u000d
p2
s."
EndChar

StartChar: greater
Encoding: 62 62 243
GlifName: greater
Width: 575
VWidth: 0
Flags: HMW
LayerCount: 2
Fore
SplineSet
135 623 m 258
 460 379 l 258
 486 360 501 335 501 311 c 256
 501 287 486 262 460 243 c 258
 136 -1 l 258
 124 -10 110 -10 100 3 c 258
 81 26 l 258
 71 39 72 51 85 61 c 258
 417 311 l 257
 85 561 l 258
 72 571 71 583 81 596 c 258
 100 619 l 258
 110 632 123 632 135 623 c 258
EndSplineSet
EndChar

StartChar: greaterequal
Encoding: 8805 8805 244
GlifName: greaterequal
Width: 575
VWidth: 0
Flags: HMW
LayerCount: 2
Fore
SplineSet
51 25 m 258
 51 52 l 258
 51 68 60 77 76 77 c 258
 499 77 l 258
 516 77 524 68 524 52 c 258
 524 25 l 258
 524 9 516 0 499 0 c 258
 76 0 l 258
 60 0 51 9 51 25 c 258
113 645 m 258
 458 473 l 258
 491 456 519 437 519 400 c 256
 519 363 489 343 458 328 c 258
 113 155 l 258
 99 148 87 152 80 166 c 258
 66 190 l 258
 58 205 62 217 76 224 c 258
 428 400 l 257
 76 576 l 258
 62 584 58 596 66 610 c 258
 80 635 l 258
 87 649 99 652 113 645 c 258
EndSplineSet
Validated: 33
PickledDataWithLists: "(dp0
Vcom.schriftgestaltung.Glyphs.lastChange\\u000d
p1
V2015-12-22 14:10:07 +0000\\u000d
p2
s."
EndChar

StartChar: guillemotleft
Encoding: 171 171 245
GlifName: guillemotleft
Width: 575
VWidth: 0
Flags: HMW
LayerCount: 2
Fore
SplineSet
114 311 m 257
 301 124 l 258
 312 113 312 100 300 89 c 258
 277 68 l 258
 265 58 253 58 241 69 c 258
 65 246 l 258
 46 265 30 284 30 311 c 256
 30 338 46 358 65 377 c 258
 241 553 l 258
 253 565 265 565 277 554 c 258
 300 534 l 258
 312 523 312 510 301 498 c 258
 114 311 l 257
350 311 m 257
 537 124 l 258
 549 113 549 100 536 89 c 258
 513 68 l 258
 501 58 489 58 478 69 c 258
 301 246 l 258
 282 265 266 284 266 311 c 256
 266 338 282 358 301 377 c 258
 478 553 l 258
 489 565 501 565 513 554 c 258
 536 534 l 258
 549 523 549 510 537 498 c 258
 350 311 l 257
EndSplineSet
PickledDataWithLists: "(dp0
Vcom.schriftgestaltung.Glyphs.lastChange\\u000d
p1
V2015-12-22 13:55:11 +0000\\u000d
p2
s."
EndChar

StartChar: guilsinglleft
Encoding: 8249 8249 247
GlifName: guilsinglleft
Width: 575
VWidth: 0
Flags: HMW
LayerCount: 2
Fore
SplineSet
232 250 m 257
 419 63 l 258
 431 52 431 39 418 28 c 258
 395 7 l 258
 383 -3 371 -3 360 8 c 258
 183 185 l 258
 164 204 148 223 148 250 c 256
 148 277 164 297 183 316 c 258
 360 492 l 258
 371 504 383 504 395 493 c 258
 418 473 l 258
 431 462 431 449 419 437 c 258
 232 250 l 257
EndSplineSet
Validated: 33
PickledDataWithLists: "(dp0
Vcom.schriftgestaltung.Glyphs.lastChange\\u000d
p1
V2015-12-22 13:57:17 +0000\\u000d
p2
s."
EndChar

StartChar: h
Encoding: 104 104 249
GlifName: h
Width: 575
VWidth: 0
Flags: HMW
AnchorPoint: "mark-top" 288 700 basechar 0
AnchorPoint: "mark-bottom" 288 0 basechar 0
LayerCount: 2
Fore
SplineSet
174 725 m 258
 174 505 l 257
 220 509 255 510 278 510 c 259
 426 510 486 454 486 308 c 258
 486 25 l 258
 486 9 477 0 461 0 c 258
 426 0 l 258
 410 0 401 9 401 25 c 258
 401 308 l 258
 401 402 369 434 278 434 c 259
 254 434 219 433 174 429 c 257
 174 25 l 258
 174 9 165 0 149 0 c 258
 114 0 l 258
 98 0 89 9 89 25 c 258
 89 726 l 258
 89 742 98 751 114 751 c 258
 149 750 l 258
 165 750 174 741 174 725 c 258
EndSplineSet
PickledDataWithLists: "(dp0
Vcom.schriftgestaltung.Glyphs.lastChange\\u000d
p1
V2016-06-09 18:35:33 +0000\\u000d
p2
s."
EndChar

StartChar: heart
Encoding: 9829 9829 251
GlifName: heart
Width: 575
VWidth: 0
Flags: HMW
LayerCount: 2
Fore
SplineSet
175 530 m 256
 226 530 268 499 288 460 c 257
 308 499 351 530 400 530 c 256
 481 530 540 457 540 373 c 256
 540 251 445 120 288 -20 c 257
 126 124 36 255 36 373 c 256
 36 462 96 530 175 530 c 256
  PathStart: -2
EndSplineSet
Validated: 1
PickledDataWithLists: "(dp0
Vcom.schriftgestaltung.Glyphs.lastChange\\u000d
p1
V2016-06-10 08:28:00 +0000\\u000d
p2
s."
Comment: "+AAoA    heart+AAoA  "
EndChar

StartChar: hungarumlaut
Encoding: 733 733 252
GlifName: hungarumlaut
Width: 575
VWidth: 0
GlyphClass: 2
Flags: HMW
AnchorPoint: "top" 291 500 mark 0
LayerCount: 2
Fore
SplineSet
259 691 m 258
 291 659 l 258
 302 648 302 635 290 624 c 258
 187 532 l 258
 175 521 163 522 152 533 c 258
 132 553 l 258
 121 564 121 576 132 588 c 258
 224 690 l 258
 235 702 247 703 259 691 c 258
488 691 m 258
 519 659 l 258
 531 648 530 635 518 624 c 258
 416 532 l 258
 404 521 392 522 381 533 c 258
 361 553 l 258
 350 564 349 576 360 588 c 258
 453 690 l 258
 464 702 476 703 488 691 c 258
EndSplineSet
Validated: 33
PickledDataWithLists: "(dp0
Vcom.schriftgestaltung.Glyphs.lastChange\\u000d
p1
V2015-12-22 16:32:42 +0000\\u000d
p2
s."
EndChar

StartChar: hyphen
Encoding: 45 45 253
GlifName: hyphen
Width: 575
VWidth: 0
Flags: HMW
LayerCount: 2
Fore
SplineSet
76 272 m 258
 60 272 51 281 51 297 c 258
 51 324 l 258
 51 340 60 349 76 349 c 258
 499 349 l 258
 515 349 524 340 524 324 c 258
 524 297 l 258
 524 281 515 272 499 272 c 258
 76 272 l 258
EndSplineSet
PickledDataWithLists: "(dp0
Vcom.schriftgestaltung.Glyphs.lastChange\\u000d
p1
V2015-12-22 16:32:53 +0000\\u000d
p2
s."
EndChar

StartChar: i
Encoding: 105 105 254
GlifName: i
Width: 575
VWidth: 0
Flags: HMW
AnchorPoint: "mark-ogonek" 460 25 basechar 0
AnchorPoint: "mark-bottom" 288 0 basechar 0
LayerCount: 2
Fore
SplineSet
220 760 m 258
 285 760 l 258
 301 760 310 751 310 735 c 258
 310 669 l 258
 310 653 301 644 285 644 c 258
 220 644 l 258
 204 644 195 653 195 669 c 258
 195 735 l 258
 195 751 204 760 220 760 c 258
EndSplineSet
Refer: 198 305 S 1 0 0 1 0 0 3
EndChar

StartChar: ij
Encoding: 307 307 259
GlifName: ij
Width: 575
VWidth: 0
Flags: HMW
LayerCount: 2
Fore
SplineSet
255 654 m 258
 220 654 l 258
 204 654 195 663 195 679 c 258
 195 725 l 258
 195 741 204 750 220 750 c 258
 255 750 l 258
 272 750 280 741 280 725 c 258
 280 679 l 258
 280 662 272 654 255 654 c 258
430 750 m 258
 465 750 l 258
 481 750 490 742 490 725 c 258
 490 679 l 258
 490 663 482 654 465 654 c 258
 430 654 l 258
 414 654 405 663 405 679 c 258
 405 725 l 258
 405 741 414 750 430 750 c 258
115 500 m 258
 470 500 l 258
 483 500 490 491 490 475 c 258
 490 24 l 258
 490 -163 403 -248 219 -248 c 256
 191 -248 150 -246 101 -237 c 256
 85 -234 78 -223 82 -207 c 258
 89 -181 l 258
 93 -165 103 -159 119 -162 c 256
 162 -170 197 -171 219 -171 c 256
 353 -171 405 -107 405 24 c 258
 405 424 l 257
 280 424 l 257
 280 25 l 258
 280 9 272 0 255 0 c 258
 220 0 l 258
 204 0 195 9 195 25 c 258
 195 424 l 257
 115 424 l 258
 99 424 90 433 90 449 c 258
 90 475 l 258
 90 492 99 500 115 500 c 258
EndSplineSet
Validated: 33
PickledDataWithLists: "(dp0
Vcom.schriftgestaltung.Glyphs.lastChange\\u000d
p1
V2016-06-09 18:35:33 +0000\\u000d
p2
s."
EndChar

StartChar: infinity
Encoding: 8734 8734 261
GlifName: infinity
Width: 575
VWidth: 0
Flags: HMW
LayerCount: 2
Fore
SplineSet
156 403 m 256
 205 403 247 373 282 315 c 257
 310 364 346 408 409 408 c 256
 485 408 533 347 533 249 c 256
 533 159 482 90 413 90 c 256
 365 90 322 123 284 187 c 257
 253 123 216 95 161 95 c 256
 90 95 43 156 43 249 c 256
 43 341 89 403 156 403 c 256
  PathStart: -2
114 249 m 256
 114 190 130 162 161 162 c 256
 196 162 227 195 253 262 c 257
 228 307 191 335 159 335 c 256
 129 335 114 307 114 249 c 256
  PathStart: -2
407 157 m 256
 443 157 462 187 462 249 c 256
 462 299 451 341 407 341 c 256
 370 341 340 310 310 242 c 257
 344 184 374 157 407 157 c 256
  PathStart: -2
EndSplineSet
Validated: 1
EndChar

StartChar: integral
Encoding: 8747 8747 262
GlifName: integral
Width: 575
VWidth: 0
Flags: HMW
LayerCount: 2
Fore
SplineSet
78 -150 m 256
 62 -147 56 -135 61 -119 c 258
 70 -93 l 257
 75 -78 86 -73 101 -77 c 256
 126 -82 150 -84 167 -84 c 256
 226 -83 245 -60 245 -1 c 258
 245 501 l 258
 245 613 298 660 409 660 c 256
 429 660 460 659 497 650 c 256
 514 647 520 635 514 619 c 258
 506 593 l 257
 500 578 490 573 474 577 c 256
 449 582 425 584 409 584 c 256
 349 583 330 560 330 501 c 258
 330 -1 l 258
 330 -113 278 -160 167 -160 c 256
 147 -160 115 -159 78 -150 c 256
  PathStart: -2
EndSplineSet
Validated: 33
PickledDataWithLists: "(dp0
Vcom.schriftgestaltung.Glyphs.lastChange\\u000d
p1
V2015-12-22 14:14:22 +0000\\u000d
p2
s."
EndChar

StartChar: iota
Encoding: 953 953 264
GlifName: iota
Width: 575
VWidth: 0
Flags: HMW
LayerCount: 2
Fore
SplineSet
436 57 m 257
 444 31 l 258
 450 16 444 4 427 0 c 256
 390 -9 359 -10 339 -10 c 256
 225 -10 175 40 175 150 c 257
 175 476 l 257
 174 493 184 501 200 501 c 258
 235 501 l 258
 251 501 260 493 260 476 c 258
 260 150 l 258
 260 91 279 68 339 67 c 256
 355 67 379 68 404 74 c 256
 420 77 430 72 436 57 c 257
EndSplineSet
Validated: 33
PickledDataWithLists: "(dp0
Vcom.schriftgestaltung.Glyphs.lastChange\\u000d
p1
V2015-12-22 12:32:48 +0000\\u000d
p2
s."
EndChar

StartChar: j
Encoding: 106 106 265
GlifName: j
Width: 575
VWidth: 0
Flags: HMW
LayerCount: 2
Fore
SplineSet
400 760 m 258
 465 760 l 258
 481 760 490 752 490 735 c 258
 490 669 l 258
 490 653 482 644 465 644 c 258
 400 644 l 258
 384 644 375 653 375 669 c 258
 375 735 l 258
 375 751 384 760 400 760 c 258
125 500 m 258
 465 500 l 258
 481 500 490 491 490 475 c 258
 490 120 l 258
 490 -90 373 -160 247 -160 c 256
 196 -160 144 -150 97 -130 c 256
 82 -124 78 -112 84 -97 c 258
 94 -73 l 258
 100 -58 111 -53 126 -59 c 256
 170 -75 206 -82 247 -82 c 256
 336 -82 404 -36 404 120 c 258
 404 422 l 257
 125 422 l 258
 109 422 100 431 100 447 c 258
 100 475 l 258
 100 491 109 500 125 500 c 258
EndSplineSet
EndChar

StartChar: k
Encoding: 107 107 267
GlifName: k
Width: 575
VWidth: 0
Flags: HMW
AnchorPoint: "mark-bottom" 288 0 basechar 0
LayerCount: 2
Fore
SplineSet
304 233 m 258
 502 31 l 258
 518 15 512 0 489 0 c 258
 431 0 l 258
 418 0 409 4 400 13 c 258
 204 214 l 258
 190 228 179 236 174 236 c 257
 174 25 l 258
 174 9 165 0 149 0 c 258
 114 0 l 258
 98 0 89 9 89 25 c 258
 89 725 l 258
 89 741 98 750 114 750 c 258
 149 750 l 258
 165 750 174 741 174 725 c 258
 174 285 l 257
 179 285 190 293 204 307 c 258
 380 487 l 258
 389 496 398 500 411 500 c 258
 469 500 l 258
 492 500 498 485 482 469 c 258
 304 287 l 258
 295 278 286 269 257 260 c 257
 286 251 295 242 304 233 c 258
EndSplineSet
EndChar

StartChar: kappa
Encoding: 954 954 268
GlifName: kappa
Width: 575
VWidth: 0
Flags: HMW
LayerCount: 2
Fore
SplineSet
300 233 m 258
 502 31 l 258
 518 15 512 0 489 0 c 258
 431 0 l 258
 418 0 409 4 400 13 c 258
 200 214 l 258
 186 228 175 236 170 236 c 257
 170 25 l 258
 170 9 161 0 145 0 c 258
 110 0 l 258
 94 0 85 9 85 25 c 258
 85 476 l 258
 85 492 94 501 110 501 c 258
 145 501 l 258
 161 501 170 492 170 476 c 258
 170 285 l 257
 175 285 186 293 200 307 c 258
 380 487 l 258
 389 496 398 500 411 500 c 258
 469 500 l 258
 492 500 498 485 482 469 c 258
 300 287 l 258
 291 278 282 269 253 260 c 257
 282 251 291 242 300 233 c 258
EndSplineSet
Validated: 33
PickledDataWithLists: "(dp0
Vcom.schriftgestaltung.Glyphs.lastChange\\u000d
p1
V2015-12-22 12:33:21 +0000\\u000d
p2
s."
EndChar

StartChar: l
Encoding: 108 108 269
GlifName: l
Width: 575
VWidth: 0
Flags: HMW
AnchorPoint: "mark-topright" 390 700 basechar 0
AnchorPoint: "mark-top" 288 700 basechar 0
AnchorPoint: "mark-bottom" 288 0 basechar 0
LayerCount: 2
Fore
SplineSet
486 57 m 258
 494 31 l 258
 499 15 494 4 477 0 c 256
 440 -9 409 -10 389 -10 c 259
 275 -10 225 40 225 150 c 258
 225 674 l 257
 113 674 l 258
 97 674 88 683 88 699 c 258
 88 725 l 258
 88 741 97 750 113 750 c 258
 285 750 l 258
 301 750 310 741 310 725 c 258
 310 150 l 258
 310 91 329 68 389 67 c 259
 405 67 429 68 454 74 c 256
 470 78 481 73 486 57 c 258
EndSplineSet
PickledDataWithLists: "(dp0
Vcom.schriftgestaltung.Glyphs.lastChange\\u000d
p1
V2016-06-09 18:35:33 +0000\\u000d
p2
s."
EndChar

StartChar: lacute
Encoding: 314 314 270
GlifName: lacute
Width: 575
VWidth: 0
Flags: HMW
AnchorPoint: "top" 328 699 basechar 0
AnchorPoint: "topright" 565 500 basechar 0
AnchorPoint: "top" 278 699 mark 0
AnchorPoint: "bottom" 288 0 basechar 0
LayerCount: 2
Fore
SplineSet
175 743 m 257
 167 761 l 257
 161 776 165 787 180 794 c 258
 390 895 l 258
 404 902 416 898 423 883 c 258
 444 837 l 258
 451 822 446 810 430 805 c 258
 209 730 l 258
 194 725 183 729 175 743 c 257
486 57 m 257
 494 31 l 257
 500 16 494 4 477 0 c 256
 440 -9 409 -10 389 -10 c 256
 275 -10 225 40 225 150 c 258
 225 624 l 257
 113 624 l 258
 97 624 88 633 88 649 c 258
 88 675 l 258
 88 692 97 700 113 700 c 258
 285 700 l 258
 301 700 310 692 310 675 c 258
 310 150 l 258
 310 91 329 68 389 67 c 256
 405 67 429 68 454 74 c 257
 470 77 480 72 486 57 c 257
EndSplineSet
Validated: 33
PickledDataWithLists: "(dp0
Vcom.schriftgestaltung.Glyphs.lastChange\\u000d
p1
V2016-06-09 18:35:33 +0000\\u000d
p2
s."
EndChar

StartChar: lambda
Encoding: 955 955 271
GlifName: lambda
Width: 575
VWidth: 0
Flags: HMW
LayerCount: 2
Fore
SplineSet
93 662 m 258
 93 678 102 687 118 687 c 256
 220 687 280 607 325 500 c 258
 523 29 l 258
 530 11 521 0 503 0 c 258
 466 0 l 258
 452 0 442 6 437 19 c 258
 286 392 l 257
 138 19 l 258
 133 6 123 0 109 0 c 258
 72 0 l 258
 54 0 45 11 52 29 c 258
 242 482 l 257
 201 577 163 613 118 613 c 256
 102 613 93 622 93 638 c 258
 93 662 l 258
  PathStart: -2
EndSplineSet
Validated: 33
EndChar

StartChar: lcaron
Encoding: 318 318 272
GlifName: lcaron
Width: 575
VWidth: 0
Flags: HMW
AnchorPoint: "top" 328 699 basechar 0
AnchorPoint: "topright" 565 500 basechar 0
AnchorPoint: "top" 278 699 mark 0
AnchorPoint: "bottom" 288 0 basechar 0
LayerCount: 2
Fore
SplineSet
103 864 m 258
 120 887 l 258
 130 900 142 902 155 893 c 258
 257 822 l 257
 265 816 268 813 278 813 c 256
 288 813 291 817 299 822 c 257
 401 893 l 258
 414 902 426 900 435 887 c 258
 452 864 l 258
 462 851 460 838 446 829 c 258
 342 764 l 258
 322 751 301 741 278 741 c 256
 255 741 235 750 214 763 c 258
 110 829 l 258
 96 838 93 851 103 864 c 258
486 57 m 257
 494 31 l 257
 500 16 494 4 477 0 c 256
 440 -9 409 -10 389 -10 c 256
 275 -10 225 40 225 150 c 258
 225 624 l 257
 113 624 l 258
 97 624 88 633 88 649 c 258
 88 675 l 258
 88 692 97 700 113 700 c 258
 285 700 l 258
 301 700 310 692 310 675 c 258
 310 150 l 258
 310 91 329 68 389 67 c 256
 405 67 429 68 454 74 c 257
 470 77 480 72 486 57 c 257
EndSplineSet
Validated: 33
PickledDataWithLists: "(dp0
Vcom.schriftgestaltung.Glyphs.lastChange\\u000d
p1
V2016-06-09 18:35:33 +0000\\u000d
p2
s."
EndChar

StartChar: ldot
Encoding: 320 320 273
GlifName: ldot
Width: 575
VWidth: 0
Flags: HMW
AnchorPoint: "top" 328 699 basechar 0
AnchorPoint: "bottom" 288 0 basechar 0
AnchorPoint: "topright" 565 500 basechar 0
LayerCount: 2
Fore
SplineSet
486 57 m 257
 494 31 l 257
 500 16 494 4 477 0 c 256
 440 -9 409 -10 389 -10 c 256
 275 -10 225 40 225 150 c 258
 225 674 l 257
 113 674 l 258
 97 674 88 683 88 699 c 258
 88 725 l 258
 88 742 97 750 113 750 c 258
 285 750 l 258
 301 750 310 742 310 725 c 258
 310 150 l 258
 310 91 329 68 389 67 c 256
 405 67 429 68 454 74 c 257
 470 77 480 72 486 57 c 257
500 284 m 258
 500 237 l 258
 500 221 492 212 475 212 c 258
 440 212 l 258
 424 212 415 221 415 237 c 258
 415 283 l 258
 415 300 424 309 440 309 c 258
 475 309 l 258
 492 309 500 300 500 284 c 258
EndSplineSet
Validated: 33
PickledDataWithLists: "(dp0
Vcom.schriftgestaltung.Glyphs.lastChange\\u000d
p1
V2016-06-09 18:35:33 +0000\\u000d
p2
s."
EndChar

StartChar: lfblock
Encoding: 9612 9612 276
GlifName: lfblock
Width: 575
VWidth: 0
Flags: HMW
LayerCount: 2
Fore
SplineSet
0 -250 m 257
 0 900 l 257
 287 900 l 257
 287 -250 l 257
 0 -250 l 257
EndSplineSet
Validated: 1
PickledDataWithLists: "(dp0
Vcom.schriftgestaltung.Glyphs.lastChange\\u000d
p1
V2016-06-10 08:26:49 +0000\\u000d
p2
s."
EndChar

StartChar: logicalnot
Encoding: 172 172 277
GlifName: logicalnot
Width: 575
VWidth: 0
Flags: HMW
LayerCount: 2
Fore
SplineSet
110 414 m 258
 465 414 l 258
 481 414 490 405 490 389 c 258
 490 150 l 258
 490 134 481 125 465 125 c 258
 430 125 l 258
 414 125 405 134 405 150 c 258
 405 337 l 257
 110 337 l 258
 94 337 85 346 85 362 c 258
 85 389 l 258
 85 405 94 414 110 414 c 258
EndSplineSet
PickledDataWithLists: "(dp0
Vcom.schriftgestaltung.Glyphs.lastChange\\u000d
p1
V2015-12-22 14:15:53 +0000\\u000d
p2
s."
EndChar

StartChar: lslash
Encoding: 322 322 278
GlifName: lslash
Width: 575
VWidth: 0
Flags: HMW
AnchorPoint: "top" 328 699 basechar 0
AnchorPoint: "bottom" 288 0 basechar 0
AnchorPoint: "topright" 565 500 basechar 0
LayerCount: 2
Fore
SplineSet
486 57 m 257
 494 31 l 257
 500 16 494 4 477 0 c 256
 440 -9 409 -10 389 -10 c 256
 275 -10 225 40 225 150 c 258
 225 304 l 257
 176 267 l 258
 165 259 150 261 142 271 c 257
 122 294 l 258
 112 306 115 323 127 332 c 258
 225 406 l 257
 225 674 l 257
 113 674 l 258
 97 674 88 683 88 699 c 258
 88 725 l 258
 88 742 97 750 113 750 c 258
 285 750 l 258
 301 750 310 742 310 725 c 258
 310 470 l 257
 366 512 l 258
 377 520 392 517 400 507 c 258
 419 484 l 258
 429 471 427 455 415 446 c 258
 310 367 l 257
 310 150 l 258
 310 91 329 68 389 67 c 256
 405 67 429 68 454 74 c 257
 470 77 480 72 486 57 c 257
EndSplineSet
Validated: 33
PickledDataWithLists: "(dp0
Vcom.schriftgestaltung.Glyphs.lastChange\\u000d
p1
V2016-06-09 18:35:33 +0000\\u000d
p2
s."
EndChar

StartChar: ltshade
Encoding: 9617 9617 279
GlifName: ltshade
Width: 575
VWidth: 0
Flags: HMW
LayerCount: 2
Fore
SplineSet
0 -250 m 257
 0 -194 l 257
 28 -250 l 257
 0 -250 l 257
287 -250 m 257
 0 324 l 257
 0 380 l 257
 315 -250 l 257
 287 -250 l 257
575 -250 m 257
 0 900 l 257
 28 900 l 257
 575 -194 l 257
 575 -250 l 257
575 324 m 257
 287 900 l 257
 315 900 l 257
 575 380 l 257
 575 324 l 257
EndSplineSet
Validated: 1
PickledDataWithLists: "(dp0
Vcom.schriftgestaltung.Glyphs.lastChange\\u000d
p1
V2016-06-10 08:26:49 +0000\\u000d
p2
s."
EndChar

StartChar: m
Encoding: 109 109 280
GlifName: m
Width: 575
VWidth: 0
Flags: HMW
AnchorPoint: "mark-top" 288 500 basechar 0
AnchorPoint: "mark-bottom" 288 0 basechar 0
LayerCount: 2
Fore
SplineSet
284 484 m 257
 323 503 359 508 388 508 c 259
 479 508 524 467 524 352 c 258
 524 25 l 258
 524 9 515 0 499 0 c 258
 464 0 l 258
 448 0 439 9 439 25 c 258
 439 350 l 258
 439 411 418 432 364 432 c 259
 359 432 344 432 320 429 c 257
 329 402 330 376 330 350 c 258
 330 210 l 258
 330 194 321 185 305 185 c 258
 270 185 l 258
 254 185 245 194 245 210 c 258
 245 350 l 258
 245 411 224 432 170 432 c 259
 166 432 154 432 136 430 c 257
 136 25 l 258
 136 9 127 0 111 0 c 258
 76 0 l 258
 60 0 51 9 51 25 c 258
 51 468 l 258
 51 483 59 492 74 495 c 256
 118 503 156 508 189 508 c 259
 229 508 261 501 284 484 c 257
EndSplineSet
EndChar

StartChar: macron
Encoding: 175 175 281
GlifName: macron
Width: 575
VWidth: 0
GlyphClass: 2
Flags: HMW
LayerCount: 2
Fore
SplineSet
144 649 m 258
 144 675 l 258
 144 691 153 700 169 700 c 258
 407 700 l 258
 423 700 432 691 432 675 c 258
 432 648 l 258
 432 632 423 624 407 624 c 258
 169 624 l 258
 153 624 144 632 144 649 c 258
EndSplineSet
PickledDataWithLists: "(dp0
Vcom.schriftgestaltung.Glyphs.lastChange\\u000d
p1
V2015-12-22 16:32:42 +0000\\u000d
p2
s."
EndChar

StartChar: multiply
Encoding: 215 215 283
GlifName: multiply
Width: 575
VWidth: 0
Flags: HMW
LayerCount: 2
Back
SplineSet
338 262 m 257
 508 44 l 258
 518 31 516 18 503 9 c 258
 477 -10 l 258
 463 -19 451 -17 442 -4 c 258
 288 196 l 257
 134 -4 l 258
 124 -17 112 -19 99 -10 c 258
 73 9 l 258
 59 18 57 31 67 44 c 258
 236 263 l 257
 87 457 l 258
 77 470 79 482 93 492 c 258
 119 510 l 258
 132 519 145 517 154 504 c 258
 287 329 l 257
 421 504 l 258
 431 517 443 519 456 510 c 258
 483 492 l 258
 496 482 498 470 488 457 c 258
 338 262 l 257
EndSplineSet
Fore
SplineSet
469 511 m 262
 488 492 l 262
 499 481 499 467 488 456 c 262
 345 313 l 261
 488 170 l 262
 499 159 499 146 488 135 c 262
 463 110 l 262
 452 99 439 99 428 110 c 262
 285 253 l 261
 142 110 l 262
 131 99 117 99 106 110 c 262
 87 129 l 262
 76 140 76 154 87 165 c 262
 230 308 l 261
 87 451 l 262
 76 462 76 475 87 486 c 262
 112 511 l 262
 123 522 136 522 147 511 c 262
 290 368 l 261
 433 511 l 262
 444 522 458 522 469 511 c 262
EndSplineSet
PickledDataWithLists: "(dp0
Vcom.schriftgestaltung.Glyphs.lastChange\\u000d
p1
V2015-12-22 14:16:31 +0000\\u000d
p2
s."
EndChar

StartChar: n
Encoding: 110 110 284
GlifName: n
Width: 575
VWidth: 0
Flags: HMW
AnchorPoint: "mark-top" 288 500 basechar 0
AnchorPoint: "mark-bottom" 288 0 basechar 0
LayerCount: 2
Fore
SplineSet
89 25 m 258
 89 471 l 258
 89 486 96 495 112 498 c 264
 176 510 245 510 278 510 c 259
 426 510 486 454 486 308 c 258
 486 25 l 258
 486 9 477 0 461 0 c 258
 426 0 l 258
 410 0 401 9 401 25 c 258
 401 308 l 258
 401 402 369 434 278 434 c 259
 254 434 219 433 174 430 c 257
 174 25 l 258
 174 9 165 0 149 0 c 258
 114 0 l 258
 98 0 89 9 89 25 c 258
EndSplineSet
PickledDataWithLists: "(dp0
Vcom.schriftgestaltung.Glyphs.lastChange\\u000d
p1
V2016-06-09 18:35:33 +0000\\u000d
p2
s."
EndChar

StartChar: nine.dnom
Encoding: 65570 -1 288
GlifName: nine.dnom
Width: 250
VWidth: 0
Flags: HMW
LayerCount: 2
Fore
SplineSet
47 18 m 258
 50 32 l 258
 53 44 67 52 79 50 c 257
 92 47 103 46 114 46 c 256
 153 46 184 67 192 152 c 257
 169 146 146 143 125 143 c 256
 59 143 16 186 16 250 c 256
 16 325 58 367 135 367 c 256
 218 367 262 308 262 202 c 256
 262 38 196 -13 114 -13 c 256
 99 -13 82 -12 66 -9 c 257
 53 -6 44 6 47 18 c 258
194 215 m 257
 192 284 171 308 135 308 c 256
 97 308 83 294 83 250 c 256
 83 220 100 202 125 202 c 256
 147 202 168 206 194 215 c 257
  PathStart: -2
EndSplineSet
Validated: 33
PickledDataWithLists: "(dp0
Vcom.schriftgestaltung.Glyphs.Export\\u000d
p1
I0
sVcom.schriftgestaltung.Glyphs.lastChange\\u000d
p2
V2015-12-22 13:07:35 +0000\\u000d
p3
s."
EndChar

StartChar: nine.hex
Encoding: 65571 -1 289
GlifName: nine.hex
Width: 575
VWidth: 0
Flags: HMW
LayerCount: 2
Fore
SplineSet
114 875 m 258
 114 829 l 258
 114 812 105 804 89 804 c 258
 54 804 l 258
 37 804 29 813 29 829 c 258
 29 875 l 258
 29 891 38 900 54 900 c 258
 89 900 l 258
 105 900 114 891 114 875 c 258
546 875 m 258
 546 829 l 258
 546 812 537 804 521 804 c 258
 486 804 l 258
 469 804 461 813 461 829 c 258
 461 875 l 258
 461 891 470 900 486 900 c 258
 521 900 l 258
 537 900 546 891 546 875 c 258
EndSplineSet
Refer: 287 57 N 1 0 0 1 0 0 2
PickledDataWithLists: "(dp0
Vcom.schriftgestaltung.Glyphs.lastChange\\u000d
p1
V2016-02-10 13:40:56 +0000\\u000d
p2
s."
EndChar

StartChar: notequal
Encoding: 8800 8800 291
GlifName: notequal
Width: 575
VWidth: 0
Flags: HMW
LayerCount: 2
Fore
SplineSet
524 352 m 258
 524 336 516 327 499 327 c 258
 361 327 l 257
 285 174 l 257
 499 174 l 258
 516 174 524 165 524 149 c 258
 524 122 l 258
 524 106 516 97 499 97 c 258
 246 97 l 257
 167 -62 l 258
 161 -74 152 -80 138 -80 c 258
 96 -80 l 258
 77 -80 70 -68 78 -51 c 258
 152 97 l 257
 76 97 l 258
 60 97 51 106 51 122 c 258
 51 148 l 258
 51 165 60 174 76 174 c 258
 190 174 l 257
 267 327 l 257
 76 327 l 258
 60 327 51 336 51 352 c 258
 51 378 l 258
 51 395 60 404 76 404 c 258
 305 404 l 257
 384 562 l 258
 390 574 400 580 414 580 c 258
 455 580 l 258
 475 580 482 568 473 551 c 258
 400 404 l 257
 499 404 l 258
 516 404 524 395 524 379 c 258
 524 352 l 258
  PathStart: -2
EndSplineSet
Validated: 33
PickledDataWithLists: "(dp0
Vcom.schriftgestaltung.Glyphs.lastChange\\u000d
p1
V2015-12-22 14:16:56 +0000\\u000d
p2
s."
EndChar

StartChar: numbersign
Encoding: 35 35 294
GlifName: numbersign
Width: 575
VWidth: 0
Flags: HMW
LayerCount: 2
Fore
SplineSet
432 270 m 261
 499 270 l 258
 515 270 524 261 524 245 c 258
 524 218 l 258
 524 202 515 193 499 193 c 258
 432 193 l 261
 432 25 l 262
 432 9 423 0 407 0 c 262
 372 0 l 262
 356 0 347 9 347 25 c 262
 347 193 l 261
 228 193 l 257
 228 25 l 258
 228 9 219 0 203 0 c 258
 168 0 l 258
 152 0 143 9 143 25 c 258
 143 193 l 257
 76 193 l 258
 60 193 51 202 51 218 c 258
 51 245 l 258
 51 261 60 270 76 270 c 258
 143 270 l 257
 143 424 l 257
 76 424 l 258
 60 424 51 433 51 449 c 258
 51 475 l 258
 51 491 60 501 76 501 c 258
 143 501 l 257
 143 675 l 258
 143 691 152 700 168 700 c 258
 203 700 l 258
 219 700 228 691 228 675 c 258
 228 501 l 257
 347 501 l 261
 347 675 l 262
 347 691 356 700 372 700 c 262
 407 700 l 262
 423 700 432 691 432 675 c 262
 432 501 l 261
 499 501 l 258
 515 501 524 492 524 476 c 258
 524 449 l 258
 524 433 515 424 499 424 c 258
 432 424 l 261
 432 270 l 261
228 424 m 257
 228 270 l 257
 347 270 l 261
 347 424 l 261
 228 424 l 257
EndSplineSet
PickledDataWithLists: "(dp0
Vcom.schriftgestaltung.Glyphs.lastChange\\u000d
p1
V2015-12-23 09:14:39 +0000\\u000d
p2
s."
EndChar

StartChar: o
Encoding: 111 111 295
GlifName: o
Width: 575
VWidth: 0
Flags: HMW
AnchorPoint: "mark-top" 288 500 basechar 0
AnchorPoint: "mark-bottom" 288 0 basechar 0
LayerCount: 2
Fore
SplineSet
75 250 m 259
 75 430 181 510 291 510 c 259
 401 510 500 430 500 250 c 259
 500 70 401 -10 291 -10 c 259
 181 -10 75 70 75 250 c 259
160 250 m 259
 160 132 218 66 288 66 c 259
 358 66 415 132 415 250 c 259
 415 368 358 434 288 434 c 259
 218 434 160 368 160 250 c 259
EndSplineSet
PickledDataWithLists: "(dp0
Vcom.schriftgestaltung.Glyphs.lastChange\\u000d
p1
V2016-06-09 18:35:33 +0000\\u000d
p2
s."
EndChar

StartChar: oe
Encoding: 339 339 299
GlifName: oe
Width: 575
VWidth: 0
Flags: HMW
LayerCount: 2
Fore
SplineSet
487 57 m 258
 493 31 l 258
 497 15 490 4 473 1 c 256
 432 -6 403 -10 391 -10 c 256
 352 -10 321 8 299 67 c 257
 277 7 247 -12 210 -12 c 256
 129 -12 85 81 85 250 c 256
 85 419 131 512 216 512 c 256
 250 512 278 494 299 442 c 257
 319 493 348 510 383 510 c 256
 465 510 510 425 510 270 c 258
 510 247 l 258
 510 231 501 222 485 222 c 258
 340 222 l 257
 341 122 359 67 391 67 c 256
 396 67 420 70 457 76 c 256
 473 79 483 73 487 57 c 258
170 250 m 256
 170 131 185 65 212 65 c 256
 240 65 255 131 255 250 c 256
 255 370 240 435 213 435 c 256
 185 435 170 370 170 250 c 256
  PathStart: -2
341 299 m 257
 425 299 l 257
 421 386 406 434 383 434 c 256
 360 434 346 386 341 299 c 257
EndSplineSet
Validated: 33
PickledDataWithLists: "(dp0
Vcom.schriftgestaltung.Glyphs.lastChange\\u000d
p1
V2016-06-09 18:35:34 +0000\\u000d
p2
s."
EndChar

StartChar: ogonek
Encoding: 731 731 300
GlifName: ogonek
Width: 575
VWidth: 0
GlyphClass: 2
Flags: MW
AnchorPoint: "ogonek" 353 5 mark 0
LayerCount: 2
Fore
SplineSet
286 28 m 256
 298 36 307 37 317 34 c 256
 326 30 329 21 325 6 c 256
 321 -14 316 -37 316 -53 c 256
 316 -105 327 -131 345 -152 c 256
 355 -165 356 -176 345 -188 c 258
 324 -211 l 258
 314 -223 301 -224 289 -212 c 256
 255 -177 231 -131 231 -83 c 256
 231 -53 233 -13 286 28 c 256
  PathStart: -2
EndSplineSet
Validated: 33
PickledDataWithLists: "(dp0
Vcom.schriftgestaltung.Glyphs.lastChange\\u000d
p1
V2015-12-22 16:32:43 +0000\\u000d
p2
s."
EndChar

StartChar: omega
Encoding: 969 969 304
GlifName: omega
Width: 575
VWidth: 0
Flags: HMW
LayerCount: 2
Fore
SplineSet
424 453 m 257
 436 484 l 258
 441 498 452 505 467 500 c 257
 521 479 545 425 545 330 c 258
 545 170 l 258
 545 43 501 -10 395 -10 c 256
 343 -10 308 7 288 55 c 257
 267 7 232 -10 180 -10 c 256
 74 -10 30 43 30 170 c 258
 30 330 l 258
 30 425 54 479 108 500 c 257
 123 505 134 498 139 484 c 258
 151 453 l 257
 156 438 150 431 139 421 c 256
 122 406 115 377 115 330 c 258
 115 170 l 258
 115 97 134 67 180 67 c 256
 226 67 245 97 245 170 c 258
 245 305 l 258
 245 321 254 330 270 330 c 258
 305 330 l 258
 321 330 330 321 330 305 c 258
 330 170 l 258
 330 97 349 67 395 67 c 256
 441 67 460 97 460 170 c 258
 460 330 l 258
 460 377 453 406 436 421 c 256
 425 431 419 438 424 453 c 257
EndSplineSet
Validated: 33
PickledDataWithLists: "(dp0
Vcom.schriftgestaltung.Glyphs.lastChange\\u000d
p1
V2015-12-22 12:55:46 +0000\\u000d
p2
s."
EndChar

StartChar: one
Encoding: 49 49 306
GlifName: one
Width: 575
VWidth: 0
Flags: HMW
LayerCount: 2
Fore
SplineSet
362 77 m 257
 465 77 l 258
 481 77 490 68 490 52 c 258
 490 25 l 258
 490 9 481 0 465 0 c 258
 110 0 l 258
 94 0 85 9 85 25 c 258
 85 52 l 258
 85 68 94 77 110 77 c 258
 277 77 l 257
 277 520 l 257
 110 520 l 258
 94 520 85 529 85 545 c 258
 85 572 l 258
 85 588 94 597 110 597 c 259
 208 597 262 618 289 680 c 256
 295 694 304 700 318 700 c 258
 337 700 l 258
 353 700 362 691 362 675 c 258
 362 77 l 257
EndSplineSet
EndChar

StartChar: one.dnom
Encoding: 65573 -1 307
GlifName: one.dnom
Width: 250
VWidth: 0
Flags: HMW
LayerCount: 2
Fore
SplineSet
193 49 m 257
 233 49 l 257
 247 49 257 37 257 26 c 257
 257 13 l 257
 257 2 247 -10 233 -10 c 257
 55 -10 l 257
 41 -10 31 2 31 13 c 257
 31 26 l 257
 31 37 41 49 55 49 c 257
 127 49 l 257
 127 250 l 257
 55 250 l 257
 41 250 31 262 31 273 c 257
 31 286 l 257
 31 297 41 309 55 309 c 257
 102 309 122 316 134 344 c 257
 138 353 147 360 159 360 c 257
 169 360 l 257
 183 360 193 350 193 338 c 257
 193 49 l 257
EndSplineSet
Validated: 1
PickledDataWithLists: "(dp0
Vcom.schriftgestaltung.Glyphs.Export\\u000d
p1
I0
sVcom.schriftgestaltung.Glyphs.lastChange\\u000d
p2
V2015-12-22 13:04:47 +0000\\u000d
p3
s."
EndChar

StartChar: one.hex
Encoding: 65574 -1 308
GlifName: one.hex
Width: 575
VWidth: 0
Flags: HMW
LayerCount: 2
Fore
SplineSet
546 875 m 258
 546 829 l 258
 546 812 537 804 521 804 c 258
 486 804 l 258
 469 804 461 813 461 829 c 258
 461 875 l 258
 461 891 470 900 486 900 c 258
 521 900 l 258
 537 900 546 891 546 875 c 258
EndSplineSet
Refer: 306 49 N 1 0 0 1 0 0 2
PickledDataWithLists: "(dp0
Vcom.schriftgestaltung.Glyphs.lastChange\\u000d
p1
V2016-02-10 13:18:28 +0000\\u000d
p2
s."
EndChar

StartChar: onedotenleader
Encoding: 8228 8228 310
GlifName: onedotenleader
Width: 575
VWidth: 0
Flags: HMW
LayerCount: 2
Fore
SplineSet
210 25 m 258
 210 112 l 258
 210 129 219 137 235 137 c 258
 340 137 l 258
 357 137 365 129 365 112 c 258
 365 25 l 258
 365 9 357 0 340 0 c 258
 235 0 l 258
 219 0 210 9 210 25 c 258
EndSplineSet
Validated: 1
PickledDataWithLists: "(dp0
Vcom.schriftgestaltung.Glyphs.lastChange\\u000d
p1
V2015-12-23 09:15:15 +0000\\u000d
p2
s."
EndChar

StartChar: ordfeminine
Encoding: 170 170 314
GlifName: ordfeminine
Width: 575
VWidth: 0
Flags: HMW
LayerCount: 2
Fore
SplineSet
415 586 m 258
 415 393 l 258
 415 377 406 367 390 365 c 256
 349 360 313 357 281 357 c 256
 194 357 133 400 133 463 c 256
 133 527 194 570 283 570 c 258
 338 570 l 257
 338 586 l 258
 338 634 315 654 261 654 c 256
 241 654 222 651 202 647 c 256
 185 644 172 653 170 668 c 258
 168 686 l 257
 167 703 174 713 189 716 c 256
 218 722 247 725 273 725 c 256
 368 725 415 679 415 586 c 258
338 498 m 257
 283 498 l 258
 239 498 210 483 210 462 c 256
 210 442 239 427 285 427 c 256
 302 427 319 428 338 430 c 257
 338 498 l 257
EndSplineSet
Validated: 33
PickledDataWithLists: "(dp0
Vcom.schriftgestaltung.Glyphs.lastChange\\u000d
p1
V2016-06-09 18:35:34 +0000\\u000d
p2
s."
EndChar

StartChar: ordmasculine
Encoding: 186 186 315
GlifName: ordmasculine
Width: 575
VWidth: 0
Flags: HMW
LayerCount: 2
Fore
SplineSet
143 530 m 259
 143 643 201 715 290 715 c 259
 378 715 433 644 433 530 c 259
 433 416 378 345 290 345 c 259
 201 345 143 417 143 530 c 259
219 530 m 259
 219 459 246 417 288 417 c 259
 330 417 356 458 356 530 c 259
 356 602 330 643 288 643 c 259
 246 643 219 601 219 530 c 259
EndSplineSet
PickledDataWithLists: "(dp0
Vcom.schriftgestaltung.Glyphs.lastChange\\u000d
p1
V2016-06-09 18:35:34 +0000\\u000d
p2
s."
EndChar

StartChar: oslash
Encoding: 248 248 316
GlifName: oslash
Width: 575
VWidth: 0
Flags: HMW
LayerCount: 2
Fore
SplineSet
467 527 m 257
 430 451 l 257
 467 408 490 341 490 250 c 256
 490 70 401 -12 291 -12 c 256
 264 -12 238 -7 213 3 c 257
 177 -72 l 258
 170 -87 160 -92 145 -86 c 258
 112 -73 l 258
 97 -67 91 -55 98 -40 c 258
 144 55 l 257
 108 98 85 162 85 250 c 256
 85 430 181 512 291 512 c 256
 315 512 338 508 359 500 c 257
 388 559 l 258
 396 574 406 579 421 573 c 258
 453 560 l 258
 469 554 475 542 467 527 c 257
288 435 m 256
 218 435 170 368 170 250 c 256
 170 208 176 172 187 144 c 257
 325 428 l 257
 313 433 301 435 288 435 c 256
  PathStart: -2
247 74 m 257
 260 68 273 65 288 65 c 256
 358 65 405 132 405 250 c 256
 405 294 398 331 386 361 c 257
 247 74 l 257
  PathStart: -2
EndSplineSet
PickledDataWithLists: "(dp0
Vcom.schriftgestaltung.Glyphs.lastChange\\u000d
p1
V2016-06-09 18:35:33 +0000\\u000d
p2
s."
EndChar

StartChar: paragraph
Encoding: 182 182 319
GlifName: paragraph
Width: 575
VWidth: 0
Flags: HMW
LayerCount: 2
Fore
SplineSet
250 700 m 258
 310 700 l 258
 327 700 335 692 335 675 c 258
 335 -75 l 258
 335 -91 327 -100 310 -100 c 258
 275 -100 l 258
 259 -100 250 -91 250 -75 c 258
 250 322 l 257
 106 322 59 407 59 511 c 256
 59 615 106 700 250 700 c 258
460 700 m 258
 495 700 l 258
 512 700 520 692 520 675 c 258
 520 -75 l 258
 520 -91 512 -100 495 -100 c 258
 460 -100 l 258
 444 -100 435 -91 435 -75 c 258
 435 675 l 258
 435 691 444 700 460 700 c 258
EndSplineSet
Validated: 1
PickledDataWithLists: "(dp0
Vcom.schriftgestaltung.Glyphs.lastChange\\u000d
p1
V2016-05-30 08:36:51 +0000\\u000d
p2
s."
EndChar

StartChar: parenleft
Encoding: 40 40 320
GlifName: parenleft
Width: 575
VWidth: 0
Flags: HMW
LayerCount: 2
Fore
SplineSet
171 275 m 259
 171 74 288 -75 452 -108 c 256
 468 -111 475 -122 471 -138 c 258
 465 -166 l 258
 462 -182 451 -188 435 -185 c 256
 229 -143 85 37 85 275 c 259
 85 513 229 693 435 735 c 256
 451 738 462 732 465 716 c 258
 471 688 l 258
 475 672 468 661 452 658 c 256
 288 625 171 476 171 275 c 259
  PathStart: -2
EndSplineSet
EndChar

StartChar: parenright
Encoding: 41 41 321
GlifName: parenright
Width: 575
VWidth: 0
Flags: HMW
LayerCount: 2
Fore
SplineSet
104 -138 m 258
 100 -122 107 -111 123 -108 c 256
 287 -75 404 74 404 275 c 259
 404 476 287 625 123 658 c 256
 107 661 100 672 104 688 c 258
 110 716 l 258
 113 732 124 738 140 735 c 256
 346 693 490 513 490 275 c 259
 490 37 346 -143 140 -185 c 256
 124 -188 113 -182 110 -166 c 258
 104 -138 l 258
  PathStart: -2
EndSplineSet
EndChar

StartChar: partialdiff
Encoding: 8706 8706 322
GlifName: partialdiff
Width: 575
VWidth: 0
Flags: HMW
LayerCount: 2
Fore
SplineSet
336 749 m 256
 436 579 490 406 490 260 c 257
 490 86 419 -11 288 -11 c 256
 157 -11 85 75 85 230 c 256
 85 410 167 509 317 510 c 256
 329 511 346 510 365 508 c 257
 340 579 306 650 267 708 c 256
 257 722 260 735 275 743 c 258
 302 758 l 258
 316 766 328 763 336 749 c 256
  PathStart: -2
317 434 m 256
 222 433 170 361 170 230 c 256
 170 129 209 71 281 67 c 256
 360 61 404 129 405 260 c 256
 405 315 399 374 386 428 c 257
 361 432 337 434 317 434 c 256
  PathStart: -2
EndSplineSet
Validated: 33
PickledDataWithLists: "(dp0
Vcom.schriftgestaltung.Glyphs.lastChange\\u000d
p1
V2015-12-22 14:17:42 +0000\\u000d
p2
s."
EndChar

StartChar: percent
Encoding: 37 37 323
GlifName: percent
Width: 575
VWidth: 0
Flags: HMW
LayerCount: 2
Fore
SplineSet
497 534 m 258
 522 509 l 258
 533 498 533 485 522 474 c 258
 113 65 l 258
 102 54 89 54 78 65 c 258
 53 90 l 258
 42 101 42 114 53 125 c 258
 462 534 l 258
 473 545 486 545 497 534 c 258
88 600 m 258
 188 600 l 258
 204 600 213 591 213 575 c 258
 213 485 l 258
 213 469 204 460 188 460 c 258
 88 460 l 258
 72 460 63 469 63 485 c 258
 63 575 l 258
 63 591 72 600 88 600 c 258
387 140 m 258
 487 140 l 258
 503 140 512 131 512 115 c 258
 512 25 l 258
 512 9 503 0 487 0 c 258
 387 0 l 258
 371 0 362 9 362 25 c 258
 362 115 l 258
 362 131 371 140 387 140 c 258
EndSplineSet
PickledDataWithLists: "(dp0
Vcom.schriftgestaltung.Glyphs.lastChange\\u000d
p1
V2015-12-22 14:18:08 +0000\\u000d
p2
s."
EndChar

StartChar: period
Encoding: 46 46 324
GlifName: period
Width: 575
VWidth: 0
Flags: HMW
LayerCount: 2
Fore
SplineSet
237 140 m 258
 337 140 l 258
 353 140 362 131 362 115 c 258
 362 25 l 258
 362 9 353 0 337 0 c 258
 237 0 l 258
 221 0 212 9 212 25 c 258
 212 115 l 258
 212 131 221 140 237 140 c 258
EndSplineSet
PickledDataWithLists: "(dp0
Vcom.schriftgestaltung.Glyphs.lastChange\\u000d
p1
V2015-12-23 09:15:27 +0000\\u000d
p2
s."
EndChar

StartChar: perthousand
Encoding: 8240 8240 326
GlifName: perthousand
Width: 575
VWidth: 0
Flags: HMW
LayerCount: 2
Fore
SplineSet
41 66 m 258
 18 87 l 258
 6 98 5 110 17 122 c 258
 429 534 l 258
 440 545 452 546 464 535 c 258
 488 514 l 258
 500 503 500 490 489 479 c 258
 76 66 l 258
 65 55 53 55 41 66 c 258
88 600 m 258
 188 600 l 258
 204 600 213 592 213 575 c 258
 213 485 l 258
 213 469 204 460 188 460 c 258
 88 460 l 258
 72 460 63 469 63 485 c 258
 63 575 l 258
 63 592 71 600 88 600 c 258
253 140 m 258
 328 140 l 258
 344 140 353 132 353 115 c 258
 353 25 l 258
 353 9 344 0 328 0 c 258
 253 0 l 258
 237 0 228 9 228 25 c 258
 228 115 l 258
 228 132 236 140 253 140 c 258
458 140 m 258
 533 140 l 258
 549 140 558 132 558 115 c 258
 558 25 l 258
 558 9 549 0 533 0 c 258
 458 0 l 258
 442 0 433 9 433 25 c 258
 433 115 l 258
 433 132 441 140 458 140 c 258
EndSplineSet
Validated: 33
PickledDataWithLists: "(dp0
Vcom.schriftgestaltung.Glyphs.lastChange\\u000d
p1
V2015-12-22 14:18:32 +0000\\u000d
p2
s."
EndChar

StartChar: phi
Encoding: 966 966 327
GlifName: phi
Width: 575
VWidth: 0
Flags: HMW
LayerCount: 2
Fore
SplineSet
246 330 m 258
 246 457 290 510 395 510 c 256
 498 510 540 457 540 330 c 258
 540 210 l 258
 540 61 479 0 330 0 c 257
 330 -96 l 258
 330 -113 322 -121 305 -121 c 258
 270 -121 l 258
 254 -121 245 -113 245 -96 c 258
 245 0 l 257
 96 0 35 61 35 210 c 258
 35 395 l 258
 35 412 44 420 60 420 c 258
 95 420 l 258
 112 420 120 412 120 395 c 258
 120 210 l 258
 120 116 156 77 245 77 c 257
 246 330 l 258
  PathStart: -2
455 210 m 258
 455 330 l 258
 455 403 437 433 395 433 c 256
 349 433 330 404 330 333 c 258
 330 77 l 257
 419 77 455 116 455 210 c 258
EndSplineSet
Validated: 1
PickledDataWithLists: "(dp0
Vcom.schriftgestaltung.Glyphs.lastChange\\u000d
p1
V2015-12-22 12:48:44 +0000\\u000d
p2
s."
EndChar

StartChar: pi
Encoding: 960 960 328
GlifName: pi
Width: 575
VWidth: 0
Flags: HMW
LayerCount: 2
Fore
SplineSet
140 424 m 257
 95 424 l 258
 79 424 70 432 70 449 c 258
 70 475 l 258
 70 492 79 500 95 500 c 258
 480 500 l 258
 497 500 505 492 505 475 c 258
 505 449 l 258
 505 432 497 424 480 423 c 257
 435 423 l 257
 435 220 l 257
 435 135 435 80 459 23 c 256
 465 9 457 0 440 0 c 258
 405 0 l 258
 389 0 380 9 374 23 c 256
 350 80 350 135 350 220 c 257
 350 423 l 257
 225 423 l 257
 225 25 l 258
 225 9 217 0 200 0 c 258
 165 0 l 258
 149 0 140 9 140 25 c 258
 140 424 l 257
EndSplineSet
Validated: 1
PickledDataWithLists: "(dp0
Vcom.schriftgestaltung.Glyphs.lastChange\\u000d
p1
V2015-12-22 16:32:58 +0000\\u000d
p2
s."
EndChar

StartChar: plus
Encoding: 43 43 329
GlifName: plus
Width: 575
VWidth: 0
Flags: HMW
LayerCount: 2
Fore
SplineSet
524 324 m 258
 524 297 l 258
 524 281 515 272 499 272 c 258
 330 272 l 257
 330 96 l 258
 330 80 321 71 305 71 c 258
 270 71 l 258
 254 71 245 80 245 96 c 258
 245 272 l 257
 76 272 l 258
 60 272 51 281 51 297 c 258
 51 324 l 258
 51 340 60 349 76 349 c 258
 245 349 l 257
 245 525 l 258
 245 541 254 550 270 550 c 258
 305 550 l 258
 321 550 330 541 330 525 c 258
 330 349 l 257
 499 349 l 258
 515 349 524 340 524 324 c 258
EndSplineSet
PickledDataWithLists: "(dp0
Vcom.schriftgestaltung.Glyphs.lastChange\\u000d
p1
V2015-12-22 14:19:00 +0000\\u000d
p2
s."
EndChar

StartChar: plusminus
Encoding: 177 177 330
GlifName: plusminus
Width: 575
VWidth: 0
Flags: HMW
LayerCount: 2
Fore
SplineSet
330 452 m 257
 499 452 l 258
 516 452 524 443 524 427 c 258
 524 400 l 258
 524 384 516 375 499 375 c 258
 330 375 l 257
 330 202 l 258
 330 185 322 177 305 177 c 258
 270 177 l 258
 254 177 245 186 245 202 c 258
 245 375 l 257
 76 375 l 258
 60 375 51 384 51 400 c 258
 51 426 l 258
 51 443 60 452 76 452 c 258
 245 452 l 257
 245 625 l 258
 245 641 254 650 270 650 c 258
 305 650 l 258
 322 650 330 641 330 625 c 258
 330 452 l 257
51 25 m 258
 51 52 l 258
 51 68 60 77 76 77 c 258
 499 77 l 258
 516 77 524 68 524 52 c 258
 524 25 l 258
 524 9 516 0 499 0 c 258
 76 0 l 258
 60 0 51 9 51 25 c 258
EndSplineSet
Validated: 1
PickledDataWithLists: "(dp0
Vcom.schriftgestaltung.Glyphs.lastChange\\u000d
p1
V2015-12-22 14:19:26 +0000\\u000d
p2
s."
EndChar

StartChar: product
Encoding: 8719 8719 331
GlifName: product
Width: 575
VWidth: 0
Flags: HMW
LayerCount: 2
Fore
SplineSet
77 699 m 258
 500 699 l 258
 516 699 525 690 525 674 c 258
 525 647 l 258
 525 631 516 622 500 622 c 258
 455 622 l 257
 455 -58 l 258
 455 -74 447 -83 430 -83 c 258
 395 -83 l 258
 379 -83 370 -74 370 -58 c 258
 370 622 l 257
 205 622 l 257
 205 -58 l 258
 205 -74 197 -83 180 -83 c 258
 145 -83 l 258
 129 -83 120 -74 120 -58 c 258
 120 622 l 257
 77 622 l 258
 61 622 52 631 52 647 c 258
 52 673 l 258
 52 690 61 699 77 699 c 258
EndSplineSet
Validated: 1
PickledDataWithLists: "(dp0
Vcom.schriftgestaltung.Glyphs.lastChange\\u000d
p1
V2015-12-22 14:19:57 +0000\\u000d
p2
s."
EndChar

StartChar: psi
Encoding: 968 968 332
GlifName: psi
Width: 575
VWidth: 0
Flags: HMW
LayerCount: 2
Fore
SplineSet
480 500 m 258
 515 500 l 258
 532 500 540 492 540 475 c 258
 540 210 l 258
 540 61 479 0 330 0 c 257
 330 -96 l 258
 330 -113 322 -121 305 -121 c 258
 270 -121 l 258
 254 -121 245 -113 245 -96 c 258
 245 0 l 257
 96 0 35 61 35 210 c 258
 35 475 l 258
 35 492 44 500 60 500 c 258
 95 500 l 258
 112 500 120 492 120 475 c 258
 120 210 l 258
 120 116 156 77 245 77 c 257
 245 475 l 258
 245 492 254 500 270 500 c 258
 305 500 l 258
 322 500 330 492 330 475 c 258
 330 77 l 257
 419 77 455 116 455 210 c 258
 455 475 l 258
 455 492 464 500 480 500 c 258
EndSplineSet
Validated: 1
PickledDataWithLists: "(dp0
Vcom.schriftgestaltung.Glyphs.lastChange\\u000d
p1
V2015-12-22 12:55:00 +0000\\u000d
p2
s."
EndChar

StartChar: question
Encoding: 63 63 334
GlifName: question
Width: 575
VWidth: 0
Flags: HMW
LayerCount: 2
Fore
SplineSet
243 72 m 258
 243 25 l 258
 243 9 234 0 218 0 c 258
 183 0 l 258
 167 0 158 9 158 25 c 258
 158 72 l 258
 158 88 167 97 183 97 c 258
 218 97 l 258
 234 97 243 88 243 72 c 258
65 651 m 258
 65 675 l 258
 65 691 74 700 90 700 c 259
 377.006968557 700 500 593 500 495 c 259
 500 392 402 327 244 327 c 258
 243 327 l 257
 243 230 l 258
 243 214 234 205 218 205 c 262
 183 205 l 258
 167 205 158 214 158 230 c 258
 158 376 l 258
 158 392 167 401 183 401 c 258
 244 401 l 258
 349 401 414 437 414 495 c 259
 414 574 289 625 90 626 c 256
 74 626 65 635 65 651 c 258
EndSplineSet
EndChar

StartChar: quotedbl
Encoding: 34 34 336
GlifName: quotedbl
Width: 575
VWidth: 0
Flags: HMW
LayerCount: 2
Fore
SplineSet
146 750 m 258
 201 750 l 258
 217 750 227 740 226 724 c 258
 213 437 l 258
 212 421 204 413 188 413 c 258
 159 413 l 258
 143 413 135 421 134 437 c 258
 121 724 l 258
 120 740 130 750 146 750 c 258
374 750 m 258
 429 750 l 258
 445 750 455 740 454 724 c 258
 441 437 l 258
 440 421 432 413 416 413 c 258
 387 413 l 258
 371 413 363 421 362 437 c 258
 349 724 l 258
 348 740 358 750 374 750 c 258
EndSplineSet
PickledDataWithLists: "(dp0
Vcom.schriftgestaltung.Glyphs.lastChange\\u000d
p1
V2015-12-23 09:18:16 +0000\\u000d
p2
s."
EndChar

StartChar: quotesinglbase
Encoding: 8218 8218 343
GlifName: quotesinglbase
Width: 575
VWidth: 0
Flags: HMW
LayerCount: 2
Fore
SplineSet
248 115 m 258
 328 115 l 258
 344 115 353 107 353 90 c 258
 353 -2 l 258
 353 -111 324 -207 228 -207 c 256
 212 -207 203 -199 203 -183 c 258
 203 -156 l 258
 203 -140 211 -131 227 -131 c 256
 266 -131 274 -75 273 0 c 257
 248 0 l 258
 232 0 223 9 223 25 c 258
 223 90 l 258
 223 107 231 115 248 115 c 258
EndSplineSet
Validated: 33
PickledDataWithLists: "(dp0
Vcom.schriftgestaltung.Glyphs.lastChange\\u000d
p1
V2015-12-22 14:00:50 +0000\\u000d
p2
s."
EndChar

StartChar: quotesingle
Encoding: 39 39 344
GlifName: quotesingle
Width: 575
VWidth: 0
Flags: HMW
LayerCount: 2
Fore
SplineSet
260 750 m 258
 315 750 l 258
 331 750 341 740 340 724 c 258
 327 437 l 258
 326 421 318 413 302 413 c 258
 273 413 l 258
 257 413 249 421 248 437 c 258
 235 724 l 258
 234 740 244 750 260 750 c 258
EndSplineSet
PickledDataWithLists: "(dp0
Vcom.schriftgestaltung.Glyphs.lastChange\\u000d
p1
V2015-12-22 13:46:53 +0000\\u000d
p2
s."
EndChar

StartChar: r
Encoding: 114 114 345
GlifName: r
Width: 575
VWidth: 0
Flags: HMW
AnchorPoint: "mark-top" 288 500 basechar 0
AnchorPoint: "mark-bottom" 288 0 basechar 0
LayerCount: 2
Fore
SplineSet
89 25 m 258
 89 471 l 258
 89 486 96 495 112 498 c 264
 176 510 245 510 278 510 c 259
 426 510 486 470 486 353 c 258
 486 348 l 258
 486 332 477 323 461 323 c 258
 426 323 l 258
 410 323 401 332 401 348 c 258
 401 353 l 258
 401 409 369 434 278 434 c 259
 254 434 219 433 174 430 c 257
 174 25 l 258
 174 9 165 0 149 0 c 258
 114 0 l 258
 98 0 89 9 89 25 c 258
EndSplineSet
PickledDataWithLists: "(dp0
Vcom.schriftgestaltung.Glyphs.lastChange\\u000d
p1
V2016-06-09 18:35:34 +0000\\u000d
p2
s."
EndChar

StartChar: radical
Encoding: 8730 8730 347
GlifName: radical
Width: 575
VWidth: 0
Flags: HMW
LayerCount: 2
Fore
SplineSet
382 701 m 258
 512 701 l 258
 529 701 537 692 537 676 c 258
 537 649 l 258
 537 632 529 624 512 624 c 258
 418 624 l 257
 302 23 l 258
 299 8 290 0 275 0 c 258
 255 0 l 258
 241 0 232 6 226 19 c 258
 108 273 l 257
 56 273 l 258
 39 273 31 282 31 298 c 258
 31 325 l 258
 31 342 40 350 56 350 c 258
 129 350 l 258
 143 350 152 344 158 331 c 258
 259 107 l 257
 355 678 l 258
 358 693 367 701 382 701 c 258
EndSplineSet
Validated: 1
PickledDataWithLists: "(dp0
Vcom.schriftgestaltung.Glyphs.lastChange\\u000d
p1
V2015-12-22 14:20:21 +0000\\u000d
p2
s."
EndChar

StartChar: registered
Encoding: 174 174 349
GlifName: registered
Width: 575
VWidth: 0
Flags: HMW
LayerCount: 2
Fore
SplineSet
288 637 m 256
 356 637 425 609 473 561 c 256
 522 512 550 444 550 375 c 256
 550 307 522 238 473 190 c 256
 425 141 356 113 288 113 c 256
 219 113 151 141 102 190 c 256
 54 238 26 307 26 375 c 256
 26 444 54 512 102 561 c 256
 151 609 219 637 288 637 c 256
  PathStart: -2
288 176 m 256
 340 176 392 197 429 234 c 256
 466 271 487 323 487 375 c 256
 487 427 466 479 429 516 c 256
 392 553 340 575 288 575 c 256
 236 575 184 553 147 516 c 256
 110 479 88 427 88 375 c 256
 88 323 110 271 147 234 c 256
 184 197 236 176 288 176 c 256
  PathStart: -2
206 500 m 257
 307 500 l 257
 320 500 332 500 345 498 c 256
 357 496 369 492 379 485 c 256
 390 478 398 469 404 458 c 256
 410 447 414 435 414 422 c 256
 414 410 410 397 404 386 c 256
 398 376 390 366 379 359 c 256
 370 353 359 349 348 347 c 257
 398 281 l 258
 411 264 404 250 383 250 c 258
 362 250 l 258
 349 250 340 255 332 265 c 258
 272 344 l 257
 243 344 l 257
 243 275 l 258
 243 259 235 250 218 250 c 258
 206 250 l 258
 190 250 181 259 181 275 c 258
 181 475 l 258
 181 492 190 500 206 500 c 257
243 407 m 257
 317 407 l 258
 329 407 352 407 351 422 c 256
 351 435 328 438 317 438 c 258
 243 438 l 257
 243 407 l 257
EndSplineSet
Validated: 33
PickledDataWithLists: "(dp0
Vcom.schriftgestaltung.Glyphs.lastChange\\u000d
p1
V2015-12-22 14:24:37 +0000\\u000d
p2
s."
EndChar

StartChar: rho
Encoding: 961 961 350
GlifName: rho
Width: 575
VWidth: 0
Flags: HMW
LayerCount: 2
Fore
SplineSet
85 -225 m 258
 85 240 l 258
 85 445 145 512 289 512 c 256
 431 512 490 436 490 252 c 256
 490 67 426 -9 259 -9 c 256
 239 -9 208 -8 170 -4 c 257
 170 -225 l 258
 170 -241 161 -250 145 -250 c 258
 110 -250 l 258
 94 -250 85 -241 85 -225 c 258
170 240 m 258
 170 72 l 257
 207 69 239 68 259 68 c 256
 371 68 405 117 405 252 c 256
 405 382 371 435 289 435 c 256
 205 435 170 391 170 240 c 258
EndSplineSet
Validated: 1
PickledDataWithLists: "(dp0
Vcom.schriftgestaltung.Glyphs.lastChange\\u000d
p1
V2015-12-22 12:46:09 +0000\\u000d
p2
s."
EndChar

StartChar: ring
Encoding: 730 730 351
GlifName: ring
Width: 575
VWidth: 0
GlyphClass: 2
Flags: HMW
AnchorPoint: "top" 288 500 mark 0
LayerCount: 2
Fore
SplineSet
288 508 m 256
 221 508 179 545 179 604 c 256
 179 663 221 700 288 700 c 256
 355 700 397 663 397 604 c 256
 397 545 355 508 288 508 c 256
  PathStart: -2
288 569 m 256
 308 569 320 583 320 604 c 256
 320 626 308 639 288 639 c 256
 268 639 255 626 255 604 c 256
 255 583 268 569 288 569 c 256
  PathStart: -2
EndSplineSet
Validated: 1
PickledDataWithLists: "(dp0
Vcom.schriftgestaltung.Glyphs.lastChange\\u000d
p1
V2015-12-22 16:32:43 +0000\\u000d
p2
s."
EndChar

StartChar: rtblock
Encoding: 9616 9616 352
GlifName: rtblock
Width: 575
VWidth: 0
Flags: HMW
LayerCount: 2
Fore
SplineSet
287 -250 m 257
 287 900 l 257
 575 900 l 257
 575 -250 l 257
 287 -250 l 257
EndSplineSet
Validated: 1
PickledDataWithLists: "(dp0
Vcom.schriftgestaltung.Glyphs.lastChange\\u000d
p1
V2016-06-10 08:26:49 +0000\\u000d
p2
s."
EndChar

StartChar: s
Encoding: 115 115 353
GlifName: s
Width: 575
VWidth: 0
Flags: HMW
AnchorPoint: "mark-top" 288 500 basechar 0
AnchorPoint: "mark-bottom" 288 0 basechar 0
LayerCount: 2
Back
SplineSet
436 469 m 258
 429 443 l 258
 425 428 415 422 399 425 c 256
 356 432 326 435 299 434 c 256
 239 432 191 410 191 371 c 256
 191 337 227 307 293 299 c 256
 417 284 469 221 469 146 c 256
 469 55 395 -10 259 -10 c 256
 227 -10 180 -8 124 1 c 256
 107 4 100 15 104 31 c 258
 110 57 l 257
 113 73 123 79 139 77 c 257
 191 68 236 67 259 67 c 256
 340 67 383 100 384 144 c 256
 385 179 359 215 283 222 c 256
 169 233 106 296 106 371 c 256
 106 449 174 510 299 510 c 256
 325 510 369 508 417 499 c 256
 433 496 440 485 436 469 c 258
EndSplineSet
Fore
SplineSet
436 469 m 258
 429 443 l 258
 425 428 415 422 399 425 c 256
 356 432 326.018512172 434 299 434 c 259
 238.966675921 434 191 410 191 371 c 259
 191 255 469 347 469 146 c 259
 469 55 395 -10 259 -10 c 259
 227 -10 180 -8 124 1 c 256
 107 4 100 15 104 31 c 258
 110 57 l 257
 113 73 123 79 139 77 c 257
 191 68 236 67 259 67 c 259
 340 67 384 99.9886378307 384 144 c 259
 384 269.103261723 106 174.876301266 106 371 c 259
 106 449 174 510 299 510 c 259
 325 510 369 508 417 499 c 256
 433 496 440 485 436 469 c 258
EndSplineSet
EndChar

StartChar: section
Encoding: 167 167 358
GlifName: section
Width: 575
VWidth: 0
Flags: HMW
LayerCount: 2
Fore
SplineSet
469 321 m 259
 469 269 439 232 382 212 c 257
 439 178 469 132 469 76 c 259
 469 -19 398 -70 267 -70 c 259
 241 -70 182 -68 134 -59 c 256
 117 -56 111 -45 115 -29 c 258
 121 -3 l 258
 125 13 136 19 152 16 c 256
 194 8 247 7 267 7 c 259
 343.006578663 7 384 32 384 73 c 259
 384 116 347 151 278 172 c 256
 152 210 106 250 106 320 c 259
 106 372 136 408 194 428 c 257
 137 462 106 509 106 564 c 259
 106 659 174 710 299 710 c 259
 325 710 369 708 417 699 c 256
 433 696 440 685 436 669 c 258
 429 643 l 258
 425 628 415 622 399 625 c 256
 356 632 318 634 299 634 c 259
 228.9714344 634 191 609 191 568 c 259
 191 524 229 489 298 469 c 256
 423 430 469 391 469 321 c 259
  PathStart: -2
254 400 m 257
 213 386 191 364 191 335 c 259
 191 294 219 271 298 248 c 258
 317 242 l 257
 361 256 384 278 384 306 c 259
 384 346.012498047 356 369 278 392 c 257
 270 394 262 397 254 400 c 257
  PathStart: -2
EndSplineSet
EndChar

StartChar: semicolon
Encoding: 59 59 359
GlifName: semicolon
Width: 575
VWidth: 0
Flags: HMW
LayerCount: 2
Fore
SplineSet
362 -2 m 273
 362 -181 296 -247 117 -247 c 259
 101 -247 92 -238 92 -222 c 258
 92 -196 l 258
 92 -180 101 -171 117 -171 c 259
 235 -171 278 -124 277 0 c 265
 237 0 l 258
 221 0 212 9 212 25 c 258
 212 115 l 258
 212 131 221 140 237 140 c 258
 337 140 l 258
 353 140 362 131 362 115 c 258
 362 -2 l 273
237 550 m 258
 337 550 l 258
 353 550 362 541 362 525 c 258
 362 435 l 258
 362 419 353 410 337 410 c 258
 237 410 l 258
 221 410 212 419 212 435 c 258
 212 525 l 258
 212 541 221 550 237 550 c 258
EndSplineSet
PickledDataWithLists: "(dp0
Vcom.schriftgestaltung.Glyphs.lastChange\\u000d
p1
V2015-12-23 09:18:29 +0000\\u000d
p2
s."
EndChar

StartChar: seven
Encoding: 55 55 360
GlifName: seven
Width: 575
VWidth: 0
Flags: HMW
LayerCount: 2
Fore
SplineSet
110 700 m 258
 490 700 l 258
 506 700 515 691 515 675 c 258
 515 626 l 258
 515 572 503 528 470 465 c 258
 372 280 l 258
 326 191 302 103 302 25 c 259
 302 9 294 0 277 0 c 258
 242 0 l 258
 225 0 217 9 217 25 c 259
 217 104 245 202 299 312 c 258
 389 492 l 258
 419 552 430 587 430 624 c 257
 170 624 l 257
 170 518 l 258
 170 502 161 493 145 493 c 258
 110 493 l 258
 94 493 85 502 85 518 c 258
 85 675 l 258
 85 691 94 700 110 700 c 258
EndSplineSet
EndChar

StartChar: seven.dnom
Encoding: 65576 -1 361
GlifName: seven.dnom
Width: 250
VWidth: 0
Flags: HMW
LayerCount: 2
Fore
SplineSet
55 360 m 257
 246 360 l 257
 260 360 270 350 270 338 c 257
 270 313 l 257
 270 285 263 261 246 228 c 257
 197 135 l 257
 174 93 163 51 163 12 c 257
 163 0 153 -10 138 -10 c 257
 121 -10 l 257
 107 -10 97 0 97 12 c 257
 97 54 112 104 139 160 c 257
 184 250 l 257
 196 273 201 288 202 302 c 257
 97 302 l 257
 97 259 l 257
 97 247 87 237 73 237 c 257
 55 237 l 257
 41 237 31 247 31 259 c 257
 31 338 l 257
 31 350 41 360 55 360 c 257
EndSplineSet
Validated: 1
PickledDataWithLists: "(dp0
Vcom.schriftgestaltung.Glyphs.Export\\u000d
p1
I0
sVcom.schriftgestaltung.Glyphs.lastChange\\u000d
p2
V2015-12-22 13:07:01 +0000\\u000d
p3
s."
EndChar

StartChar: seven.hex
Encoding: 65577 -1 362
GlifName: seven.hex
Width: 575
VWidth: 0
Flags: HMW
LayerCount: 2
Fore
SplineSet
258 875 m 258
 258 829 l 258
 258 812 249 804 233 804 c 258
 198 804 l 258
 181 804 173 813 173 829 c 258
 173 875 l 258
 173 891 182 900 198 900 c 258
 233 900 l 258
 249 900 258 891 258 875 c 258
402 875 m 258
 402 829 l 258
 402 812 393 804 377 804 c 258
 342 804 l 258
 325 804 317 813 317 829 c 258
 317 875 l 258
 317 891 326 900 342 900 c 258
 377 900 l 258
 393 900 402 891 402 875 c 258
546 875 m 258
 546 829 l 258
 546 812 537 804 521 804 c 258
 486 804 l 258
 469 804 461 813 461 829 c 258
 461 875 l 258
 461 891 470 900 486 900 c 258
 521 900 l 258
 537 900 546 891 546 875 c 258
EndSplineSet
Refer: 360 55 N 1 0 0 1 0 0 2
PickledDataWithLists: "(dp0
Vcom.schriftgestaltung.Glyphs.lastChange\\u000d
p1
V2016-02-10 13:21:27 +0000\\u000d
p2
s."
EndChar

StartChar: shade
Encoding: 9618 9618 365
GlifName: shade
Width: 575
VWidth: 0
Flags: HMW
LayerCount: 2
Fore
SplineSet
0 -250 m 257
 0 -194 l 257
 28 -250 l 257
 0 -250 l 257
143 -250 m 257
 0 36 l 257
 0 92 l 257
 171 -250 l 257
 143 -250 l 257
286 -250 m 257
 0 322 l 257
 0 378 l 257
 314 -250 l 257
 286 -250 l 257
429 -250 m 257
 0 608 l 257
 0 664 l 257
 457 -250 l 257
 429 -250 l 257
575 -250 m 257
 0 900 l 257
 28 900 l 257
 575 -194 l 257
 575 -250 l 257
575 36 m 257
 143 900 l 257
 171 900 l 257
 575 92 l 257
 575 36 l 257
575 322 m 257
 286 900 l 257
 314 900 l 257
 575 378 l 257
 575 322 l 257
575 608 m 257
 429 900 l 257
 457 900 l 257
 575 664 l 257
 575 608 l 257
EndSplineSet
Validated: 1
PickledDataWithLists: "(dp0
Vcom.schriftgestaltung.Glyphs.lastChange\\u000d
p1
V2016-06-10 08:26:49 +0000\\u000d
p2
s."
EndChar

StartChar: sigma
Encoding: 963 963 366
GlifName: sigma
Width: 575
VWidth: 0
Flags: HMW
LayerCount: 2
Fore
SplineSet
505 423 m 258
 457 423 l 257
 492 361 510 298 510 241 c 256
 510 72 434 -15 285 -15 c 256
 149 -15 65 88 65 253 c 256
 65 406 149 500 315 500 c 258
 505 500 l 258
 521 500 530 491 530 475 c 258
 530 448 l 258
 530 432 521 423 505 423 c 258
369 423 m 257
 315 423 l 258
 202 423 150 358 150 253 c 256
 150 135 202 62 285 62 c 256
 378 62 425 123 425 243 c 256
 425 302 406 363 369 423 c 257
EndSplineSet
Validated: 1
PickledDataWithLists: "(dp0
Vcom.schriftgestaltung.Glyphs.lastChange\\u000d
p1
V2015-12-22 12:47:01 +0000\\u000d
p2
s."
EndChar

StartChar: six
Encoding: 54 54 367
GlifName: six
Width: 575
VWidth: 0
Flags: HMW
LayerCount: 2
Fore
SplineSet
435 672 m 258
 429 644 l 258
 425 629 415 622 399 625 c 256
 372 630 349 632 332 632 c 259
 252 632 162 586 144 402 c 257
 198 419 243 429 285 429 c 259
 402 429 496 349 496 220 c 259
 496 78 411 -10 283 -10 c 259
 141 -10 53 95 53 326 c 259
 53 571 161 710 330 710 c 259
 354 710 384 707 415 702 c 256
 431 699 438 688 435 672 c 258
139 317 m 257
 139 134 208 68 286 68 c 259
 354 68 410 118 410 220 c 259
 410 301 359 351 281 351 c 259
 253 351 201 349 139 317 c 257
EndSplineSet
EndChar

StartChar: six.dnom
Encoding: 65579 -1 368
GlifName: six.dnom
Width: 250
VWidth: 0
Flags: HMW
LayerCount: 2
Fore
SplineSet
231 334 m 257
 228 319 l 257
 225 310 212 300 198 303 c 257
 185 305 175 306 164 306 c 256
 124 306 93 286 85 200 c 257
 107 206 131 210 152 210 c 256
 218 210 261 167 261 103 c 256
 261 29 219 -15 143 -15 c 256
 60 -15 16 45 16 150 c 256
 16 315 82 365 164 365 c 256
 178 365 195 364 210 361 c 257
 225 359 232 345 231 334 c 257
83 137 m 257
 85 68 106 44 143 44 c 256
 180 44 194 58 194 103 c 256
 194 133 178 151 152 151 c 256
 131 151 109 146 83 137 c 257
  PathStart: -2
EndSplineSet
Validated: 33
PickledDataWithLists: "(dp0
Vcom.schriftgestaltung.Glyphs.Export\\u000d
p1
I0
sVcom.schriftgestaltung.Glyphs.lastChange\\u000d
p2
V2015-12-22 13:06:37 +0000\\u000d
p3
s."
EndChar

StartChar: six.hex
Encoding: 65580 -1 369
GlifName: six.hex
Width: 575
VWidth: 0
Flags: HMW
LayerCount: 2
Fore
SplineSet
258 875 m 258
 258 829 l 258
 258 812 249 804 233 804 c 258
 198 804 l 258
 181 804 173 813 173 829 c 258
 173 875 l 258
 173 891 182 900 198 900 c 258
 233 900 l 258
 249 900 258 891 258 875 c 258
402 875 m 258
 402 829 l 258
 402 812 393 804 377 804 c 258
 342 804 l 258
 325 804 317 813 317 829 c 258
 317 875 l 258
 317 891 326 900 342 900 c 258
 377 900 l 258
 393 900 402 891 402 875 c 258
EndSplineSet
Refer: 367 54 N 1 0 0 1 0 0 2
PickledDataWithLists: "(dp0
Vcom.schriftgestaltung.Glyphs.lastChange\\u000d
p1
V2016-02-10 13:21:08 +0000\\u000d
p2
s."
EndChar

StartChar: sterling
Encoding: 163 163 373
GlifName: sterling
Width: 575
VWidth: 0
Flags: HMW
LayerCount: 2
Fore
SplineSet
465 518 m 258
 430 518 l 258
 414 518 405 528 405 544 c 259
 405 588.01 384 634 327 634 c 259
 282 634 249 600 249 538 c 258
 249 389 l 257
 425 389 l 258
 441 389 450 380 450 364 c 258
 450 337 l 258
 450 321 441 312 425 312 c 258
 249 312 l 257
 249 77 l 257
 465 77 l 258
 481 77 490 68 490 52 c 258
 490 25 l 258
 490 9 481 0 465 0 c 258
 110 0 l 258
 94 0 85 9 85 25 c 258
 85 52 l 258
 85 68 94 77 110 77 c 258
 164 77 l 257
 164 312 l 257
 110 312 l 258
 94 312 85 321 85 337 c 258
 85 363 l 258
 85 379 94 389 110 389 c 258
 164 389 l 257
 164 538 l 258
 164 664 235 710 327 710 c 259
 447 710 490 631.01 490 544 c 259
 490 528 481 518 465 518 c 258
EndSplineSet
PickledDataWithLists: "(dp0
Vcom.schriftgestaltung.Glyphs.lastChange\\u000d
p1
V2015-12-22 14:04:47 +0000\\u000d
p2
s."
EndChar

StartChar: summation
Encoding: 8721 8721 374
GlifName: summation
Width: 575
VWidth: 0
Flags: HMW
LayerCount: 2
Fore
SplineSet
525 674 m 257
 525 647 l 257
 525 631 516 622 500 622 c 258
 173 622 l 257
 429 367 l 258
 441 356 441 344 429 332 c 258
 173 77 l 257
 500 77 l 258
 516 77 525 68 525 52 c 258
 525 25 l 258
 525 9 516 0 500 0 c 258
 77 0 l 258
 61 0 52 9 52 26 c 258
 52 43 l 258
 52 57 54 65 61 73 c 257
 337 349 l 257
 61 626 l 257
 54 634 52 642 52 656 c 258
 52 673 l 258
 52 690 61 699 77 699 c 258
 500 699 l 258
 516 699 525 690 525 674 c 257
EndSplineSet
Validated: 33
PickledDataWithLists: "(dp0
Vcom.schriftgestaltung.Glyphs.lastChange\\u000d
p1
V2015-12-22 12:21:09 +0000\\u000d
p2
s."
EndChar

StartChar: t
Encoding: 116 116 375
GlifName: t
Width: 575
VWidth: 0
Flags: HMW
AnchorPoint: "mark-topright" 440 700 basechar 0
AnchorPoint: "mark-bottom" 288 0 basechar 0
LayerCount: 2
Fore
SplineSet
476 68 m 257
 487 42 l 258
 493 27 489 15 473 10 c 257
 440 -2 403 -10 368 -10 c 259
 273 -10 186 43 186 204 c 258
 186 424 l 257
 110 424 l 258
 94 424 85 433 85 449 c 258
 85 475 l 258
 85 491 94 500 110 500 c 258
 186 500 l 257
 186 635 l 258
 186 651 195 660 211 660 c 258
 246 660 l 258
 262 660 271 651 271 635 c 258
 271 500 l 257
 435 500 l 258
 451 500 460 491 460 475 c 258
 460 449 l 258
 460 433 451 424 435 424 c 258
 271 424 l 257
 271 204 l 258
 271 96 310 68 368 68 c 259
 393 68 416 72 443 82 c 256
 458 88 469 83 476 68 c 257
EndSplineSet
EndChar

StartChar: tau
Encoding: 964 964 376
GlifName: tau
Width: 575
VWidth: 0
Flags: HMW
LayerCount: 2
Fore
SplineSet
506 57 m 257
 514 31 l 257
 520 16 514 4 497 0 c 256
 460 -9 429 -10 409 -10 c 256
 295 -10 245 40 245 150 c 258
 245 424 l 257
 95 424 l 258
 79 424 70 432 70 449 c 258
 70 475 l 258
 70 492 79 500 95 500 c 257
 480 500 l 257
 497 500 505 492 505 475 c 258
 505 449 l 258
 505 432 497 424 480 423 c 257
 330 423 l 257
 330 150 l 258
 330 91 349 68 409 67 c 256
 425 67 449 68 474 74 c 257
 490 77 500 72 506 57 c 257
EndSplineSet
Validated: 33
PickledDataWithLists: "(dp0
Vcom.schriftgestaltung.Glyphs.lastChange\\u000d
p1
V2016-05-30 08:33:06 +0000\\u000d
p2
s."
EndChar

StartChar: tbar
Encoding: 359 359 377
GlifName: tbar
Width: 575
VWidth: 0
Flags: HMW
AnchorPoint: "bottom" 288 0 basechar 0
AnchorPoint: "top" 288 500 basechar 0
AnchorPoint: "topright" 555 500 basechar 0
AnchorPoint: "center" 288 300 basechar 0
LayerCount: 2
Fore
SplineSet
476 68 m 257
 487 42 l 258
 493 27 489 15 473 10 c 257
 440 -2 403 -10 368 -10 c 256
 273 -10 186 43 186 204 c 258
 186 224 l 257
 110 224 l 258
 94 224 85 233 85 249 c 258
 85 275 l 258
 85 292 94 300 110 300 c 258
 186 300 l 257
 186 424 l 257
 110 424 l 258
 94 424 85 433 85 449 c 258
 85 475 l 258
 85 492 94 500 110 500 c 258
 186 500 l 257
 186 635 l 258
 186 651 195 660 211 660 c 258
 246 660 l 258
 262 660 271 651 271 635 c 258
 271 500 l 257
 435 500 l 258
 451 500 460 492 460 475 c 258
 460 449 l 258
 460 433 451 424 435 424 c 258
 271 424 l 257
 271 300 l 257
 435 300 l 258
 451 300 460 292 460 275 c 258
 460 249 l 258
 460 233 451 224 435 224 c 258
 271 224 l 257
 271 204 l 258
 271 96 310 68 368 68 c 256
 393 68 416 72 443 82 c 256
 458 88 469 83 476 68 c 257
EndSplineSet
Validated: 33
PickledDataWithLists: "(dp0
Vcom.schriftgestaltung.Glyphs.lastChange\\u000d
p1
V2016-06-09 18:35:34 +0000\\u000d
p2
s."
EndChar

StartChar: therefore
Encoding: 8756 8756 379
GlifName: therefore
Width: 575
VWidth: 0
Flags: HMW
LayerCount: 2
Fore
SplineSet
70 86 m 258
 70 173 l 258
 70 189 79 198 95 198 c 258
 200 198 l 258
 217 198 225 189 225 173 c 258
 225 86 l 258
 225 69 217 61 200 61 c 258
 95 61 l 258
 79 61 70 69 70 86 c 258
350 86 m 258
 350 173 l 258
 350 189 359 198 375 198 c 258
 480 198 l 258
 497 198 505 189 505 173 c 258
 505 86 l 258
 505 69 497 61 480 61 c 258
 375 61 l 258
 359 61 350 69 350 86 c 258
210 388 m 258
 210 475 l 258
 210 492 219 500 235 500 c 258
 340 500 l 258
 357 500 365 492 365 475 c 258
 365 388 l 258
 365 372 357 363 340 363 c 258
 235 363 l 258
 219 363 210 372 210 388 c 258
EndSplineSet
Validated: 1
PickledDataWithLists: "(dp0
Vcom.schriftgestaltung.Glyphs.lastChange\\u000d
p1
V2015-12-22 14:20:54 +0000\\u000d
p2
s."
EndChar

StartChar: theta
Encoding: 952 952 380
GlifName: theta
Width: 575
VWidth: 0
Flags: HMW
LayerCount: 2
Fore
SplineSet
85 350 m 256
 85 588 154 710 288 710 c 256
 422 710 490 588 490 350 c 256
 490 112 422 -10 288 -10 c 256
 154 -10 85 112 85 350 c 256
  PathStart: -2
171 389 m 257
 404 389 l 257
 399 551 359 634 288 634 c 256
 216 634 176 551 171 389 c 257
404 311 m 257
 171 311 l 257
 176 150 216 67 288 67 c 256
 359 67 399 150 404 311 c 257
EndSplineSet
Validated: 1
PickledDataWithLists: "(dp0
Vcom.schriftgestaltung.Glyphs.lastChange\\u000d
p1
V2015-12-22 16:32:52 +0000\\u000d
p2
s."
EndChar

StartChar: thorn
Encoding: 254 254 381
GlifName: thorn
Width: 575
VWidth: 0
Flags: HMW
LayerCount: 2
Fore
SplineSet
170 676 m 258
 170 507 l 257
 206 511 237 512 259 512 c 256
 425 512 490 437 490 252 c 256
 490 67 426 -8 259 -8 c 256
 239 -8 208 -7 170 -4 c 257
 170 -174 l 258
 170 -190 162 -200 146 -200 c 258
 111 -200 l 258
 95 -200 85 -193 85 -176 c 258
 85 674 l 258
 85 689 93 700 109 700 c 258
 144 700 l 258
 161 700 170 693 170 676 c 258
170 432 m 257
 170 72 l 257
 207 69 239 68 259 68 c 256
 371 68 405 117 405 252 c 256
 405 384 373 435 259 435 c 256
 241 435 209 435 170 432 c 257
EndSplineSet
PickledDataWithLists: "(dp0
Vcom.schriftgestaltung.Glyphs.lastChange\\u000d
p1
V2016-06-09 18:35:34 +0000\\u000d
p2
s."
EndChar

StartChar: three
Encoding: 51 51 382
GlifName: three
Width: 575
VWidth: 0
Flags: HMW
LayerCount: 2
Fore
SplineSet
123 637 m 258
 115 665 l 258
 111 680 116 692 132 696 c 256
 168 705 208 710 248 710 c 259
 365 710 480 663 480 531 c 259
 480 452 438 403 366 364 c 257
 429 335 490 272 490 177 c 259
 490 42 366 -10 243 -10 c 259
 201 -10 159 -5 122 4 c 256
 106 8 101 20 105 35 c 258
 113 63 l 258
 117 78 128 83 144 79 c 256
 174 72 207 68 243 68 c 259
 341 68 404 102 404 189 c 259
 404 269 340 324 250 324 c 258
 199 324 l 258
 183 324 174 333 174 349 c 258
 174 376 l 258
 174 392 183 401 199 401 c 258
 250 401 l 258
 338 401 394 443 394 526 c 259
 394 605 339 632 248 632 c 259
 215 632 184 628 154 621 c 256
 138 617 127 622 123 637 c 258
EndSplineSet
EndChar

StartChar: three.dnom
Encoding: 65582 -1 383
GlifName: three.dnom
Width: 250
VWidth: 0
Flags: HMW
LayerCount: 2
Fore
SplineSet
50 316 m 258
 46 330 l 257
 44 340 48 354 63 358 c 256
 81 363 103 365 124 365 c 256
 186 365 252 338 252 263 c 256
 252 222 239 193 208 175 c 257
 240 158 257 129 257 92 c 256
 257 13 186 -15 122 -15 c 256
 100 -15 78 -13 58 -8 c 256
 43 -4 39 10 41 21 c 257
 45 35 l 258
 48 45 62 53 75 50 c 256
 90 46 105 44 122 44 c 256
 166 44 190 56 190 92 c 256
 190 126 163 147 125 147 c 258
 100 147 l 258
 86 147 75 158 75 170 c 258
 75 183 l 258
 75 195 86 206 100 206 c 258
 125 206 l 258
 162 206 185 228 185 263 c 256
 185 294 164 306 124 306 c 256
 109 306 94 304 79 301 c 257
 80 301 l 257
 68 298 53 304 50 316 c 258
EndSplineSet
Validated: 33
PickledDataWithLists: "(dp0
Vcom.schriftgestaltung.Glyphs.Export\\u000d
p1
I0
sVcom.schriftgestaltung.Glyphs.lastChange\\u000d
p2
V2015-12-22 13:05:35 +0000\\u000d
p3
s."
EndChar

StartChar: three.hex
Encoding: 65583 -1 384
GlifName: three.hex
Width: 575
VWidth: 0
Flags: HMW
LayerCount: 2
Fore
SplineSet
402 875 m 258
 402 829 l 258
 402 812 394 804 377 804 c 258
 342 804 l 258
 326 804 317 813 317 829 c 258
 317 875 l 258
 317 891 326 900 342 900 c 258
 377 900 l 258
 394 900 402 891 402 875 c 258
546 875 m 258
 546 829 l 258
 546 812 537 804 521 804 c 258
 486 804 l 258
 469 804 461 813 461 829 c 258
 461 875 l 258
 461 891 470 900 486 900 c 258
 521 900 l 258
 537 900 546 891 546 875 c 258
EndSplineSet
Refer: 382 51 N 1 0 0 1 0 0 2
PickledDataWithLists: "(dp0
Vcom.schriftgestaltung.Glyphs.lastChange\\u000d
p1
V2016-02-10 13:19:26 +0000\\u000d
p2
s."
EndChar

StartChar: tilde
Encoding: 732 732 388
GlifName: tilde
Width: 575
VWidth: 0
GlyphClass: 2
Flags: HMW
AnchorPoint: "top" 288 500 mark 0
LayerCount: 2
Fore
SplineSet
121 585 m 258
 108 594 l 258
 94 603 92 615 102 629 c 256
 136 673 175 698 214 698 c 256
 238 698 271 685 307 661 c 256
 330 646 351 638 368 638 c 256
 387 638 405 647 420 664 c 257
 430 676 442 678 455 670 c 258
 468 661 l 258
 482 651 484 639 473 626 c 256
 439 581 399 557 361 557 c 256
 338 557 305 570 269 593 c 256
 245 608 221 616 203 616 c 256
 187 616 171 607 156 591 c 256
 146 579 133 577 121 585 c 258
EndSplineSet
Validated: 33
PickledDataWithLists: "(dp0
Vcom.schriftgestaltung.Glyphs.lastChange\\u000d
p1
V2015-12-22 16:32:44 +0000\\u000d
p2
s."
EndChar

StartChar: trademark
Encoding: 8482 8482 389
GlifName: trademark
Width: 575
VWidth: 0
Flags: HMW
LayerCount: 2
Fore
SplineSet
227 684 m 258
 227 667 l 258
 227 657 221 651 211 651 c 258
 156 651 l 257
 156 371 l 258
 156 361 151 355 140 355 c 258
 119 355 l 258
 108 355 103 361 103 371 c 258
 103 651 l 257
 48 651 l 258
 38 651 33 657 33 667 c 258
 33 684 l 258
 33 693 38 699 48 699 c 258
 211 699 l 258
 221 699 227 694 227 684 c 258
528 686 m 258
 528 371 l 258
 528 361 523 355 513 355 c 258
 492 355 l 258
 482 355 476 360 476 367 c 256
 476 419 477 517 478 590 c 257
 445 512 l 258
 436 490 420 478 400 478 c 256
 378 478 361 490 352 512 c 258
 321 590 l 257
 323 531 324 434 324 367 c 256
 324 360 319 355 308 355 c 258
 287 355 l 258
 277 355 271 361 271 371 c 258
 271 686 l 258
 271 696 277 702 288 702 c 256
 299 702 304 701 311 699 c 256
 320 694 325 688 328 679 c 258
 384 531 l 258
 387 524 392 518 400 518 c 256
 408 518 413 524 416 531 c 258
 471 680 l 258
 475 689 480 695 490 699 c 256
 495 701 501 702 512 702 c 256
 523 702 528 696 528 686 c 258
EndSplineSet
Validated: 1
PickledDataWithLists: "(dp0
Vcom.schriftgestaltung.Glyphs.lastChange\\u000d
p1
V2015-12-22 14:25:18 +0000\\u000d
p2
s."
EndChar

StartChar: two
Encoding: 50 50 390
GlifName: two
Width: 575
VWidth: 0
Flags: HMW
LayerCount: 2
Fore
SplineSet
170 77 m 257
 489 77 l 258
 505 77 514 68 514 52 c 258
 514 24 l 258
 514 8 505 -1 489 -1 c 258
 109 -1 l 258
 93 -1 84 8 84 24 c 258
 84 48 l 258
 84 183 189 256 259 309 c 256
 343 375 410 429 410 514 c 259
 410 598 354 632 265 632 c 259
 224 632 185 624 140 608 c 256
 124 603 113 608 107 623 c 258
 98 649 l 258
 92 664 97 675 112 681 c 256
 160 699 214 710 265 710 c 259
 387 710 496 653 496 514 c 259
 496 391 400 317 312 248 c 256
 242 194 177 144 170 77 c 257
EndSplineSet
EndChar

StartChar: two.dnom
Encoding: 65585 -1 391
GlifName: two.dnom
Width: 250
VWidth: 0
Flags: HMW
LayerCount: 2
Fore
SplineSet
100 49 m 257
 245 49 l 258
 259 49 269 37 269 26 c 258
 269 12 l 258
 269 1 259 -11 245 -11 c 258
 55 -11 l 258
 41 -11 30 0 30 12 c 258
 30 24 l 258
 30 97 87 136 123 163 c 256
 164 195 193 219 193 257 c 256
 193 292 171 306 133 306 c 256
 113 306 97 302 74 295 c 257
 62 291 47 297 43 308 c 258
 38 321 l 257
 33 332 40 345 52 350 c 257
 76 360 106 365 133 365 c 256
 197 365 260 333 260 257 c 256
 260 192 208 152 163 116 c 256
 133 93 108 73 100 49 c 257
EndSplineSet
Validated: 33
PickledDataWithLists: "(dp0
Vcom.schriftgestaltung.Glyphs.Export\\u000d
p1
I0
sVcom.schriftgestaltung.Glyphs.lastChange\\u000d
p2
V2015-12-22 13:05:14 +0000\\u000d
p3
s."
EndChar

StartChar: two.hex
Encoding: 65586 -1 392
GlifName: two.hex
Width: 575
VWidth: 0
Flags: HMW
LayerCount: 2
Fore
SplineSet
402 875 m 258
 402 829 l 258
 402 812 394 804 377 804 c 258
 342 804 l 258
 326 804 317 813 317 829 c 258
 317 875 l 258
 317 891 326 900 342 900 c 258
 377 900 l 258
 394 900 402 891 402 875 c 258
EndSplineSet
Refer: 390 50 N 1 0 0 1 0 0 2
PickledDataWithLists: "(dp0
Vcom.schriftgestaltung.Glyphs.lastChange\\u000d
p1
V2016-05-30 08:38:37 +0000\\u000d
p2
s."
EndChar

StartChar: underscore
Encoding: 95 95 403
GlifName: underscore
Width: 575
VWidth: 0
Flags: HMW
LayerCount: 2
Fore
SplineSet
76 -77 m 258
 60 -77 51 -68 51 -52 c 258
 51 -25 l 258
 51 -9 60 0 76 0 c 258
 499 0 l 258
 515 0 524 -9 524 -25 c 258
 524 -52 l 258
 524 -68 515 -77 499 -77 c 258
 76 -77 l 258
EndSplineSet
PickledDataWithLists: "(dp0
Vcom.schriftgestaltung.Glyphs.lastChange\\u000d
p1
V2015-12-23 09:18:36 +0000\\u000d
p2
s."
EndChar

StartChar: mu
Encoding: 181 181 405
GlifName: uni00B_5
Width: 575
VWidth: 0
Flags: HMW
LayerCount: 2
Fore
SplineSet
430 500 m 258
 465 500 l 258
 482 500 490 492 490 475 c 258
 490 30 l 258
 490 14 483 5 467 3 c 256
 394 -9 331 -10 298 -10 c 256
 241 -10 199 0 170 23 c 257
 170 -213 l 258
 170 -229 161 -238 145 -238 c 258
 110 -238 l 258
 94 -238 85 -229 85 -213 c 258
 85 475 l 258
 85 492 94 500 110 500 c 258
 145 500 l 258
 162 500 170 491 170 475 c 258
 170 193 l 258
 170 99 206 67 298 67 c 256
 322 67 360 68 405 71 c 257
 405 475 l 258
 405 491 414 500 430 500 c 258
EndSplineSet
Validated: 1
PickledDataWithLists: "(dp0
Vcom.schriftgestaltung.Glyphs.lastChange\\u000d
p1
V2015-12-22 16:32:55 +0000\\u000d
p2
s."
EndChar

StartChar: uni0237
Encoding: 567 567 408
GlifName: uni0237
Width: 575
VWidth: 0
Flags: HMW
LayerCount: 2
Fore
SplineSet
125 500 m 258
 465 500 l 258
 481 500 490 491 490 475 c 258
 490 120 l 258
 490 -90 373 -160 247 -160 c 256
 196 -160 144 -150 97 -130 c 256
 82 -124 78 -112 84 -97 c 258
 94 -73 l 258
 100 -58 111 -53 126 -59 c 256
 170 -75 206 -82 247 -82 c 256
 336 -82 404 -36 404 120 c 258
 404 422 l 257
 125 422 l 258
 109 422 100 431 100 447 c 258
 100 475 l 258
 100 491 109 500 125 500 c 258
EndSplineSet
Validated: 33
PickledDataWithLists: "(dp0
Vcom.schriftgestaltung.Glyphs.lastChange\\u000d
p1
V2016-06-09 18:35:33 +0000\\u000d
p2
s."
EndChar

StartChar: uni0394
Encoding: 916 916 409
GlifName: uni0394
Width: 575
VWidth: 0
Flags: HMW
LayerCount: 2
Fore
SplineSet
380 621 m 258
 558 28 l 257
 563 11 554 0 537 0 c 257
 39 0 l 257
 21 0 12 11 17 28 c 258
 195 621 l 258
 213 682 250 712 287 712 c 256
 324 712 362 681 380 621 c 258
279 607 m 258
 115 75 l 257
 460 75 l 257
 297 607 l 258
 291 625 285 625 279 607 c 258
EndSplineSet
Validated: 33
PickledDataWithLists: "(dp0
Vcom.schriftgestaltung.Glyphs.lastChange\\u000d
p1
V2015-12-22 12:15:12 +0000\\u000d
p2
s."
EndChar

StartChar: uni03A9
Encoding: 937 937 410
GlifName: uni03A_9
Width: 575
VWidth: 0
Flags: HMW
LayerCount: 2
Fore
SplineSet
389 76 m 257
 488 76 l 258
 504 76 513 67 513 51 c 258
 513 25 l 258
 513 8 504 0 488 0 c 258
 339 0 l 258
 322 0 314 9 314 25 c 258
 314 147 l 258
 314 162 321 170 335 176 c 256
 389 200 405 269 405 343 c 258
 405 457 l 258
 405 549 380 634 288 634 c 256
 196 634 171 549 171 457 c 258
 171 343 l 258
 171 269 187 200 241 176 c 256
 255 170 262 162 262 147 c 258
 262 25 l 258
 262 9 254 0 237 0 c 258
 88 0 l 258
 72 0 63 8 63 25 c 258
 63 51 l 258
 63 67 72 76 88 76 c 258
 187 76 l 257
 187 120 l 257
 114 162 86 244 86 343 c 258
 86 457 l 258
 86 602 145 710 288 710 c 256
 431 710 490 602 490 457 c 258
 490 343 l 258
 490 244 462 162 389 120 c 257
 389 76 l 257
EndSplineSet
Validated: 1
PickledDataWithLists: "(dp0
Vcom.schriftgestaltung.Glyphs.lastChange\\u000d
p1
V2015-12-22 12:25:35 +0000\\u000d
p2
s."
EndChar

StartChar: uni03BC
Encoding: 956 956 411
GlifName: uni03B_C_
Width: 575
VWidth: 0
Flags: HMW
LayerCount: 2
Fore
SplineSet
430 500 m 258
 465 500 l 258
 481 500 490 491 490 475 c 258
 490 29 l 258
 490 14 482 5 467 2 c 257
 394 -9 330 -10 297 -10 c 256
 244 -10 202 -3 170 33 c 257
 170 -225 l 258
 170 -242 162 -250 145 -250 c 258
 110 -250 l 258
 94 -250 85 -241 85 -225 c 258
 85 475 l 258
 85 491 93 500 110 500 c 258
 145 500 l 258
 161 500 170 491 170 475 c 258
 170 192 l 258
 170 98 206 66 297 66 c 256
 321 66 360 67 405 70 c 257
 405 475 l 258
 405 491 413 500 430 500 c 258
EndSplineSet
Validated: 1
PickledDataWithLists: "(dp0
Vcom.schriftgestaltung.Glyphs.lastChange\\u000d
p1
V2015-12-22 12:42:40 +0000\\u000d
p2
s."
EndChar

StartChar: afii10018
Encoding: 1041 1041 420
GlifName: uni0411
Width: 575
VWidth: 0
Flags: HMW
LayerCount: 2
Fore
SplineSet
170 420 m 257
 245 420 l 258
 425 420 517 329 517 210 c 256
 517 94 427 0 245 0 c 258
 110 0 l 258
 94 0 85 9 85 25 c 258
 85 675 l 258
 85 691 94 700 110 700 c 258
 430 700 l 258
 446 700 455 691 455 675 c 258
 455 648 l 258
 455 632 446 623 430 623 c 258
 170 623 l 257
 170 420 l 257
170 76 m 257
 245 76 l 258
 372 76 432 134 432 210 c 256
 432 286 373 344 245 344 c 258
 170 344 l 257
 170 76 l 257
EndSplineSet
Validated: 1
PickledDataWithLists: "(dp0
Vcom.schriftgestaltung.Glyphs.lastChange\\u000d
p1
V2016-06-09 18:35:34 +0000\\u000d
p2
s."
EndChar

StartChar: afii10020
Encoding: 1043 1043 422
GlifName: uni0413
Width: 575
VWidth: 0
Flags: HMW
AnchorPoint: "top" 288 700 basechar 0
AnchorPoint: "bottomright" 555 0 basechar 0
LayerCount: 2
Fore
SplineSet
554 648 m 258
 554 632 545 623 529 623 c 258
 170 623 l 257
 170 25 l 258
 170 8 162 0 145 0 c 258
 110 0 l 258
 94 0 85 9 85 25 c 258
 85 675 l 258
 85 691 94 700 110 700 c 258
 529 700 l 258
 545 700 554 691 554 675 c 258
 554 648 l 258
  PathStart: -2
EndSplineSet
Validated: 1
PickledDataWithLists: "(dp0
Vcom.schriftgestaltung.Glyphs.lastChange\\u000d
p1
V2016-06-09 18:35:34 +0000\\u000d
p2
s."
EndChar

StartChar: afii10021
Encoding: 1044 1044 423
GlifName: uni0414
Width: 575
VWidth: 0
Flags: HMW
LayerCount: 2
Fore
SplineSet
459 675 m 258
 459 78 l 257
 500 78 l 258
 516 78 525 69 525 53 c 258
 525 -125 l 258
 525 -141 516 -150 500 -150 c 258
 465 -150 l 258
 449 -150 440 -141 440 -125 c 258
 440 0 l 257
 135 0 l 257
 135 -125 l 258
 135 -141 126 -150 110 -150 c 258
 75 -150 l 258
 59 -150 50 -141 50 -125 c 258
 50 53 l 258
 50 69 59 78 75 78 c 258
 93 78 l 257
 139 198 139 375 139 475 c 258
 139 675 l 258
 139 691 148 700 164 700 c 258
 434 700 l 258
 450 700 459 691 459 675 c 258
224 622 m 257
 224 475 l 258
 224 285 212 159 159 78 c 257
 374 78 l 257
 374 622 l 257
 224 622 l 257
EndSplineSet
Validated: 1
PickledDataWithLists: "(dp0
Vcom.schriftgestaltung.Glyphs.lastChange\\u000d
p1
V2016-06-09 18:35:34 +0000\\u000d
p2
s."
EndChar

StartChar: afii10024
Encoding: 1046 1046 425
GlifName: uni0416
Width: 575
VWidth: 0
Flags: HMW
AnchorPoint: "top" 288 700 basechar 0
AnchorPoint: "bottomright" 555 0 basechar 0
LayerCount: 2
Fore
SplineSet
541 671 m 258
 425 390 l 258
 419 376 404 364 388 357 c 257
 404 351 420 338 425 325 c 258
 538 30 l 258
 545 12 538 0 519 0 c 258
 488 0 l 258
 474 0 464 6 459 18 c 258
 350 295 l 258
 344 309 337 318 330 322 c 257
 330 25 l 258
 330 9 322 0 305 0 c 258
 270 0 l 258
 254 0 245 9 245 25 c 258
 245 322 l 257
 238 318 231 309 225 295 c 258
 116 18 l 258
 111 6 101 0 87 0 c 258
 56 0 l 258
 37 0 30 12 37 30 c 258
 150 325 l 258
 155 338 171 351 187 357 c 257
 171 364 156 376 150 390 c 258
 34 671 l 258
 27 688 33 700 53 700 c 258
 84 700 l 258
 98 700 107 695 113 682 c 258
 225 419 l 258
 231 406 238 397 245 393 c 257
 245 675 l 258
 245 691 254 700 270 700 c 258
 305 700 l 258
 322 700 330 692 330 675 c 258
 330 393 l 257
 337 397 344 406 350 419 c 258
 462 682 l 258
 468 695 477 700 491 700 c 258
 522 700 l 258
 542 700 548 688 541 671 c 258
EndSplineSet
Validated: 33
PickledDataWithLists: "(dp0
Vcom.schriftgestaltung.Glyphs.lastChange\\u000d
p1
V2016-05-23 13:11:20 +0000\\u000d
p2
s."
EndChar

StartChar: afii10026
Encoding: 1048 1048 427
GlifName: uni0418
Width: 575
VWidth: 0
Flags: HMW
AnchorPoint: "top" 288 700 basechar 0
AnchorPoint: "bottomright" 555 0 basechar 0
LayerCount: 2
Fore
SplineSet
69 674 m 258
 69 689 80 700 95 700 c 258
 129 700 l 258
 144 700 154 689 154 674 c 258
 154 169 l 257
 404 669 l 258
 416 694 435 700 463 700 c 258
 479 700 l 258
 497 700 506 691 506 675 c 258
 506 26 l 258
 506 11 495 0 480 0 c 258
 446 0 l 258
 431 0 421 11 421 26 c 258
 421 527 l 257
 171 36 l 258
 158 11 140 0 112 0 c 258
 96 0 l 258
 78 0 69 9 69 25 c 258
 69 674 l 258
  PathStart: -2
EndSplineSet
Validated: 1
PickledDataWithLists: "(dp0
Vcom.schriftgestaltung.Glyphs.lastChange\\u000d
p1
V2016-05-23 13:11:39 +0000\\u000d
p2
s."
EndChar

StartChar: afii10029
Encoding: 1051 1051 430
GlifName: uni041B_
Width: 575
VWidth: 0
Flags: HMW
LayerCount: 2
Fore
SplineSet
510 675 m 258
 510 25 l 258
 510 9 501 0 485 0 c 258
 450 0 l 258
 434 0 425 9 425 25 c 258
 425 622 l 257
 206 622 l 257
 206 500 l 258
 206 182 168 14 47 -16 c 256
 31 -20 21 -10 21 7 c 258
 21 46 l 258
 21 60 29 66 42 73 c 256
 114 112 121 354 121 500 c 258
 121 675 l 258
 121 691 130 700 146 700 c 258
 485 700 l 258
 501 700 510 691 510 675 c 258
EndSplineSet
Validated: 33
PickledDataWithLists: "(dp0
Vcom.schriftgestaltung.Glyphs.lastChange\\u000d
p1
V2016-05-23 11:38:55 +0000\\u000d
p2
s."
EndChar

StartChar: afii10033
Encoding: 1055 1055 434
GlifName: uni041F_
Width: 575
VWidth: 0
Flags: HMW
AnchorPoint: "bottomright" 555 0 basechar 0
LayerCount: 2
Fore
SplineSet
103 700 m 258
 473 700 l 258
 489 700 498 691 498 675 c 258
 498 25 l 258
 498 9 489 0 473 0 c 258
 438 0 l 258
 422 0 413 9 413 25 c 258
 413 622 l 257
 163 622 l 257
 163 25 l 258
 163 9 154 0 138 0 c 258
 103 0 l 258
 87 0 78 9 78 25 c 258
 78 675 l 258
 78 691 87 700 103 700 c 258
EndSplineSet
Validated: 1
PickledDataWithLists: "(dp0
Vcom.schriftgestaltung.Glyphs.lastChange\\u000d
p1
V2016-05-23 13:13:45 +0000\\u000d
p2
s."
EndChar

StartChar: afii10037
Encoding: 1059 1059 438
GlifName: uni0423
Width: 575
VWidth: 0
Flags: HMW
AnchorPoint: "top" 288 700 basechar 0
LayerCount: 2
Fore
SplineSet
451 700 m 258
 487 700 l 258
 504 700 512 689 508 672 c 258
 384 180 l 258
 342 15 269 0 139 0 c 258
 87 0 l 258
 71 0 62 9 62 25 c 258
 62 53 l 258
 62 69 71 78 87 78 c 258
 139 78 l 258
 253 78 273 90 300 190 c 257
 288 190 l 258
 223 190 180 222 165 280 c 258
 67 672 l 258
 63 690 71 700 89 700 c 258
 125 700 l 258
 140 700 149 693 152 679 c 257
 249 293 l 257
 253 274 267 263 288 263 c 258
 319 263 l 257
 423 679 l 258
 427 693 436 700 451 700 c 258
EndSplineSet
Validated: 33
PickledDataWithLists: "(dp0
Vcom.schriftgestaltung.Glyphs.lastChange\\u000d
p1
V2016-05-23 13:14:21 +0000\\u000d
p2
s."
EndChar

StartChar: afii10038
Encoding: 1060 1060 439
GlifName: uni0424
Width: 575
VWidth: 0
Flags: HMW
LayerCount: 2
Fore
SplineSet
330 610 m 257
 447 595 520 513 520 350 c 256
 520 187 447 105 330 90 c 257
 330 15 l 258
 330 -1 322 -10 305 -10 c 258
 270 -10 l 258
 254 -10 245 -1 245 15 c 258
 245 91 l 257
 130 108 55 190 55 350 c 256
 55 510 130 592 245 609 c 257
 245 685 l 258
 245 701 254 710 270 710 c 258
 305 710 l 258
 322 710 330 702 330 685 c 258
 330 610 l 257
  PathStart: -2
330 530 m 257
 330 170 l 257
 401 187 435 250 435 350 c 256
 435 450 401 513 330 530 c 257
245 530 m 257
 174 513 140 450 140 350 c 256
 140 250 174 187 245 170 c 257
 245 530 l 257
  PathStart: -2
EndSplineSet
Validated: 1
PickledDataWithLists: "(dp0
Vcom.schriftgestaltung.Glyphs.lastChange\\u000d
p1
V2016-05-30 10:12:00 +0000\\u000d
p2
s."
EndChar

StartChar: afii10040
Encoding: 1062 1062 441
GlifName: uni0426
Width: 575
VWidth: 0
Flags: HMW
LayerCount: 2
Fore
SplineSet
458 675 m 258
 458 78 l 257
 515 78 l 258
 531 78 540 69 540 53 c 258
 540 -75 l 258
 540 -91 531 -100 515 -100 c 258
 480 -100 l 258
 464 -100 455 -91 455 -75 c 258
 455 0 l 257
 103 0 l 258
 87 0 78 9 78 25 c 258
 78 675 l 258
 78 691 87 700 103 700 c 258
 138 700 l 258
 154 700 163 691 163 675 c 258
 163 78 l 257
 373 78 l 257
 373 675 l 258
 373 691 382 700 398 700 c 258
 433 700 l 258
 449 700 458 691 458 675 c 258
EndSplineSet
Validated: 1
PickledDataWithLists: "(dp0
Vcom.schriftgestaltung.Glyphs.lastChange\\u000d
p1
V2016-05-23 12:25:17 +0000\\u000d
p2
s."
EndChar

StartChar: afii10041
Encoding: 1063 1063 442
GlifName: uni0427
Width: 575
VWidth: 0
Flags: HMW
AnchorPoint: "top" 288 700 basechar 0
AnchorPoint: "bottomright" 555 0 basechar 0
LayerCount: 2
Fore
SplineSet
430 700 m 258
 465 700 l 258
 481 700 490 691 490 675 c 258
 490 25 l 258
 490 9 481 0 465 0 c 258
 430 0 l 258
 414 0 405 9 405 25 c 258
 405 245 l 257
 359 241 320 240 297 240 c 256
 149 240 85 296 85 442 c 258
 85 675 l 258
 85 691 93 700 110 700 c 258
 145 700 l 258
 161 700 170 691 170 675 c 258
 170 442 l 258
 170 348 206 316 297 316 c 256
 321 316 360 317 405 320 c 257
 405 675 l 258
 405 691 413 700 430 700 c 258
EndSplineSet
Validated: 1
PickledDataWithLists: "(dp0
Vcom.schriftgestaltung.Glyphs.lastChange\\u000d
p1
V2016-05-30 10:12:16 +0000\\u000d
p2
s."
EndChar

StartChar: afii10042
Encoding: 1064 1064 443
GlifName: uni0428
Width: 575
VWidth: 0
Flags: HMW
LayerCount: 2
Fore
SplineSet
462 700 m 258
 497 700 l 258
 513 700 522 691 522 675 c 258
 522 25 l 258
 522 9 513 0 497 0 c 258
 78 0 l 258
 62 0 53 9 53 25 c 258
 53 675 l 258
 53 691 62 700 78 700 c 258
 113 700 l 258
 129 700 138 691 138 675 c 258
 138 78 l 257
 245 78 l 257
 245 675 l 258
 245 691 254 700 270 700 c 258
 305 700 l 258
 321 700 330 691 330 675 c 258
 330 78 l 257
 437 78 l 257
 437 675 l 258
 437 691 446 700 462 700 c 258
EndSplineSet
Validated: 1
PickledDataWithLists: "(dp0
Vcom.schriftgestaltung.Glyphs.lastChange\\u000d
p1
V2016-05-30 09:51:07 +0000\\u000d
p2
s."
EndChar

StartChar: afii10043
Encoding: 1065 1065 444
GlifName: uni0429
Width: 575
VWidth: 0
Flags: HMW
LayerCount: 2
Fore
SplineSet
522 675 m 258
 522 77 l 257
 534 75 540 66 540 53 c 258
 540 -125 l 258
 540 -141 531 -150 515 -150 c 258
 480 -150 l 258
 464 -150 455 -141 455 -125 c 258
 455 0 l 257
 78 0 l 258
 62 0 53 9 53 25 c 258
 53 675 l 258
 53 691 62 700 78 700 c 258
 113 700 l 258
 129 700 138 691 138 675 c 258
 138 78 l 257
 245 78 l 257
 245 675 l 258
 245 691 254 700 270 700 c 258
 305 700 l 258
 321 700 330 691 330 675 c 258
 330 78 l 257
 437 78 l 257
 437 675 l 258
 437 691 446 700 462 700 c 258
 497 700 l 258
 513 700 522 691 522 675 c 258
EndSplineSet
Validated: 1
PickledDataWithLists: "(dp0
Vcom.schriftgestaltung.Glyphs.lastChange\\u000d
p1
V2016-05-29 16:25:37 +0000\\u000d
p2
s."
EndChar

StartChar: afii10044
Encoding: 1066 1066 445
GlifName: uni042A_
Width: 575
VWidth: 0
Flags: HMW
LayerCount: 2
Fore
SplineSet
210 76 m 257
 265 76 l 258
 392 76 442 134 442 210 c 256
 442 286 393 344 265 344 c 258
 210 344 l 257
 210 76 l 257
210 420 m 257
 265 420 l 258
 445 420 527 329 527 210 c 256
 527 94 447 0 265 0 c 258
 150 0 l 258
 134 0 125 9 125 25 c 258
 125 623 l 257
 45 623 l 258
 29 623 20 632 20 648 c 258
 20 675 l 258
 20 691 29 700 45 700 c 258
 185 700 l 258
 200 700 211 689 211 674 c 258
 210 420 l 257
EndSplineSet
Validated: 1
PickledDataWithLists: "(dp0
Vcom.schriftgestaltung.Glyphs.lastChange\\u000d
p1
V2016-05-30 10:12:28 +0000\\u000d
p2
s."
EndChar

StartChar: afii10045
Encoding: 1067 1067 446
GlifName: uni042B_
Width: 575
VWidth: 0
Flags: HMW
AnchorPoint: "top" 300 700 basechar 0
LayerCount: 2
Fore
SplineSet
140 675 m 258
 140 420 l 257
 300 420 372 329 372 210 c 256
 372 94 302 0 140 0 c 258
 80 0 l 258
 64 0 55 9 55 25 c 258
 55 675 l 258
 55 691 64 700 80 700 c 258
 115 700 l 258
 131 700 140 691 140 675 c 258
520 675 m 258
 520 25 l 258
 520 11 509 0 495 0 c 258
 460 0 l 258
 444 0 435 9 435 25 c 258
 435 675 l 258
 435 691 444 700 460 700 c 258
 495 700 l 258
 511 700 520 691 520 675 c 258
140 344 m 257
 140 76 l 257
 247 76 287 134 287 210 c 256
 287 286 248 344 140 344 c 257
EndSplineSet
Validated: 1
PickledDataWithLists: "(dp0
Vcom.schriftgestaltung.Glyphs.lastChange\\u000d
p1
V2016-05-30 10:12:35 +0000\\u000d
p2
s."
EndChar

StartChar: afii10046
Encoding: 1068 1068 447
GlifName: uni042C_
Width: 575
VWidth: 0
Flags: HMW
LayerCount: 2
Fore
SplineSet
170 420 m 257
 245 420 l 258
 425 420 517 329 517 210 c 256
 517 94 427 0 245 0 c 258
 110 0 l 258
 94 0 85 9 85 25 c 258
 85 675 l 258
 85 691 94 700 110 700 c 258
 145 700 l 258
 161 700 170 691 170 675 c 257
 170 420 l 257
170 76 m 257
 245 76 l 258
 372 76 432 134 432 210 c 256
 432 286 373 344 245 344 c 258
 170 344 l 257
 170 76 l 257
EndSplineSet
Validated: 1
PickledDataWithLists: "(dp0
Vcom.schriftgestaltung.Glyphs.lastChange\\u000d
p1
V2016-05-30 10:12:22 +0000\\u000d
p2
s."
EndChar

StartChar: afii10047
Encoding: 1069 1069 448
GlifName: uni042D_
Width: 575
VWidth: 0
Flags: HMW
AnchorPoint: "top" 288 700 basechar 0
LayerCount: 2
Fore
SplineSet
97 680 m 256
 144 699 190 710 235 710 c 256
 353 710 490 640 490 390 c 258
 490 310 l 258
 490 60 353 -10 235 -10 c 256
 190 -10 144 1 97 20 c 256
 82 26 78 38 84 53 c 258
 94 77 l 258
 100 92 111 97 126 91 c 256
 169 74 206 68 237 68 c 256
 349 68 404 157 404 313 c 257
 157 313 l 258
 143 313 131 324 131 338 c 258
 131 363 l 258
 131 377 142 388 156 388 c 258
 404 388 l 257
 404 547 347 632 237 632 c 256
 206 632 169 626 126 609 c 256
 111 603 100 608 94 623 c 258
 84 647 l 258
 78 662 82 674 97 680 c 256
  PathStart: -2
EndSplineSet
Validated: 33
PickledDataWithLists: "(dp0
Vcom.schriftgestaltung.Glyphs.lastChange\\u000d
p1
V2016-05-30 10:12:43 +0000\\u000d
p2
s."
EndChar

StartChar: afii10048
Encoding: 1070 1070 449
GlifName: uni042E_
Width: 575
VWidth: 0
Flags: HMW
AnchorPoint: "top" 288 700 basechar 0
LayerCount: 2
Fore
SplineSet
220 497 m 258
 220 648 265 710 373 710 c 256
 481 710 525 648 525 497 c 258
 525 203 l 258
 525 52 481 -10 373 -10 c 256
 265 -10 220 52 220 203 c 258
 220 333 l 257
 135 333 l 257
 135 25 l 258
 135 9 127 0 110 0 c 258
 75 0 l 258
 59 0 50 9 50 25 c 258
 50 675 l 258
 50 691 59 700 75 700 c 258
 110 700 l 258
 127 700 135 692 135 675 c 258
 135 410 l 257
 220 410 l 257
 220 497 l 258
  PathStart: -2
373 66 m 256
 420 66 440 106 440 203 c 258
 440 497 l 258
 440 594 420 634 373 634 c 256
 325 634 305 594 305 497 c 258
 305 203 l 258
 305 106 325 66 373 66 c 256
  PathStart: -2
EndSplineSet
Validated: 1
PickledDataWithLists: "(dp0
Vcom.schriftgestaltung.Glyphs.lastChange\\u000d
p1
V2016-05-30 10:12:53 +0000\\u000d
p2
s."
EndChar

StartChar: afii10049
Encoding: 1071 1071 450
GlifName: uni042F_
Width: 575
VWidth: 0
Flags: HMW
AnchorPoint: "top" 300 700 basechar 0
AnchorPoint: "bottom" 288 0 basechar 0
LayerCount: 2
Fore
SplineSet
52 0 m 258
 33 0 25 12 34 30 c 258
 187 335 l 257
 122 367 85 434 85 506 c 256
 85 615 164 700 317 700 c 258
 475 700 l 258
 491 700 500 692 500 675 c 258
 500 25 l 258
 500 9 491 0 475 0 c 258
 440 0 l 258
 424 0 415 9 415 25 c 258
 415 312 l 257
 270 312 l 257
 123 18 l 258
 117 6 108 0 94 0 c 258
 52 0 l 258
  PathStart: -2
170 506 m 256
 170 448 216 389 317 389 c 258
 415 389 l 257
 415 624 l 257
 317 624 l 258
 218 624 170 565 170 506 c 256
  PathStart: -2
EndSplineSet
Validated: 33
PickledDataWithLists: "(dp0
Vcom.schriftgestaltung.Glyphs.lastChange\\u000d
p1
V2016-05-30 10:12:58 +0000\\u000d
p2
s."
EndChar

StartChar: afii10066
Encoding: 1073 1073 452
GlifName: uni0431
Width: 575
VWidth: 0
Flags: HMW
LayerCount: 2
Fore
SplineSet
144 402 m 257
 198 419 243 429 285 429 c 256
 402 429 496 349 496 220 c 256
 496 78 411 -10 283 -10 c 256
 141 -10 53 95 53 326 c 256
 53 571 161 700 330 700 c 256
 351 700 376 704 432 716 c 256
 446 719 458 713 463 701 c 258
 473 675 l 258
 479 660 471 645 454 640 c 256
 390 621 365 622 331 622 c 256
 251 622 162 585 144 402 c 257
  PathStart: -2
139 317 m 257
 139 134 208 68 286 68 c 256
 354 68 410 118 410 220 c 256
 410 301 359 351 281 351 c 256
 253 351 201 349 139 317 c 257
  PathStart: -2
EndSplineSet
Validated: 33
PickledDataWithLists: "(dp0
Vcom.schriftgestaltung.Glyphs.lastChange\\u000d
p1
V2016-05-30 10:13:07 +0000\\u000d
p2
s."
EndChar

StartChar: afii10067
Encoding: 1074 1074 453
GlifName: uni0432
Width: 575
VWidth: 0
Flags: HMW
LayerCount: 2
Fore
SplineSet
102 25 m 257
 102 424 l 257
 64 424 l 258
 47 424 39 433 39 449 c 258
 39 475 l 258
 39 491 47 500 64 500 c 257
 244 500 l 258
 406 500 473 456 473 371 c 256
 473 303 430 285 382 270 c 257
 463 271 513 221 513 146 c 256
 513 46 424 0 264 0 c 258
 127 0 l 258
 111 0 102 9 102 25 c 257
187 424 m 257
 187 303 l 257
 244 303 l 258
 344 303 398 302 398 361 c 256
 398 414 354 424 244 424 c 258
 187 424 l 257
187 77 m 257
 264 77 l 258
 380 77 437 89 437 151 c 256
 437 213 380 226 264 226 c 258
 187 226 l 257
 187 77 l 257
EndSplineSet
Validated: 33
PickledDataWithLists: "(dp0
Vcom.schriftgestaltung.Glyphs.lastChange\\u000d
p1
V2016-05-30 10:13:14 +0000\\u000d
p2
s."
EndChar

StartChar: afii10068
Encoding: 1075 1075 454
GlifName: uni0433
Width: 575
VWidth: 0
Flags: HMW
AnchorPoint: "top" 300 500 basechar 0
AnchorPoint: "bottomright" 580 0 basechar 0
LayerCount: 2
Fore
SplineSet
495 448 m 258
 495 432 486 423 470 423 c 258
 170 423 l 257
 170 25 l 258
 170 8 162 0 145 0 c 258
 110 0 l 258
 94 0 85 9 85 25 c 258
 85 475 l 258
 85 491 94 500 110 500 c 258
 470 500 l 258
 486 500 495 491 495 475 c 258
 495 448 l 258
  PathStart: -2
EndSplineSet
Validated: 1
PickledDataWithLists: "(dp0
Vcom.schriftgestaltung.Glyphs.lastChange\\u000d
p1
V2016-05-29 16:25:09 +0000\\u000d
p2
s."
EndChar

StartChar: afii10069
Encoding: 1076 1076 455
GlifName: uni0434
Width: 575
VWidth: 0
Flags: HMW
LayerCount: 2
Fore
SplineSet
110 -125 m 258
 75 -125 l 258
 59 -125 50 -116 50 -100 c 258
 50 53 l 258
 50 69 59 78 75 78 c 258
 93 78 l 257
 139 198 139 375 139 475 c 256
 139 491 148 500 164 500 c 258
 434 500 l 258
 450 500 459 491 459 475 c 258
 459 78 l 257
 500 78 l 258
 516 78 525 69 525 53 c 258
 525 -100 l 258
 525 -116 516 -125 500 -125 c 258
 465 -125 l 258
 449 -125 440 -116 440 -100 c 258
 440 0 l 257
 135 0 l 257
 135 -100 l 258
 135 -116 126 -125 110 -125 c 258
224 422 m 257
 221 261 207 151 159 78 c 257
 374 78 l 257
 374 422 l 257
 224 422 l 257
  PathStart: -2
EndSplineSet
Validated: 1
PickledDataWithLists: "(dp0
Vcom.schriftgestaltung.Glyphs.lastChange\\u000d
p1
V2016-05-30 08:31:25 +0000\\u000d
p2
s."
EndChar

StartChar: afii10072
Encoding: 1078 1078 457
GlifName: uni0436
Width: 575
VWidth: 0
Flags: HMW
AnchorPoint: "top" 288 500 basechar 0
AnchorPoint: "bottomright" 555 0 basechar 0
LayerCount: 2
Fore
SplineSet
425 290 m 258
 418 276 404 264 388 257 c 257
 404 251 419 238 425 225 c 258
 507 42 l 258
 516 21 503 0 480 0 c 258
 455 0 l 258
 446 0 439 4 435 13 c 258
 350 195 l 258
 344 209 337 218 330 222 c 257
 330 25 l 258
 330 11 319 0 305 0 c 258
 270 0 l 258
 256 0 245 11 245 25 c 258
 245 222 l 257
 238 218 231 209 225 195 c 258
 140 13 l 258
 136 4 129 0 120 0 c 258
 95 0 l 258
 72 0 59 21 68 42 c 258
 150 225 l 258
 156 238 171 251 187 257 c 257
 171 264 157 276 150 290 c 258
 69 457 l 258
 59 478 72 500 96 500 c 258
 120 500 l 258
 128 500 136 495 140 488 c 258
 225 319 l 258
 231 306 238 297 245 293 c 257
 245 474 l 258
 245 488 256 500 270 500 c 258
 305 500 l 258
 319 500 330 489 330 475 c 258
 330 293 l 257
 337 297 344 306 350 319 c 258
 435 488 l 258
 439 495 447 500 455 500 c 258
 479 500 l 258
 503 500 516 478 506 457 c 258
 425 290 l 258
  PathStart: -2
EndSplineSet
Validated: 33
PickledDataWithLists: "(dp0
Vcom.schriftgestaltung.Glyphs.lastChange\\u000d
p1
V2016-05-23 16:22:06 +0000\\u000d
p2
s."
EndChar

StartChar: afii10073
Encoding: 1079 1079 458
GlifName: uni0437
Width: 575
VWidth: 0
Flags: HMW
AnchorPoint: "top" 300 500 basechar 0
AnchorPoint: "bottom" 300 0 basechar 0
LayerCount: 2
Fore
SplineSet
123 437 m 258
 115 465 l 258
 111 480 116 492 132 496 c 256
 168 505 208 510 248 510 c 256
 365 510 480 483 480 381 c 256
 480 320 438 283 366 264 c 257
 429 255 490 206 490 134 c 256
 490 32 366 -10 243 -10 c 256
 201 -10 159 -5 122 4 c 256
 106 8 101 20 105 35 c 258
 113 63 l 258
 117 78 128 83 144 79 c 256
 174 72 207 68 243 68 c 256
 341 68 404 99 404 149 c 256
 404 199 340 224 250 224 c 258
 199 224 l 258
 183 224 174 233 174 249 c 258
 174 276 l 258
 174 292 183 301 199 301 c 258
 250 301 l 258
 338 301 394 321 394 368 c 256
 394 415 339 432 248 432 c 256
 215 432 184 428 154 421 c 256
 138 417 127 422 123 437 c 258
EndSplineSet
Validated: 33
PickledDataWithLists: "(dp0
Vcom.schriftgestaltung.Glyphs.lastChange\\u000d
p1
V2016-05-30 10:13:27 +0000\\u000d
p2
s."
EndChar

StartChar: afii10074
Encoding: 1080 1080 459
GlifName: uni0438
Width: 575
VWidth: 0
Flags: HMW
AnchorPoint: "top" 288 500 basechar 0
AnchorPoint: "bottomright" 555 0 basechar 0
LayerCount: 2
Fore
SplineSet
69 474 m 258
 69 489 80 500 95 500 c 258
 129 500 l 258
 144 500 154 489 154 474 c 258
 154 139 l 257
 404 469 l 258
 421 491 435 500 463 500 c 258
 479 500 l 258
 497 500 506 491 506 475 c 258
 506 26 l 258
 506 11 495 0 480 0 c 258
 446 0 l 258
 431 0 421 11 421 26 c 258
 421 357 l 257
 171 36 l 258
 154 14 140 0 112 0 c 258
 96 0 l 258
 78 0 69 9 69 25 c 258
 69 474 l 258
  PathStart: -2
EndSplineSet
Validated: 1
PickledDataWithLists: "(dp0
Vcom.schriftgestaltung.Glyphs.lastChange\\u000d
p1
V2016-05-30 07:47:32 +0000\\u000d
p2
s."
EndChar

StartChar: afii10075
Encoding: 1081 1081 460
GlifName: uni0439
Width: 575
VWidth: 0
Flags: HMW
LayerCount: 2
Fore
SplineSet
69 474 m 258
 69 489 80 500 95 500 c 258
 129 500 l 258
 144 500 154 489 154 474 c 258
 154 139 l 257
 404 469 l 258
 421 491 435 500 463 500 c 258
 479 500 l 258
 497 500 506 491 506 475 c 258
 506 26 l 258
 506 11 495 0 480 0 c 258
 446 0 l 258
 431 0 421 11 421 26 c 258
 421 357 l 257
 171 36 l 258
 154 14 140 0 112 0 c 258
 96 0 l 258
 78 0 69 9 69 25 c 258
 69 474 l 258
  PathStart: -2
EndSplineSet
Refer: 165 728 N 1 0 0 1 0 50 2
Validated: 1
PickledDataWithLists: "(dp0
Vcom.schriftgestaltung.Glyphs.lastChange\\u000d
p1
V2016-05-30 07:48:42 +0000\\u000d
p2
s."
EndChar

StartChar: afii10076
Encoding: 1082 1082 461
GlifName: uni043A_
Width: 575
VWidth: 0
Flags: HMW
AnchorPoint: "top" 300 500 basechar 0
AnchorPoint: "bottom" 288 0 basechar 0
AnchorPoint: "bottomright" 580 0 basechar 0
LayerCount: 2
Fore
SplineSet
300 233 m 258
 502 31 l 258
 518 15 512 0 489 0 c 258
 431 0 l 258
 418 0 409 4 400 13 c 258
 200 214 l 258
 186 228 175 236 170 236 c 257
 170 25 l 258
 170 9 161 0 145 0 c 258
 110 0 l 258
 94 0 85 9 85 25 c 258
 85 475 l 258
 85 491 94 500 110 500 c 258
 145 500 l 258
 161 500 170 491 170 475 c 258
 170 285 l 257
 175 285 186 293 200 307 c 258
 380 487 l 258
 389 496 398 500 411 500 c 258
 469 500 l 258
 492 500 498 485 482 469 c 258
 300 287 l 258
 291 278 282 269 253 260 c 257
 282 251 291 242 300 233 c 258
EndSplineSet
Validated: 33
PickledDataWithLists: "(dp0
Vcom.schriftgestaltung.Glyphs.lastChange\\u000d
p1
V2016-05-30 07:49:26 +0000\\u000d
p2
s."
EndChar

StartChar: afii10077
Encoding: 1083 1083 462
GlifName: uni043B_
Width: 575
VWidth: 0
Flags: HMW
LayerCount: 2
Fore
SplineSet
490 475 m 258
 490 25 l 258
 490 9 481 0 465 0 c 258
 430 0 l 258
 414 0 405 9 405 25 c 258
 405 422 l 257
 226 422 l 257
 226 420 l 258
 226 182 188 14 67 -16 c 256
 51 -20 41 -10 41 7 c 258
 41 46 l 258
 41 60 49 66 62 73 c 256
 134 112 141 354 141 420 c 258
 141 475 l 258
 141 491 150 500 166 500 c 258
 465 500 l 258
 481 500 490 491 490 475 c 258
EndSplineSet
Validated: 33
PickledDataWithLists: "(dp0
Vcom.schriftgestaltung.Glyphs.lastChange\\u000d
p1
V2016-05-30 07:50:00 +0000\\u000d
p2
s."
EndChar

StartChar: afii10078
Encoding: 1084 1084 463
GlifName: uni043C_
Width: 575
VWidth: 0
Flags: HMW
LayerCount: 2
Fore
SplineSet
498 505 m 258
 516 505 525 496 525 480 c 257
 545 26 l 257
 545 11 534 0 519 0 c 258
 485 0 l 258
 470 0 461 11 460 26 c 258
 442 340 l 257
 331 118 l 258
 325 105 316 100 302 100 c 258
 274 100 l 258
 260 100 251 105 245 118 c 258
 134 340 l 257
 116 26 l 258
 115 11 106 0 91 0 c 258
 57 0 l 258
 42 0 30 11 31 26 c 258
 51 480 l 258
 52 496 60 505 78 505 c 258
 94 505 l 258
 122 505 141 494 153 469 c 258
 288 199 l 257
 423 469 l 258
 435 494 454 505 482 505 c 258
 498 505 l 258
  PathStart: -2
EndSplineSet
Validated: 33
PickledDataWithLists: "(dp0
Vcom.schriftgestaltung.Glyphs.lastChange\\u000d
p1
V2016-05-30 07:50:28 +0000\\u000d
p2
s."
EndChar

StartChar: afii10079
Encoding: 1085 1085 464
GlifName: uni043D_
Width: 575
VWidth: 0
Flags: HMW
AnchorPoint: "bottomright" 555 0 basechar 0
LayerCount: 2
Fore
SplineSet
447 500 m 258
 482 500 l 258
 498 500 507 492 507 475 c 258
 507 25 l 258
 507 9 499 0 482 0 c 258
 447 0 l 258
 431 0 422 9 422 25 c 258
 422 233 l 257
 153 233 l 257
 153 25 l 258
 153 9 145 0 128 0 c 258
 93 0 l 258
 77 0 68 9 68 25 c 257
 68 475 l 258
 68 491 77 500 93 500 c 258
 128 500 l 258
 145 500 153 492 153 475 c 258
 153 310 l 257
 422 310 l 257
 422 475 l 258
 422 492 431 500 447 500 c 258
EndSplineSet
Validated: 1
PickledDataWithLists: "(dp0
Vcom.schriftgestaltung.Glyphs.lastChange\\u000d
p1
V2016-05-30 07:51:04 +0000\\u000d
p2
s."
EndChar

StartChar: afii10081
Encoding: 1087 1087 466
GlifName: uni043F_
Width: 575
VWidth: 0
Flags: HMW
AnchorPoint: "bottomright" 555 0 basechar 0
LayerCount: 2
Fore
SplineSet
103 500 m 258
 473 500 l 258
 489 500 498 491 498 475 c 258
 498 25 l 258
 498 9 489 0 473 0 c 258
 438 0 l 258
 422 0 413 9 413 25 c 258
 413 422 l 257
 163 422 l 257
 163 25 l 258
 163 9 154 0 138 0 c 258
 103 0 l 258
 87 0 78 9 78 25 c 258
 78 475 l 258
 78 491 87 500 103 500 c 258
EndSplineSet
Validated: 1
PickledDataWithLists: "(dp0
Vcom.schriftgestaltung.Glyphs.lastChange\\u000d
p1
V2016-05-30 07:52:44 +0000\\u000d
p2
s."
EndChar

StartChar: afii10084
Encoding: 1090 1090 469
GlifName: uni0442
Width: 575
VWidth: 0
Flags: HMW
AnchorPoint: "bottom" 288 0 basechar 0
AnchorPoint: "bottomright" 555 0 basechar 0
LayerCount: 2
Fore
SplineSet
554 475 m 258
 554 449 l 258
 554 433 545 424 529 424 c 258
 330 424 l 257
 330 25 l 258
 330 9 322 0 305 0 c 258
 270 0 l 258
 254 0 245 9 245 25 c 258
 245 424 l 257
 46 424 l 258
 30 424 22 433 22 449 c 258
 22 475 l 258
 22 491 30 500 47 500 c 258
 529 500 l 258
 545 500 554 492 554 475 c 258
EndSplineSet
Validated: 1
PickledDataWithLists: "(dp0
Vcom.schriftgestaltung.Glyphs.lastChange\\u000d
p1
V2016-05-30 07:54:07 +0000\\u000d
p2
s."
EndChar

StartChar: afii10086
Encoding: 1092 1092 471
GlifName: uni0444
Width: 575
VWidth: 0
Flags: HMW
LayerCount: 2
Fore
SplineSet
330 510 m 257
 447 495 520 413 520 250 c 256
 520 87 447 5 330 -10 c 257
 330 -135 l 258
 330 -151 322 -160 305 -160 c 258
 270 -160 l 258
 254 -160 245 -151 245 -135 c 258
 245 -9 l 257
 130 8 55 90 55 250 c 256
 55 410 130 492 245 509 c 257
 245 635 l 258
 245 651 254 660 270 660 c 258
 305 660 l 258
 322 660 330 652 330 635 c 258
 330 510 l 257
  PathStart: -2
330 430 m 257
 330 70 l 257
 401 87 435 150 435 250 c 256
 435 350 401 413 330 430 c 257
245 430 m 257
 174 413 140 350 140 250 c 256
 140 150 174 87 245 70 c 257
 245 430 l 257
  PathStart: -2
EndSplineSet
Validated: 1
PickledDataWithLists: "(dp0
Vcom.schriftgestaltung.Glyphs.lastChange\\u000d
p1
V2016-05-30 10:13:41 +0000\\u000d
p2
s."
EndChar

StartChar: afii10088
Encoding: 1094 1094 473
GlifName: uni0446
Width: 575
VWidth: 0
Flags: HMW
LayerCount: 2
Fore
SplineSet
458 475 m 258
 458 78 l 257
 515 78 l 258
 531 78 540 69 540 53 c 258
 540 -75 l 258
 540 -91 531 -100 515 -100 c 258
 480 -100 l 258
 464 -100 455 -91 455 -75 c 258
 455 0 l 257
 103 0 l 258
 87 0 78 9 78 25 c 258
 78 475 l 258
 78 491 87 500 103 500 c 258
 138 500 l 258
 154 500 163 491 163 475 c 258
 163 78 l 257
 373 78 l 257
 373 475 l 258
 373 491 382 500 398 500 c 258
 433 500 l 258
 449 500 458 491 458 475 c 258
EndSplineSet
Validated: 1
PickledDataWithLists: "(dp0
Vcom.schriftgestaltung.Glyphs.lastChange\\u000d
p1
V2016-05-30 07:56:43 +0000\\u000d
p2
s."
EndChar

StartChar: afii10089
Encoding: 1095 1095 474
GlifName: uni0447
Width: 575
VWidth: 0
Flags: HMW
AnchorPoint: "top" 288 500 basechar 0
AnchorPoint: "bottomright" 555 0 basechar 0
LayerCount: 2
Fore
SplineSet
430 500 m 258
 465 500 l 258
 481 500 490 491 490 475 c 258
 490 25 l 258
 490 9 481 0 465 0 c 258
 430 0 l 258
 414 0 405 9 405 25 c 258
 405 145 l 257
 359 141 320 140 297 140 c 256
 149 140 85 196 85 342 c 258
 85 475 l 258
 85 491 93 500 110 500 c 258
 145 500 l 258
 161 500 170 491 170 475 c 258
 170 342 l 258
 170 248 206 216 297 216 c 256
 321 216 360 217 405 220 c 257
 405 475 l 258
 405 491 413 500 430 500 c 258
EndSplineSet
Validated: 1
PickledDataWithLists: "(dp0
Vcom.schriftgestaltung.Glyphs.lastChange\\u000d
p1
V2016-05-30 10:13:48 +0000\\u000d
p2
s."
EndChar

StartChar: afii10090
Encoding: 1096 1096 475
GlifName: uni0448
Width: 575
VWidth: 0
Flags: HMW
LayerCount: 2
Fore
SplineSet
462 500 m 258
 497 500 l 258
 513 500 522 491 522 475 c 258
 522 25 l 258
 522 9 513 0 497 0 c 258
 78 0 l 258
 62 0 53 9 53 25 c 258
 53 475 l 258
 53 491 62 500 78 500 c 258
 113 500 l 258
 129 500 138 491 138 475 c 258
 138 78 l 257
 245 78 l 257
 245 475 l 258
 245 491 254 500 270 500 c 258
 305 500 l 258
 321 500 330 491 330 475 c 258
 330 78 l 257
 437 78 l 257
 437 475 l 258
 437 491 446 500 462 500 c 258
EndSplineSet
Validated: 1
PickledDataWithLists: "(dp0
Vcom.schriftgestaltung.Glyphs.lastChange\\u000d
p1
V2016-05-30 07:57:20 +0000\\u000d
p2
s."
EndChar

